<svg width="12" height="124" viewBox="0 0 12 124" fill="none" xmlns="http://www.w3.org/2000/svg">
<g opacity="0.3">
<path d="M6 107L6 3" stroke="white"/>
<path d="M6.66878 106.716C7.18542 106.937 7.44691 107.412 7.44691 108.146C7.44691 108.733 7.22345 109.136 6.77971 109.356C7.59429 110.162 8.29794 110.345 8.89065 109.906C9.16599 109.728 9.47733 109.611 9.80302 109.563C10.1287 109.516 10.4609 109.539 10.7765 109.632C11.4437 109.814 11.851 110.273 12 111.006C11.4802 110.419 11.0491 110.222 10.7211 110.402C10.2384 110.686 9.77469 111 9.3328 111.343C9.16182 111.519 8.9532 111.655 8.72228 111.74C8.49135 111.826 8.244 111.859 7.99842 111.837C7.49389 111.806 7.01892 111.591 6.66561 111.233C7.04786 112.059 7.53286 112.835 8.10935 113.542C8.70206 114.274 9.2953 114.715 9.88906 114.863C9.58486 114.948 9.3078 115.109 9.08442 115.33C8.86104 115.552 8.69883 115.826 8.61331 116.127C8.40856 116.834 8.2414 117.55 8.11252 118.273C7.94621 119.146 7.72443 120.007 7.44849 120.852C7.09543 121.869 6.56848 122.817 5.89065 123.657C5.07501 122.776 4.53777 121.86 4.27892 120.907C4.02007 119.954 3.79768 119.074 3.61173 118.267C3.42261 117.46 3.23772 116.747 3.05705 116.127C2.9707 115.826 2.80782 115.552 2.58394 115.33C2.36006 115.109 2.08264 114.948 1.77813 114.863C2.14897 114.716 2.64923 114.331 3.27892 113.709C3.93014 113.055 4.50774 112.333 5.00158 111.556C4.11305 111.921 3.33492 111.848 2.66719 111.337C2.22504 110.994 1.76135 110.68 1.27892 110.396C0.950871 110.217 0.516639 110.419 -5.52993e-07 111.006C0.147384 110.273 0.556259 109.814 1.22187 109.632C1.53822 109.539 1.87127 109.515 2.19781 109.562C2.52434 109.61 2.8365 109.727 3.11252 109.906C3.70417 110.345 4.40993 110.162 5.22979 109.356C4.78605 109.136 4.5626 108.728 4.5626 108.146C4.55925 107.863 4.62822 107.583 4.76314 107.333C4.89805 107.083 5.09453 106.871 5.33439 106.716L6.66878 106.716Z" fill="white"/>
<path d="M3.17157 2.82843L6 5.65685L8.82843 2.82843L6 -1.43051e-06L3.17157 2.82843Z" fill="white"/>
</g>
</svg>
