<?xml version="1.0" standalone="no"?>
<!DOCTYPE svg PUBLIC "-//W3C//DTD SVG 1.1//EN" "http://www.w3.org/Graphics/SVG/1.1/DTD/svg11.dtd" >
<svg>
<metadata>
Created by FontForge 20090914 at Mon Aug  1 07:33:25 2022
 By www-data
Copyright (c) 2019 by Superior Type Foundry. All rights reserved.
</metadata>
<defs>
<font id="SteinerPremiumRB-Regular" horiz-adv-x="446" >
  <font-face 
    font-family="Steiner Premium RB"
    font-weight="400"
    font-stretch="normal"
    units-per-em="1000"
    panose-1="2 0 5 6 0 0 0 2 0 4"
    ascent="830"
    descent="-170"
    x-height="532"
    cap-height="750"
    bbox="-43.999 -233.002 950 930"
    underline-thickness="50"
    underline-position="-50"
    unicode-range="U+000D-U+FB04"
  />
<missing-glyph horiz-adv-x="830" 
d="M730 0h-630v630h630v-630zM150 85l230 230l-230 230v-460zM645 50l-230 230l-230 -230h460zM415 350l230 230h-460zM680 85v460l-230 -230z" />
    <glyph glyph-name="f_f" unicode="ff" horiz-adv-x="444" 
d="M407 0h-161v6l41 56v458h-140v-458l43 -56v-6h-161v6l40 56v458h-41v12h41c0 152 33.667 228 101 228c16 0 29.167 -5 39.5 -15s15.5 -22.667 15.5 -38s-5.16699 -28 -15.5 -38s-22.833 -15 -37.5 -15s-27.167 5 -37.5 15s-15.5 22.667 -15.5 38
c0 8.66699 1.66699 16.334 5 23.001c-14.667 -20 -22 -47.333 -22 -82c0 -23.333 4 -45.833 12 -67.5s19 -37.834 33 -48.501h140c0 152 33.667 228 101 228c16 0 29.167 -5 39.5 -15s15.5 -22.667 15.5 -38s-5.16699 -28 -15.5 -38s-22.833 -15 -37.5 -15
s-27.167 5 -37.5 15s-15.5 22.667 -15.5 38c0 10 1.66699 17.667 5 23c-14.667 -18.667 -22 -46 -22 -82c0 -24 4 -46.667 12 -68s19 -37.333 33 -48h55v-12h-55v-458l42 -56v-6z" />
    <glyph glyph-name="f_i" unicode="fi" horiz-adv-x="435" 
d="M407 0h-159v6l40 56v407l-36 51h-105v-458l43 -56v-6h-161v6l40 56v458h-41v12h41c0 152 33.667 228 101 228c16 0 29.167 -5 39.5 -15s15.5 -22.667 15.5 -38s-5.16699 -28 -15.5 -38s-22.833 -15 -37.5 -15s-27.167 5 -37.5 15s-15.5 22.667 -15.5 38
c0 8.66699 1.66699 16.334 5 23.001c-14.667 -20 -22 -47.333 -22 -82c0 -23.333 4 -45.833 12 -67.5s19 -37.834 33 -48.501h219v-470l41 -56v-6zM327 602c-14.667 0 -27.167 5.1709 -37.5 15.5039s-15.5 23.166 -15.5 38.499s5.16699 28.166 15.5 38.499
s22.833 15.5 37.5 15.5c15.333 0 28.166 -5.33301 38.499 -16s15.5 -23.334 15.5 -38.001s-5.16699 -27.334 -15.5 -38.001s-23.166 -16 -38.499 -16z" />
    <glyph glyph-name="f_l" unicode="fl" horiz-adv-x="435" 
d="M190 0h-161v6l40 56v458h-41v12h41c0 152 33.667 228 101 228c16 0 29.167 -5 39.5 -15s15.5 -22.667 15.5 -38s-5.16699 -28 -15.5 -38s-22.833 -15 -37.5 -15s-27.167 5 -37.5 15s-15.5 22.667 -15.5 38c0 8.66699 1.66699 16.334 5 23.001
c-14.667 -20 -22 -47.333 -22 -82c0 -23.333 4 -45.833 12 -67.5s19 -37.834 33 -48.501h56v-12h-56v-458l43 -56v-6zM407 0h-159v6l40 56v626l-40 56v6h118v-688l41 -56v-6z" />
    <glyph glyph-name="f_f_i" unicode="ffi" horiz-adv-x="653" 
d="M625 0h-160v6l41 56v407l-36 51h-105v-458l42 -56v-6h-161v6l41 56v458h-140v-458l43 -56v-6h-161v6l40 56v458h-41v12h41c0 152 33.667 228 101 228c16 0 29.167 -5 39.5 -15s15.5 -22.667 15.5 -38s-5.16699 -28 -15.5 -38s-22.833 -15 -37.5 -15s-27.167 5 -37.5 15
s-15.5 22.667 -15.5 38c0 8.66699 1.66699 16.334 5 23.001c-14.667 -20 -22 -47.333 -22 -82c0 -23.333 4 -45.833 12 -67.5s19 -37.834 33 -48.501h140c0 152 33.667 228 101 228c16 0 29.167 -5 39.5 -15s15.5 -22.667 15.5 -38s-5.16699 -28 -15.5 -38
s-22.833 -15 -37.5 -15s-27.167 5 -37.5 15s-15.5 22.667 -15.5 38c0 10 1.66699 17.667 5 23c-14.667 -18.667 -22 -46 -22 -82c0 -24 4 -46.667 12 -68s19 -37.333 33 -48h219v-470l41 -56v-6zM545 602c-15.333 0 -28.166 5.33301 -38.499 16s-15.5 23.334 -15.5 38.001
s5.16699 27.334 15.5 38.001s23.166 16 38.499 16s28.166 -5.33301 38.499 -16s15.5 -23.334 15.5 -38.001s-5.16699 -27.334 -15.5 -38.001s-23.166 -16 -38.499 -16z" />
    <glyph glyph-name="f_f_l" unicode="ffl" horiz-adv-x="653" 
d="M407 0h-161v6l41 56v458h-140v-458l43 -56v-6h-161v6l40 56v458h-41v12h41c0 152 33.667 228 101 228c16 0 29.167 -5 39.5 -15s15.5 -22.667 15.5 -38s-5.16699 -28 -15.5 -38s-22.833 -15 -37.5 -15s-27.167 5 -37.5 15s-15.5 22.667 -15.5 38
c0 8.66699 1.66699 16.334 5 23.001c-14.667 -20 -22 -47.333 -22 -82c0 -23.333 4 -45.833 12 -67.5s19 -37.834 33 -48.501h140c0 152 33.667 228 101 228c16 0 29.167 -5 39.5 -15s15.5 -22.667 15.5 -38s-5.16699 -28 -15.5 -38s-22.833 -15 -37.5 -15
s-27.167 5 -37.5 15s-15.5 22.667 -15.5 38c0 10 1.66699 17.667 5 23c-14.667 -18.667 -22 -46 -22 -82c0 -24 4 -46.667 12 -68s19 -37.333 33 -48h55v-12h-55v-458l42 -56v-6zM625 0h-160v6l41 56v626l-41 56v6h119v-688l41 -56v-6z" />
    <glyph glyph-name="f_b" unicode="fb" horiz-adv-x="642" 
d="M190 0h-161v6l40 56v458h-41v12h41c0 152 33.667 228 101 228c16 0 29.167 -5 39.5 -15s15.5 -22.667 15.5 -38s-5.16699 -28 -15.5 -38s-22.833 -15 -37.5 -15s-27.167 5 -37.5 15s-15.5 22.667 -15.5 38c0 8.66699 1.66699 16.334 5 23.001
c-14.667 -20 -22 -47.333 -22 -82c0 -23.333 4 -45.833 12 -67.5s19 -37.834 33 -48.501h56v-12h-56v-458l43 -56v-6zM364 53l-69.999 -63h-6v698l-40 56v6h118v-267c39.333 39.333 72.666 59 99.999 59c40.667 0 74.5 -23 101.5 -69s40.5 -115 40.5 -207
s-13.5 -161 -40.5 -207s-61.167 -69 -102.5 -69c-31.333 0 -65 21 -101 63zM366.001 472v-410.001c23.333 -20.667 45 -31 65 -31c30 0 53.167 21.667 69.5 65s24.5 100 24.5 170c0 70.667 -8.33301 127.834 -25 171.501s-40 65.5 -70 65.5c-20 0 -41.333 -10.333 -64 -31z
" />
    <glyph glyph-name="f_h" unicode="fh" horiz-adv-x="665" 
d="M190 0h-161v6l40 56v458h-41v12h41c0 152 33.667 228 101 228c16 0 29.167 -5 39.5 -15s15.5 -22.667 15.5 -38s-5.16699 -28 -15.5 -38s-22.833 -15 -37.5 -15s-27.167 5 -37.5 15s-15.5 22.667 -15.5 38c0 8.66699 1.66699 16.334 5 23.001
c-14.667 -20 -22 -47.333 -22 -82c0 -23.333 4 -45.833 12 -67.5s19 -37.834 33 -48.501h56v-12h-56v-458l43 -56v-6zM636 0h-117.999v411c0 59.333 -22.333 89 -67 89c-26.667 0 -55 -11 -85 -33v-405l40 -56v-6h-158v6l40 56v626l-40 56v6h118v-271
c53.333 42 99.666 63 138.999 63c60.667 0 91 -39.333 91 -118v-362l40 -56v-6z" />
    <glyph glyph-name="f_j" unicode="fj" horiz-adv-x="425" 
d="M288 8l0.000976562 461.001l-36 51h-105v-458l43 -56v-6h-161v6l40 56v458h-41v12h41c0 152 33.667 228 101 228c16 0 29.167 -5 39.5 -15s15.5 -22.667 15.5 -38s-5.16699 -28 -15.5 -38s-22.833 -15 -37.5 -15s-27.167 5 -37.5 15s-15.5 22.667 -15.5 38
c0 8.66699 1.66699 16.334 5 23.001c-14.667 -20 -22 -47.333 -22 -82c0 -23.333 4 -45.833 12 -67.5s19 -37.834 33 -48.501h219v-524c0 -118.667 -31 -178 -93 -178c-14.667 0 -26.834 4.66699 -36.501 14s-14.5 21 -14.5 35c0 14.667 4.83301 26.667 14.5 36
s21.5 14 35.5 14s25.667 -4.66699 35 -14s14 -21.333 14 -36c0 -11.333 -2.33301 -20.333 -7 -27c13.333 13.333 20 32.333 20 57c0 18 -4 36.167 -12 54.5s-19.333 33.166 -34 44.499zM327.001 602.001c-14.667 0 -27.167 5.1709 -37.5 15.5039s-15.5 23.166 -15.5 38.499
s5.16699 28.166 15.5 38.499s22.833 15.5 37.5 15.5c15.333 0 28.166 -5.33301 38.499 -16s15.5 -23.334 15.5 -38.001s-5.16699 -27.334 -15.5 -38.001s-23.166 -16 -38.499 -16z" />
    <glyph glyph-name="f_k" unicode="fk" horiz-adv-x="623" 
d="M406 0l-158 0.000976562v6l40 56v626l-40 56v6h118v-438h71l46 116l-8 98v6h108v-6l-86 -98l-46 -116h72c4.66699 -44 14 -95.833 28 -155.5s29.333 -109.834 46 -150.501v-6h-82c-14 38.667 -27.333 87.667 -40 147s-21.667 110.333 -27 153h-82v-238l40 -56v-6z
M190 0.000976562h-161v6l40 56v458h-41v12h41c0 152 33.667 228 101 228c16 0 29.167 -5 39.5 -15s15.5 -22.667 15.5 -38s-5.16699 -28 -15.5 -38s-22.833 -15 -37.5 -15s-27.167 5 -37.5 15s-15.5 22.667 -15.5 38c0 8.66699 1.66699 16.334 5 23.001
c-14.667 -20 -22 -47.333 -22 -82c0 -23.333 4 -45.833 12 -67.5s19 -37.834 33 -48.501h56v-12h-56v-458l43 -56v-6z" />
    <glyph glyph-name="f_t" unicode="ft" horiz-adv-x="501" 
d="M27 0v6l41 56v458h-41v12h41c0 152 33.667 228 101 228c16 0 29.167 -5 39.5 -15s15.5 -22.667 15.5 -38s-5 -28 -15 -38s-22.667 -15 -38 -15s-28 5 -38 15s-15 22.667 -15 38c0 10 1.66699 17.667 5 23c-14.667 -18.667 -22 -46 -22 -82c0 -24 4 -46.667 12 -68
s19 -37.333 33 -48h139l73 176h5v-176h111v-12h-111v-396c0 -34.667 6.33301 -60.5 19 -77.5s29.667 -25.5 51 -25.5c15.333 0 31.333 3.66699 48 11l3 -7c-38 -23.333 -73.333 -35 -106 -35c-62 0 -93 38.333 -93 115v415h-139v-458l42 -56v-6h-161z" />
    <glyph glyph-name="f_f_b" unicode="ffb" horiz-adv-x="860" 
d="M29 0v6l40 56v458h-41v12h41c0 152 33.667 228 101 228c16 0 29.167 -5 39.5 -15s15.5 -22.667 15.5 -38s-5.16699 -28 -15.5 -38s-22.833 -15 -37.5 -15s-27.167 5 -37.5 15s-15.5 22.667 -15.5 38c0 8.66699 1.66699 16.334 5 23.001c-14.667 -20 -22 -47.333 -22 -82
c0 -23.333 4 -45.833 12 -67.5s19 -37.834 33 -48.501h140c0 152 33.667 228 101 228c16 0 29.167 -5 39.5 -15s15.5 -22.667 15.5 -38s-5.16699 -28 -15.5 -38s-22.833 -15 -37.5 -15s-27.167 5 -37.5 15s-15.5 22.667 -15.5 38c0 10 1.66699 17.667 5 23
c-14.667 -18.667 -22 -46 -22 -82c0 -24 4 -46.667 12 -68s19 -37.333 33 -48h55v-12h-55v-458l42 -56v-6h-161v6l41 56v458h-140v-458l43 -56v-6h-161zM506 -10l0.00195312 698l-41 56v6h119v-267c39.333 39.333 72.666 59 99.999 59c40.667 0 74.5 -23 101.5 -69
s40.5 -115 40.5 -207s-13.5 -161 -40.5 -207s-61.5 -69 -103.5 -69c-30.667 0 -64.334 21 -101.001 63l-69 -63h-6zM584.002 472l-0.000976562 -410.001c22.667 -20.667 44.334 -31 65.001 -31c30 0 53.167 21.833 69.5 65.5s24.5 100.167 24.5 169.5
c0 70.667 -8.33301 127.834 -25 171.501s-40 65.5 -70 65.5c-20 0 -41.333 -10.333 -64 -31z" />
    <glyph glyph-name="f_f_h" unicode="ffh" horiz-adv-x="882" 
d="M407 0h-161v6l41 56v458h-140v-458l43 -56v-6h-161v6l40 56v458h-41v12h41c0 152 33.667 228 101 228c16 0 29.167 -5 39.5 -15s15.5 -22.667 15.5 -38s-5.16699 -28 -15.5 -38s-22.833 -15 -37.5 -15s-27.167 5 -37.5 15s-15.5 22.667 -15.5 38
c0 8.66699 1.66699 16.334 5 23.001c-14.667 -20 -22 -47.333 -22 -82c0 -23.333 4 -45.833 12 -67.5s19 -37.834 33 -48.501h140c0 152 33.667 228 101 228c16 0 29.167 -5 39.5 -15s15.5 -22.667 15.5 -38s-5.16699 -28 -15.5 -38s-22.833 -15 -37.5 -15
s-27.167 5 -37.5 15s-15.5 22.667 -15.5 38c0 10 1.66699 17.667 5 23c-14.667 -18.667 -22 -46 -22 -82c0 -24 4 -46.667 12 -68s19 -37.333 33 -48h55v-12h-55v-458l42 -56v-6zM854 0h-119v411c0 59.333 -22 89 -66 89c-28 0 -56.333 -11 -85 -33v-405l39 -56v-6h-158v6
l41 56v626l-41 56v6h119v-271c52.667 42 99 63 139 63c60 0 90 -39.333 90 -118v-362l41 -56v-6z" />
    <glyph glyph-name="f_f_j" unicode="ffj" horiz-adv-x="643" 
d="M506 8l0.000976562 461.001l-36 51h-105v-458l42 -56v-6h-161v6l41 56v458h-140v-458l43 -56v-6h-161v6l40 56v458h-41v12h41c0 152 33.667 228 101 228c16 0 29.167 -5 39.5 -15s15.5 -22.667 15.5 -38s-5.16699 -28 -15.5 -38s-22.833 -15 -37.5 -15
s-27.167 5 -37.5 15s-15.5 22.667 -15.5 38c0 8.66699 1.66699 16.334 5 23.001c-14.667 -20 -22 -47.333 -22 -82c0 -23.333 4 -45.833 12 -67.5s19 -37.834 33 -48.501h140c0 152 33.667 228 101 228c16 0 29.167 -5 39.5 -15s15.5 -22.667 15.5 -38
s-5.16699 -28 -15.5 -38s-22.833 -15 -37.5 -15s-27.167 5 -37.5 15s-15.5 22.667 -15.5 38c0 10 1.66699 17.667 5 23c-14.667 -18.667 -22 -46 -22 -82c0 -24 4 -46.667 12 -68s19 -37.333 33 -48h219v-524c0 -118.667 -31 -178 -93 -178
c-14.667 0 -26.834 4.66699 -36.501 14s-14.5 21 -14.5 35c0 14.667 4.66699 26.667 14 36s21 14 35 14s25.833 -4.66699 35.5 -14s14.5 -21.333 14.5 -36c0 -10.667 -2.66699 -19.667 -8 -27c14 13.333 21 32.333 21 57c0 18 -4.16699 36.167 -12.5 54.5
s-19.5 33.166 -33.5 44.499zM545.001 602.001c-15.333 0 -28.166 5.33301 -38.499 16s-15.5 23.334 -15.5 38.001s5.16699 27.334 15.5 38.001s23.166 16 38.499 16s28.166 -5.33301 38.499 -16s15.5 -23.334 15.5 -38.001s-5.16699 -27.334 -15.5 -38.001
s-23.166 -16 -38.499 -16z" />
    <glyph glyph-name="f_f_k" unicode="ffk" horiz-adv-x="841" 
d="M407 0h-161v6l41 56v458h-140v-458l43 -56v-6h-161v6l40 56v458h-41v12h41c0 152 33.667 228 101 228c16 0 29.167 -5 39.5 -15s15.5 -22.667 15.5 -38s-5.16699 -28 -15.5 -38s-22.833 -15 -37.5 -15s-27.167 5 -37.5 15s-15.5 22.667 -15.5 38
c0 8.66699 1.66699 16.334 5 23.001c-14.667 -20 -22 -47.333 -22 -82c0 -23.333 4 -45.833 12 -67.5s19 -37.834 33 -48.501h140c0 152 33.667 228 101 228c16 0 29.167 -5 39.5 -15s15.5 -22.667 15.5 -38s-5.16699 -28 -15.5 -38s-22.833 -15 -37.5 -15
s-27.167 5 -37.5 15s-15.5 22.667 -15.5 38c0 10 1.66699 17.667 5 23c-14.667 -18.667 -22 -46 -22 -82c0 -24 4 -46.667 12 -68s19 -37.333 33 -48h55v-12h-55v-458l42 -56v-6zM623 0h-158v6l41 56v626l-41 56v6h119v-438h70l47 116l-9 98v6h108v-6l-85 -98l-47 -116h73
c4.66699 -44.667 14 -96.667 28 -156s29 -109.333 45 -150v-6h-82c-30.667 86.667 -53 186.667 -67 300h-81v-238l39 -56v-6z" />
    <glyph glyph-name="t_t" unicode="tt" horiz-adv-x="506" 
d="M485 32l2.99902 -7c-38 -23.333 -73.333 -35 -106 -35c-61.333 0 -92 38.333 -92 115v415h-140v-396c0 -68.667 23.333 -103 70 -103c15.333 0 31.333 3.66699 48 11l2 -7c-37.333 -23.333 -72.333 -35 -105 -35c-62 0 -93 38.333 -93 115v415h-51v12h51l72 176h6v-176
h140l72 176h6v-176h110v-12h-110v-396c0 -68.667 23.333 -103 70 -103c14.667 0 30.334 3.66699 47.001 11z" />
    <glyph glyph-name=".notdef" horiz-adv-x="830" 
d="M730 0h-630v630h630v-630zM150 85l230 230l-230 230v-460zM645 50l-230 230l-230 -230h460zM415 350l230 230h-460zM680 85v460l-230 -230z" />
    <glyph glyph-name=".null" horiz-adv-x="0" 
 />
    <glyph glyph-name=".null" horiz-adv-x="0" 
 />
    <glyph glyph-name="CR" unicode="&#xd;" horiz-adv-x="0" 
 />
    <glyph glyph-name="space" unicode=" " horiz-adv-x="280" 
 />
    <glyph glyph-name="exclam" unicode="!" horiz-adv-x="202" 
d="M101 -10c-15.333 0 -28.333 5.33301 -39 16s-16 23.667 -16 39s5.33301 28.333 16 39s23.667 16 39 16s28.333 -5.33301 39 -16s16 -23.667 16 -39s-5.33301 -28.333 -16 -39s-23.667 -16 -39 -16zM104 176h-6l-50 568v6h105v-6z" />
    <glyph glyph-name="quotedbl" unicode="&#x22;" horiz-adv-x="293" 
d="M83 546h-7l-43 237v6h94v-6zM217 546h-7l-43 237v6h94v-6z" />
    <glyph glyph-name="numbersign" unicode="#" horiz-adv-x="563" 
d="M219 516h-117v11h120l67 233l13 -3l-66 -230h176l67 233l13 -3l-66 -230h97v-11h-100l-75 -261h114v-12h-117l-72 -253l-13 3l71 250h-176l-72 -253l-13 3l71 250h-101v12h105zM233 516l-75 -261h177l74 261h-176z" />
    <glyph glyph-name="dollar" unicode="$" horiz-adv-x="355" 
d="M187 -110l-12.999 0.00195312v101c-2.66699 0 -6.33398 -0.166992 -11.001 -0.5s-8 -0.5 -10 -0.5c-42 0 -82.667 5.66699 -122 17v127h6l118 -132c9.33301 1.33301 15.666 2.66602 18.999 3.99902v312c-4.66699 6.66699 -15.5 20.5 -32.5 41.5l-35.5 44.5
c-6.66699 8.66699 -16.167 22.5 -28.5 41.5s-21.166 34.667 -26.499 47s-10.333 27.166 -15 44.499s-7 34.333 -7 51c0 48 13.833 87 41.5 117s62.167 47.667 103.5 53v102h13v-101c0.666992 0 2.16699 0.166992 4.5 0.5s4.16602 0.5 5.49902 0.5
c34.667 0 72.334 -5.33301 113.001 -16v-128h-6l-108 133l-9 -2v-303l22 -27.5l23.5 -29.5l21 -27.5c10.333 -13.667 17.5 -24 21.5 -31l18 -30c8 -13 13.5 -24 16.5 -33l11 -32c4.33301 -12.333 7.33301 -24.333 9 -36s2.5 -23.5 2.5 -35.5c0 -46.667 -13.5 -85 -40.5 -115
s-61.833 -48 -104.5 -54v-103zM263.001 124.002c0 50.667 -25.333 109.667 -76 177v-291c50.667 18 76 56 76 114zM98.001 626.002c0 -44.667 25.333 -99.667 76 -165v281c-50.667 -19.333 -76 -58 -76 -116z" />
    <glyph glyph-name="percent" unicode="%" horiz-adv-x="585" 
d="M142 382c-27.333 0 -52.166 15.8291 -74.499 47.4961s-33.5 78.834 -33.5 141.501s11.167 109.834 33.5 141.501s47.166 47.5 74.499 47.5c28 0 53 -15.667 75 -47s33 -78.666 33 -141.999s-11 -110.666 -33 -141.999s-47 -47 -75 -47zM142 391.996
c32.667 0 49 59.667 49 179s-16.333 179 -49 179c-32 0 -48 -59.667 -48 -179s16 -179 48 -179zM456 -10.0039c-26.667 0 -51.334 15.8291 -74.001 47.4961s-34 78.834 -34 141.501s11.333 109.834 34 141.501s47.334 47.5 74.001 47.5c28 0 53 -15.667 75 -47
s33 -78.666 33 -141.999s-11 -110.666 -33 -141.999s-47 -47 -75 -47zM456 -0.0078125c32.667 0 49 59.667 49 179s-16.333 179 -49 179c-31.333 0 -47 -59.667 -47 -179s15.667 -179 47 -179zM33 -10.0078l-11 8l514 762l12 -8z" />
    <glyph glyph-name="ampersand" unicode="&#x26;" horiz-adv-x="494" 
d="M475 0l-93.9971 -0.00195312c-0.666992 1.33301 -8.83398 14.333 -24.501 39s-23.834 37.334 -24.501 38.001c-32 -58 -77.667 -87 -137 -87c-30 0 -55.667 5.33301 -77 16s-37.5 25.167 -48.5 43.5s-19 37.166 -24 56.499s-7.5 40 -7.5 62c0 86.667 32.333 171 97 253
c-28.667 68.667 -43 124.334 -43 167.001c0 53.333 14.5 95.333 43.5 126s64.833 46 107.5 46c34 0 72 -5.33301 114 -16v-128h-6l-109 133c-53.333 -13.333 -80 -54.333 -80 -123c0 -49.333 17.167 -110.5 51.5 -183.5s83.166 -159.833 146.499 -260.5
c7.33301 40.667 11 83 11 127v30l-57 115v6h116v-6l-46 -115v-30c0 -53.333 -4.33301 -101 -13 -143c34 -55.333 68.667 -108.666 104 -159.999v-6zM139.003 412.998c-26 -52.667 -39.002 -111 -39.002 -175c0 -59.333 12.333 -108.833 37 -148.5
s58.334 -59.5 101.001 -59.5c36.667 0 65 20.667 85 62c-93.333 148.667 -154.666 255.667 -183.999 321z" />
    <glyph glyph-name="quotesingle" unicode="'" horiz-adv-x="159" 
d="M83 546h-7l-43 237v6h94v-6z" />
    <glyph glyph-name="parenleft" unicode="(" horiz-adv-x="291" 
d="M279 -126l-4 -7c-30.667 24.667 -57.5 50.167 -80.5 76.5s-45.5 59.5 -67.5 99.5s-38.833 88 -50.5 144s-17.5 118.667 -17.5 188s5.83301 132 17.5 188s28.5 104 50.5 144s44.5 73.167 67.5 99.5s49.833 51.833 80.5 76.5l4 -7c-91.333 -84.667 -137 -251.667 -137 -501
s45.667 -416.333 137 -501z" />
    <glyph glyph-name="parenright" unicode=")" horiz-adv-x="291" 
d="M16 -133l-4 7c91.333 84.667 137 251.667 137 501s-45.667 416.333 -137 501l4 7c30.667 -24.667 57.5 -50.167 80.5 -76.5s45.5 -59.5 67.5 -99.5s38.833 -88 50.5 -144s17.5 -118.667 17.5 -188s-5.83301 -132 -17.5 -188s-28.5 -104 -50.5 -144
s-44.5 -73.167 -67.5 -99.5s-49.833 -51.833 -80.5 -76.5z" />
    <glyph glyph-name="asterisk" unicode="*" horiz-adv-x="405" 
d="M328 490l-7 1l-117 111l38 -158l-2 -5h-75l-3 5l39 158l-117 -111l-7 -1l-37 65l3 4l155 46l-155 45l-3 4l37 65l7 -1l117 -111l-39 158l3 5h75l2 -5l-38 -158l117 111l7 1l37 -65l-3 -4l-155 -45l155 -46l3 -4z" />
    <glyph glyph-name="plus" unicode="+" horiz-adv-x="570" 
d="M292 160h-14v219h-218v12h218v219h14v-219h218v-12h-218v-219z" />
    <glyph glyph-name="comma" unicode="," horiz-adv-x="167" 
d="M51 -109l-5.00098 8c26 12 46 29 60 51s21 43.667 21 65c-12 -16.667 -28.333 -25 -49 -25c-15.333 0 -28.333 5.33301 -39 16s-16 23.667 -16 39s5.5 28.333 16.5 39s24.833 16 41.5 16c20.667 0 36.334 -6.66699 47.001 -20s16 -30.333 16 -51
c0 -27.333 -8 -53.833 -24 -79.5s-39 -45.167 -69 -58.5z" />
    <glyph glyph-name="hyphen" unicode="-" horiz-adv-x="350" 
d="M300 265h-250v12h250v-12z" />
    <glyph glyph-name="period" unicode="." horiz-adv-x="156" 
d="M78 -10c-15.333 0 -28.333 5.33301 -39 16s-16 23.667 -16 39s5.33301 28.333 16 39s23.667 16 39 16s28.333 -5.33301 39 -16s16 -23.667 16 -39s-5.33301 -28.333 -16 -39s-23.667 -16 -39 -16z" />
    <glyph glyph-name="slash" unicode="/" horiz-adv-x="459" 
d="M53 -130l-13 4l366 1006l13 -4z" />
    <glyph glyph-name="zero" unicode="0" horiz-adv-x="459" 
d="M229 -10c-54 0 -99.5 31.167 -136.5 93.5s-55.5 159.5 -55.5 291.5s18.5 229.167 55.5 291.5s82.5 93.5 136.5 93.5s99.667 -31.167 137 -93.5s56 -159.5 56 -291.5s-18.667 -229.167 -56 -291.5s-83 -93.5 -137 -93.5zM229 2c73.333 0 110 124.333 110 373
c0 249.333 -36.667 374 -110 374c-72.667 0 -109 -124.667 -109 -374c0 -248.667 36.333 -373 109 -373z" />
    <glyph glyph-name="one" unicode="1" horiz-adv-x="231" 
d="M203 0h-166v6l44 56v587l-52 36v6l124 61h7v-690l43 -56v-6z" />
    <glyph glyph-name="two" unicode="2" horiz-adv-x="378" 
d="M358 0l-338 0.000976562v10l103.5 189c19 35.333 43.5 84.333 73.5 147s50.5 114.5 61.5 155.5s16.5 79.5 16.5 115.5c0 35.333 -9.83301 65 -29.5 89s-47.5 38.333 -83.5 43l-110 -133h-6v126c46 12 86 18 120 18c50.667 0 95 -13.167 133 -39.5s57 -65.5 57 -117.5
c0 -36 -10.833 -78.333 -32.5 -127s-45.167 -92.167 -70.5 -130.5l-98.5 -144c-40.333 -57.667 -69.5 -100.834 -87.5 -129.501h229l56 71h6v-143z" />
    <glyph glyph-name="three" unicode="3" horiz-adv-x="399" 
d="M29 8l0.000976562 126.002h5l109 -132c41.333 5.33301 75.833 23.166 103.5 53.499s41.5 73.833 41.5 130.5c0 52.667 -11.833 97.167 -35.5 133.5s-55.5 54.5 -95.5 54.5h-34v12h34c34.667 0 63.5 19.667 86.5 59s34.5 83.666 34.5 132.999c0 48 -10.667 87.333 -32 118
s-52 48.334 -92 53.001l-108 -133h-6v126c41.333 12 80 18 116 18c55.333 0 103.166 -14.833 143.499 -44.5s60.5 -74.5 60.5 -134.5c0 -48 -14.667 -90 -44 -126s-70.333 -61 -123 -75c118 -26.667 177 -91.334 177 -194.001c0 -41.333 -12 -77.5 -36 -108.5
s-52.667 -53.333 -86 -67s-67.333 -20.5 -102 -20.5c-33.333 0 -72.333 6 -117 18z" />
    <glyph glyph-name="four" unicode="4" horiz-adv-x="420" 
d="M365 0h-165v6l44 56v110h-228v68l228 510h78v-510h61v-68h-61v-110l43 -56v-6zM244 240v472h-4l-211 -472h215z" />
    <glyph glyph-name="five" unicode="5" horiz-adv-x="379" 
d="M29 8l0.000976562 126.003h5l109 -132c38 5.33301 69.667 26.166 95 62.499s38 83.5 38 141.5c0 63.333 -17.667 113.666 -53 150.999s-80.666 56 -135.999 56c-12.667 0 -24.667 -1 -36 -3h-12v340h203l73 48h6v-120h-270v-258c27.333 6.66699 55 10 83 10
c69.333 0 124.166 -21.333 164.499 -64s60.5 -95 60.5 -157c0 -64.667 -22.5 -117.334 -67.5 -158.001s-93.833 -61 -146.5 -61c-32.667 0 -71.334 6 -116.001 18z" />
    <glyph glyph-name="six" unicode="6" horiz-adv-x="440" 
d="M371 613l-5.99902 -0.000976562l-108 136c-41.333 -17.333 -75.833 -58.666 -103.5 -123.999s-41.834 -147.666 -42.501 -246.999c57.333 44.667 108 67 152 67c41.333 0 76.333 -17.5 105 -52.5s43 -83.833 43 -146.5c0 -78.667 -18.167 -141 -54.5 -187
s-78.5 -69 -126.5 -69c-25.333 0 -49.333 6.5 -72 19.5s-44 33.333 -64 61s-35.833 67 -47.5 118s-17.5 110.5 -17.5 178.5c0 127.333 23.5 224.666 70.5 291.999s100.167 101 159.5 101c34 0 71.333 -5.33301 112 -16v-131zM230.001 1.99902
c30.667 0 56.333 21.167 77 63.5s31 92.5 31 150.5c0 53.333 -11.5 97.5 -34.5 132.5s-54.5 52.5 -94.5 52.5c-30 0 -62.667 -11.333 -98 -34c0 -243.333 39.667 -365 119 -365z" />
    <glyph glyph-name="seven" unicode="7" horiz-adv-x="382" 
d="M202 0h-95v10l237 668h-245l-56 -71h-6v143h335v-10z" />
    <glyph glyph-name="eight" unicode="8" horiz-adv-x="462" 
d="M282 392c46.667 -10 83.667 -33 111 -69s41 -79 41 -129c0 -59.333 -18.667 -108.166 -56 -146.499s-86.333 -57.5 -147 -57.5s-109.5 19.167 -146.5 57.5s-55.5 87.166 -55.5 146.499c0 50 13.667 93 41 129s64.333 59 111 69c-40 10 -72.333 31 -97 63
s-37 71.333 -37 118c0 56 17.5 101.167 52.5 135.5s78.833 51.5 131.5 51.5s96.5 -17.167 131.5 -51.5s52.5 -79.5 52.5 -135.5c0 -46.667 -12.167 -86 -36.5 -118s-56.5 -53 -96.5 -63zM231 386c-29.333 0 -53.501 -10.001 -72.501 -30.001s-31.667 -43.5 -38 -70.5
s-9.5 -57.5 -9.5 -91.5c0 -54.667 9.33301 -100.334 28 -137.001s49.334 -55 92.001 -55s73.5 18.333 92.5 55s28.5 82.334 28.5 137.001c0 24.667 -2 47.834 -6 69.501s-10.333 42 -19 61s-21.167 34 -37.5 45s-35.833 16.5 -58.5 16.5zM230.999 748.999
c-35.333 0 -61.333 -16.5 -78 -49.5s-25 -75.167 -25 -126.5c0 -50.667 8.16699 -92.5 24.5 -125.5s42.5 -49.5 78.5 -49.5c35.333 0 61.5 16.333 78.5 49s25.5 74.667 25.5 126s-8.5 93.5 -25.5 126.5s-43.167 49.5 -78.5 49.5z" />
    <glyph glyph-name="nine" unicode="9" horiz-adv-x="440" 
d="M67 7l0.00390625 130.002h6l109 -135c41.333 17.333 75.666 58.166 102.999 122.499s41.666 145.833 42.999 244.5c-56.667 -44.667 -107.334 -67 -152.001 -67c-40.667 0 -75.334 17.667 -104.001 53s-43 84.333 -43 147c0 79.333 18.167 142.166 54.5 188.499
s78.166 69.5 125.499 69.5c25.333 0 49.5 -6.5 72.5 -19.5s44.5 -33.333 64.5 -61s35.833 -66.834 47.5 -117.501s17.5 -110 17.5 -178c0 -66 -7 -125.167 -21 -177.5s-32.5 -93.666 -55.5 -123.999s-47.833 -53.333 -74.5 -69s-53.667 -23.5 -81 -23.5
c-35.333 0 -72.666 5.66699 -111.999 17zM328.004 381.002l0.000976562 3.00098c0 243.333 -39.667 365 -119 365c-30.667 0 -56.334 -21.333 -77.001 -64s-31 -92.667 -31 -150c0 -54.667 11.667 -99.834 35 -135.501s55 -53.5 95 -53.5c30 0 62.333 11.667 97 35z" />
    <glyph glyph-name="colon" unicode=":" horiz-adv-x="156" 
d="M78 -10c-15.333 0 -28.333 5.33301 -39 16s-16 23.667 -16 39s5.33301 28.333 16 39s23.667 16 39 16s28.333 -5.33301 39 -16s16 -23.667 16 -39s-5.33301 -28.333 -16 -39s-23.667 -16 -39 -16zM78 431c-15.333 0 -28.333 5.33301 -39 16s-16 23.667 -16 39
s5.33301 28.5 16 39.5s23.667 16.5 39 16.5s28.333 -5.5 39 -16.5s16 -24.167 16 -39.5s-5.33301 -28.333 -16 -39s-23.667 -16 -39 -16z" />
    <glyph glyph-name="semicolon" unicode=";" horiz-adv-x="167" 
d="M51 -109l-5.00098 8c26 12 46 29 60 51s21 43.667 21 65c-12 -16.667 -28.333 -25 -49 -25c-15.333 0 -28.333 5.33301 -39 16s-16 23.667 -16 39s5.5 28.333 16.5 39s24.833 16 41.5 16c20.667 0 36.334 -6.66699 47.001 -20s16 -30.333 16 -51
c0 -27.333 -8 -53.833 -24 -79.5s-39 -45.167 -69 -58.5zM77.999 431c-15.333 0 -28.333 5.33301 -39 16s-16 23.667 -16 39s5.33301 28.5 16 39.5s23.667 16.5 39 16.5s28.333 -5.5 39 -16.5s16 -24.167 16 -39.5s-5.33301 -28.333 -16 -39s-23.667 -16 -39 -16z" />
    <glyph glyph-name="less" unicode="&#x3c;" horiz-adv-x="570" 
d="M504 162l-444 217v12l444 217l6 -12l-432 -211l432 -211z" />
    <glyph glyph-name="equal" unicode="=" horiz-adv-x="570" 
d="M510 264h-450v12h450v-12zM510 494h-450v12h450v-12z" />
    <glyph glyph-name="greater" unicode="&#x3e;" horiz-adv-x="570" 
d="M510 379l-444 -217l-6 12l432 211l-432 211l6 12l444 -217v-12z" />
    <glyph glyph-name="question" unicode="?" horiz-adv-x="359" 
d="M145 176l-6.00098 0.000976562l-33 146c50 67.333 87 124.166 111 170.499s36 87.833 36 124.5c0 35.333 -9.83301 65 -29.5 89s-47.5 38.333 -83.5 43l-110 -133h-5v126c44.667 12 84.334 18 119.001 18c50.667 0 95 -12.333 133 -37s57 -61 57 -109
c0 -40.667 -14.167 -85.5 -42.5 -134.5s-65.833 -103.833 -112.5 -164.5zM141.999 -9.99902c-15.333 0 -28.333 5.33301 -39 16s-16 23.667 -16 39s5.33301 28.333 16 39s23.667 16 39 16s28.333 -5.33301 39 -16s16 -23.667 16 -39s-5.33301 -28.333 -16 -39
s-23.667 -16 -39 -16z" />
    <glyph glyph-name="at" unicode="@" horiz-adv-x="812" 
d="M644 -84l2.99609 -6c-81.333 -53.333 -167.666 -80 -258.999 -80c-109.333 0 -195.166 31.333 -257.499 94s-93.5 148 -93.5 256c0 153.333 43.167 275.333 129.5 366s192.166 136 317.499 136c82.667 0 151.834 -26 207.501 -78s83.5 -128.667 83.5 -230
c0 -58 -12.5 -116.833 -37.5 -176.5s-58.167 -109.167 -99.5 -148.5s-83.333 -59 -126 -59c-30.667 0 -51.5 7.5 -62.5 22.5s-13.833 38.5 -8.5 70.5l7 35c-55.333 -85.333 -104.666 -128 -147.999 -128c-22.667 0 -41.5 12 -56.5 36s-22.5 59.333 -22.5 106
c0 103.333 22.667 197.5 68 282.5s95 127.5 149 127.5c14.667 0 28.834 -5.33301 42.501 -16s24.5 -25 32.5 -43l78 59h6l-81 -456c-8 -42.667 5.66699 -64 41 -64c41.333 0 75.833 36.5 103.5 109.5s41.5 162.5 41.5 268.5c0 80 -19.833 145.167 -59.5 195.5
s-94.167 75.5 -163.5 75.5c-43.333 0 -86.333 -10.333 -129 -31s-82 -50 -118 -88s-65 -87.667 -87 -149s-33 -129 -33 -203c0 -108.667 26.167 -193.5 78.5 -254.5s128.5 -91.5 228.5 -91.5c71.333 0 146.333 20.667 225 62zM451.996 141l58 331
c-16.667 26 -35.667 39 -57 39c-28.667 0 -55.167 -22.167 -79.5 -66.5s-42.333 -94.833 -54 -151.5s-17.5 -108.667 -17.5 -156c0 -60.667 15.333 -91 46 -91c26 0 60.667 31.667 104 95z" />
    <glyph glyph-name="A" unicode="A" horiz-adv-x="435" 
d="M434 0h-163v6l31 56l-43 208h-154l-29 -166l42 -98v-6h-116v6l61 98l100 571l-15 69v6h97l145 -688l44 -56v-6zM257 282l-79 374h-4l-67 -374h150z" />
    <glyph glyph-name="B" unicode="B" horiz-adv-x="445" 
d="M184 0l-147 0.000976562v6l42 56v626l-42 56v6h147c64 0 116 -15.5 156 -46.5s60 -77.5 60 -139.5c0 -50.667 -13.333 -91 -40 -121s-63 -49.667 -109 -59c52 -8.66699 93.667 -29.334 125 -62.001s47 -75 47 -127c0 -66 -22.167 -115 -66.5 -147
s-101.833 -48 -172.5 -48zM159 12.001l27 -0.000976562c50 0 88.167 15.833 114.5 47.5s39.5 76.834 39.5 135.501c0 55.333 -13.333 99.833 -40 133.5s-64.667 50.5 -114 50.5h-27v-367zM159 390l27 -0.000976562c43.333 0 76.166 15.333 98.499 46
s33.5 73.334 33.5 128.001c0 55.333 -11.167 98.333 -33.5 129s-55.166 46 -98.499 46h-27v-349z" />
    <glyph glyph-name="C" unicode="C" horiz-adv-x="402" 
d="M259 2l108.999 131.998h5v-127c-39.333 -11.333 -76.666 -17 -111.999 -17c-27.333 0 -53.666 7 -78.999 21s-49.166 35.333 -71.499 64s-40.166 68.834 -53.499 120.501s-20 111.5 -20 179.5s6.66699 127.833 20 179.5s31.166 91.834 53.499 120.501
s46.166 50 71.499 64s51.666 21 78.999 21c34 0 71.333 -5.33301 112 -16v-131h-5l-109 136c-42 -17.333 -75.333 -57.5 -100 -120.5s-37 -147.5 -37 -253.5s12.333 -190.333 37 -253s58 -102.667 100 -120z" />
    <glyph glyph-name="D" unicode="D" horiz-adv-x="492" 
d="M184 0h-147v6l42 56v626l-42 56v6h147c24.667 0 49 -3.83301 73 -11.5s48.167 -20.667 72.5 -39s45.666 -41.333 63.999 -69s33.166 -63.5 44.499 -107.5s17 -93.333 17 -148s-5.66699 -104 -17 -148s-26.166 -79.833 -44.499 -107.5s-39.666 -50.667 -63.999 -69
s-48.5 -31.333 -72.5 -39s-48.333 -11.5 -73 -11.5zM159 12l27 -0.000976562c51.333 0 94.833 31.333 130.5 94s53.5 152.667 53.5 270c0 116.667 -17.833 206.334 -53.5 269.001s-79.167 94 -130.5 94h-27v-727z" />
    <glyph glyph-name="E" unicode="E" horiz-adv-x="396" 
d="M367 0h-330v6l42 56v626l-42 56v6h330v-129h-5l-102 118h-101v-339l168 39h5v-90h-5l-168 40v-377h101l102 117h5v-129z" />
    <glyph glyph-name="F" unicode="F" horiz-adv-x="377" 
d="M202 0h-165v6l42 56v626l-42 56v6h330v-132h-5l-102 121h-101v-359l168 39h5v-90h-5l-168 40v-307l43 -56v-6z" />
    <glyph glyph-name="G" unicode="G" horiz-adv-x="440" 
d="M402 -10h-6l-71 62c-38 -41.333 -75.667 -62 -113 -62c-48 0 -89 28.333 -123 85s-51 150 -51 280c0 71.333 6.66699 134 20 188s31.5 96.167 54.5 126.5s48 53 75 68s55.5 22.5 85.5 22.5c38 0 73.333 -5.33301 106 -16v-125h-6l-119 130
c-40 -16 -71.833 -56.167 -95.5 -120.5s-35.5 -151.5 -35.5 -261.5c0 -104.667 12.167 -186.5 36.5 -245.5s55.833 -88.5 94.5 -88.5c22.667 0 46 10 70 30v215l-41 56v6h119v-350z" />
    <glyph glyph-name="H" unicode="H" horiz-adv-x="522" 
d="M485 0h-162v6l40 56v327h-204v-327l40 -56v-6h-162v6l42 56v626l-42 56v6h162v-6l-40 -56v-288h204v288l-40 56v6h162v-6l-42 -56v-626l42 -56v-6z" />
    <glyph glyph-name="I" unicode="I" horiz-adv-x="238" 
d="M201 0h-164v6l42 56v626l-42 56v6h164v-6l-42 -56v-626l42 -56v-6z" />
    <glyph glyph-name="J" unicode="J" horiz-adv-x="337" 
d="M180 151v536.999l-42 56v6h164v-6l-42 -56v-527c0 -55.333 -14.667 -97.666 -44 -126.999s-63 -44 -101 -44c-32.667 0 -64.667 5.66699 -96 17v124h5l100 -129c37.333 23.333 56 73 56 149z" />
    <glyph glyph-name="K" unicode="K" horiz-adv-x="462" 
d="M445 0h-84.002c-23.333 51.333 -44.666 114 -63.999 188s-32.666 144.667 -39.999 212h-98v-338l40 -56v-6h-162v6l42 56v626l-42 56v6h162v-6l-40 -56v-276h96l67 243l-26 89v6h117v-6l-78 -89l-67 -243h66c18 -150 55 -285.333 111 -406v-6z" />
    <glyph glyph-name="L" unicode="L" horiz-adv-x="377" 
d="M359 0h-322v6l42 56v626l-42 56v6h165v-6l-43 -56v-676h93l101 121h6v-133z" />
    <glyph glyph-name="M" unicode="M" horiz-adv-x="645" 
d="M626 0h-162v6l36 56l-55 609h-3l-125 -671h-20l-157 662h-2l-50 -558l47 -98v-6h-116v6l56 98l51 574l-36 66v6h116l131 -562h2l106 562h116v-6l-34 -56l55 -626l44 -56v-6z" />
    <glyph glyph-name="N" unicode="N" horiz-adv-x="471" 
d="M401 0h-23l-278 613h-4v-509l53 -98v-6h-120v6l53 98v544l-45 96v6h91l255 -567h4v463l-53 98v6h119v-6l-52 -98v-646z" />
    <glyph glyph-name="O" unicode="O" horiz-adv-x="482" 
d="M241 -10c-55.333 0 -103.166 31.335 -143.499 94.002s-60.5 159.667 -60.5 291s20.167 228.333 60.5 291s88.166 94 143.499 94c20 0 39.333 -4.16699 58 -12.5s37 -22.166 55 -41.499s33.667 -43.333 47 -72s24 -65.334 32 -110.001s12 -94.334 12 -149.001
s-4 -104.334 -12 -149.001s-18.667 -81.334 -32 -110.001s-29 -52.667 -47 -72s-36.333 -33.166 -55 -41.499s-38 -12.5 -58 -12.5zM241 2.00195c38 0 67.167 31.667 87.5 95s30.5 156 30.5 278c0 122.667 -10.167 215.667 -30.5 279s-49.5 95 -87.5 95
s-67.333 -31.667 -88 -95s-31 -156.333 -31 -279s10.167 -215.5 30.5 -278.5s49.833 -94.5 88.5 -94.5z" />
    <glyph glyph-name="P" unicode="P" horiz-adv-x="424" 
d="M202 0l-165 -0.000976562v6l42 56v626l-42 56v6h147c66.667 0 121.667 -19 165 -57s65 -94 65 -168c0 -73.333 -21.5 -129.166 -64.5 -167.499s-97.5 -57.5 -163.5 -57.5h-27v-238l43 -56v-6zM159 311.999l27 -0.000976562c46 0 81.667 18.833 107 56.5
s38 89.834 38 156.501c0 67.333 -12.667 119.833 -38 157.5s-61 56.5 -107 56.5h-27v-427z" />
    <glyph glyph-name="Q" unicode="Q" horiz-adv-x="482" 
d="M167 -117l-8 1c4.66699 56 21.334 92.667 50.001 110c-48.667 10.667 -89.5 47.334 -122.5 110.001s-49.5 153 -49.5 271c0 131.333 20.167 228.333 60.5 291s88.166 94 143.499 94c20 0 39.333 -4.16699 58 -12.5s37 -22.166 55 -41.499s33.667 -43.333 47 -72
s24 -65.334 32 -110.001s12 -94.334 12 -149.001c0 -116 -16 -205.167 -48 -267.5s-72 -99.833 -120 -112.5c12.667 -4 33.667 -14.667 63 -32s50.333 -26 63 -26c22 0 37.333 16.667 46 50l7 -2c-7.33301 -77.333 -34.333 -116 -81 -116c-22 0 -51.333 10.667 -88 32
s-61.334 32 -74.001 32c-10.667 0 -20.167 -4.5 -28.5 -13.5s-14.166 -21.167 -17.499 -36.5zM122 375c0 -122.667 10.167 -215.5 30.5 -278.5s49.833 -94.5 88.5 -94.5c38 0 67.167 31.667 87.5 95s30.5 156 30.5 278c0 122.667 -10.167 215.667 -30.5 279
s-49.5 95 -87.5 95s-67.333 -31.667 -88 -95s-31 -156.333 -31 -279z" />
    <glyph glyph-name="R" unicode="R" horiz-adv-x="453" 
d="M436 0l-82.998 -0.000976562c-22.667 47.333 -43.667 105.833 -63 175.5s-33.333 132.834 -42 189.501c-16.667 -3.33301 -37.334 -5 -62.001 -5h-27v-298l40 -56v-6h-162v6l42 56v626l-42 56v6h147c66.667 0 121.667 -16.5 165 -49.5s65 -81.5 65 -145.5
c0 -49.333 -13.333 -89.5 -40 -120.5s-62.334 -52.5 -107.001 -64.5h59c22 -132.667 58.667 -254 110 -364v-6zM159.002 371.999l27 -0.000976562c46 0 81.667 16.333 107 49s38 77.334 38 134.001s-12.667 101.5 -38 134.5s-61 49.5 -107 49.5h-27v-367z" />
    <glyph glyph-name="S" unicode="S" horiz-adv-x="355" 
d="M31 7l-0.00195312 126.998h6l118 -132c72 12 108 52.667 108 122c0 30.667 -8 62.334 -24 95.001s-35.5 63.167 -58.5 91.5l-69 86c-23 29 -42.5 60.167 -58.5 93.5s-24 66 -24 98c0 52.667 16.333 94.5 49 125.5s72.334 46.5 119.001 46.5
c34.667 0 72.334 -5.33301 113.001 -16v-128h-6l-108 133c-30 -6 -53.833 -19.5 -71.5 -40.5s-26.5 -48.5 -26.5 -82.5c0 -27.333 8 -56.166 24 -86.499s35.5 -59.5 58.5 -87.5l69 -86c23 -29.333 42.5 -61.833 58.5 -97.5s24 -71.167 24 -106.5
c0 -53.333 -17 -95.333 -51 -126s-76.667 -46 -128 -46c-42 0 -82.667 5.66699 -122 17z" />
    <glyph glyph-name="T" unicode="T" horiz-adv-x="460" 
d="M313 0h-166v6l43 56v677h-67l-97 -122h-6v133h420v-133h-6l-97 122h-67v-677l43 -56v-6z" />
    <glyph glyph-name="U" unicode="U" horiz-adv-x="503" 
d="M410 210v436l-53 98v6h119v-6l-52 -98v-436c0 -146.667 -57 -220 -171 -220c-116 0 -174 73.333 -174 220v478l-42 56v6h164v-6l-42 -56v-478c0 -66.667 10 -116.5 30 -149.5s52.333 -49.5 97 -49.5c40.667 0 71.5 17.333 92.5 52s31.5 83.667 31.5 147z" />
    <glyph glyph-name="V" unicode="V" horiz-adv-x="469" 
d="M276 0h-79l-136 688l-44 56v6h164v-6l-31 -56l118 -642h3l105 600l-42 98v6h117v-6l-61 -98z" />
    <glyph glyph-name="W" unicode="W" horiz-adv-x="719" 
d="M538 0h-79l-101 528h-2l-92 -528h-78l-126 688l-43 56v6h162v-6l-30 -56l108 -642h2l91 522l-22 120l-41 56v6h160v-6l-30 -56l112 -642h2l95 600l-40 98v6h115v-6l-61 -98z" />
    <glyph glyph-name="X" unicode="X" horiz-adv-x="469" 
d="M450 0h-161v6l20 56l-104 282l-84 -240l15 -98v-6h-117v6l89 98l90 259l-120 325l-52 56v6h161v-6l-19 -56l87 -240l69 198l-14 98v6h117v-6l-89 -98l-75 -217l135 -367l52 -56v-6z" />
    <glyph glyph-name="Y" unicode="Y" horiz-adv-x="450" 
d="M310 0h-164v6l42 56v198l-124 428l-45 56v6h162v-6l-28 -56l107 -393h2l91 351l-37 98v6h115v-6l-65 -98l-98 -386v-198l42 -56v-6z" />
    <glyph glyph-name="Z" unicode="Z" horiz-adv-x="366" 
d="M338 0h-309v10l224 729h-116l-101 -128h-6v139h308v-10l-224 -728h117l101 127h6v-139z" />
    <glyph glyph-name="bracketleft" unicode="[" horiz-adv-x="256" 
d="M233 -120h-153v990h153v-11h-75v-968h75v-11z" />
    <glyph glyph-name="backslash" unicode="\" horiz-adv-x="459" 
d="M419 -126l-13 -4l-366 1006l13 4z" />
    <glyph glyph-name="bracketright" unicode="]" horiz-adv-x="256" 
d="M176 -120h-153v11h75v968h-75v11h153v-990z" />
    <glyph glyph-name="asciicircum" unicode="^" horiz-adv-x="570" 
d="M510 406l-12 -6l-213 432l-213 -432l-12 6l219 444h12z" />
    <glyph glyph-name="underscore" unicode="_" horiz-adv-x="550" 
d="M500 0h-450v12h450v-12z" />
    <glyph glyph-name="grave" unicode="`" horiz-adv-x="280" 
d="M225 566l-175 104v6l39 50h6l135 -154z" />
    <glyph glyph-name="a" unicode="a" horiz-adv-x="392" 
d="M363 0l-117.999 -0.00195312v53c-48 -42 -91 -63 -129 -63c-28.667 0 -50.334 8.5 -65.001 25.5s-22 38.833 -22 65.5c0 84.667 72 179.334 216 284.001v47c0 46.667 -16 78.667 -48 96s-66 18.333 -102 3c16.667 0.666992 30 -4.16602 40 -14.499s15 -22.833 15 -37.5
c0 -15.333 -5 -28 -15 -38s-22.667 -15 -38 -15s-28 5 -38 15s-15 22.667 -15 38c0 22.667 13.167 42.167 39.5 58.5s56.5 24.5 90.5 24.5c99.333 0 149 -40.333 149 -121v-359l40 -56v-6zM245.001 63.998l0.000976562 290c-89.333 -82.667 -134 -166 -134 -250
c0 -48 18.333 -72 55 -72c23.333 0 49.666 10.667 78.999 32z" />
    <glyph glyph-name="b" unicode="b" horiz-adv-x="423" 
d="M145 53l-69.999 -63h-6v698l-40 56v6h118v-267c39.333 39.333 72.666 59 99.999 59c40.667 0 74.5 -23 101.5 -69s40.5 -115 40.5 -207s-13.5 -161 -40.5 -207s-61.5 -69 -103.5 -69c-30.667 0 -64 21 -100 63zM147.001 472v-410.001c23.333 -20.667 45 -31 65 -31
c30 0 53.167 21.833 69.5 65.5s24.5 100.167 24.5 169.5c0 70.667 -8.33301 127.834 -25 171.501s-40 65.5 -70 65.5c-20 0 -41.333 -10.333 -64 -31z" />
    <glyph glyph-name="c" unicode="c" horiz-adv-x="355" 
d="M327 42l3 -5c-42 -31.333 -84 -47 -126 -47c-14 0 -28 2 -42 6s-29 12 -45 24s-30 27.333 -42 46s-22 44 -30 76s-12 68.667 -12 110c0 84.667 18.333 154.167 55 208.5s82.334 81.5 137.001 81.5c28.667 0 52.834 -7.16699 72.501 -21.5s29.5 -31.5 29.5 -51.5
c0 -14.667 -4.83301 -26.667 -14.5 -36s-21.5 -14 -35.5 -14s-25.667 4.66699 -35 14s-14 21.333 -14 36c0 14 4.66699 25.833 14 35.5s21 14.5 35 14.5c-8.66699 2.66699 -18.334 4 -29.001 4c-30 0 -55.333 -13.167 -76 -39.5s-35.334 -57.5 -44.001 -93.5
s-13 -74.333 -13 -115c0 -72 11.333 -132.167 34 -180.5s57 -72.5 103 -72.5c21.333 0 46.333 6.66699 75 20z" />
    <glyph glyph-name="d" unicode="d" horiz-adv-x="423" 
d="M395 0h-118.999v49c-38 -39.333 -71.333 -59 -100 -59c-40.667 0 -74.5 23 -101.5 69s-40.5 115 -40.5 207s13.5 161 40.5 207s60.833 69 101.5 69c27.333 0 60.666 -19.667 99.999 -59v205l-42 56v6h120v-688l41 -56v-6zM276.001 60l0.000976562 412.001
c-22.667 20.667 -44 31 -64 31c-30 0 -53.333 -21.833 -70 -65.5s-25 -100.834 -25 -171.501s8.33301 -128 25 -172s40 -66 70 -66c19.333 0 40.666 10.667 63.999 32z" />
    <glyph glyph-name="e" unicode="e" horiz-adv-x="383" 
d="M327 42l3.00195 -5c-42 -31.333 -84 -47 -126 -47c-18 0 -35.833 3.66699 -53.5 11s-35.834 19.833 -54.501 37.5s-33.834 45 -45.501 82s-17.5 81.167 -17.5 132.5c0 94 15.667 165.667 47 215s68.666 74 111.999 74c44.667 0 82.5 -22 113.5 -66
s45.167 -112.667 42.5 -206h-233c0.666992 -70.667 12.334 -129.667 35.001 -177s56.667 -71 102 -71c21.333 0 46.333 6.66699 75 20zM115.002 282h152.001c0 75.333 -7.33301 135.5 -22 180.5s-32.334 67.5 -53.001 67.5s-38.5 -22.333 -53.5 -67s-22.833 -105 -23.5 -181
z" />
    <glyph glyph-name="f" unicode="f" horiz-adv-x="226" 
d="M190 0h-161v6l40 56v458h-41v12h41c0 152 33.667 228 101 228c16 0 29.167 -5 39.5 -15s15.5 -22.667 15.5 -38s-5.16699 -28 -15.5 -38s-22.833 -15 -37.5 -15s-27.167 5 -37.5 15s-15.5 22.667 -15.5 38c0 8.66699 1.66699 16.334 5 23.001
c-14.667 -20 -22 -47.333 -22 -82c0 -23.333 4 -45.833 12 -67.5s19 -37.834 33 -48.501h56v-12h-56v-458l43 -56v-6z" />
    <glyph glyph-name="g" unicode="g" horiz-adv-x="401" 
d="M362 392c0 -46.667 -16.8311 -83.334 -50.498 -110.001s-71.167 -40 -112.5 -40c-30.667 0 -58.334 6.66699 -83.001 20c-10 -20.667 -15 -39.667 -15 -57c0 -16.667 4.66699 -29.167 14 -37.5s21.333 -12.5 36 -12.5h100c36.667 0 67.667 -13 93 -39s38 -58.667 38 -98
c0 -54 -19.167 -98.833 -57.5 -134.5s-85.833 -53.5 -142.5 -53.5c-45.333 0 -82.5 10.5 -111.5 31.5s-43.5 46.5 -43.5 76.5c0 52 28.333 100.333 85 145c-35.333 10 -53 33 -53 69c0 34.667 16 73 48 115c-47.333 28.667 -71 70.334 -71 125.001
c0 46.667 17 83.334 51 110.001s71.333 40 112 40c16.667 0 35.667 -3.33301 57 -10c-2 11.333 -3 24 -3 38c0 25.333 4.66699 46.833 14 64.5s24.666 26.5 45.999 26.5c14.667 0 26.834 -5 36.501 -15s14.5 -22.333 14.5 -37s-4.83301 -26.834 -14.5 -36.501
s-21.834 -14.5 -36.501 -14.5c-22 0 -37.333 9.66699 -46 29c-2.66699 -21.333 -1.66699 -41.333 3 -60c27.333 -12 49.5 -29.5 66.5 -52.5s25.5 -50.5 25.5 -82.5zM230.002 79l-80.001 -0.000976562c-12.667 0 -21.667 0.666992 -27 2
c-18.667 -33.333 -28 -70.666 -28 -111.999c0 -34.667 8.83301 -63.5 26.5 -86.5s45.834 -34.5 84.501 -34.5c35.333 0 64.333 10.167 87 30.5s34 50.5 34 90.5c0 34.667 -8.5 61.667 -25.5 81s-40.833 29 -71.5 29zM199.001 252.999c54.667 0 82 46.333 82 139
c0 92 -27.333 138 -82 138s-82 -46 -82 -138c0 -92.667 27.333 -139 82 -139z" />
    <glyph glyph-name="h" unicode="h" 
d="M417 0h-117.999v411c0 59.333 -22.333 89 -67 89c-26.667 0 -55 -11 -85 -33v-405l40 -56v-6h-158v6l40 56v626l-40 56v6h118v-271c53.333 42 99.666 63 138.999 63c60.667 0 91 -39.333 91 -118v-362l40 -56v-6z" />
    <glyph glyph-name="i" unicode="i" horiz-adv-x="216" 
d="M108 602c-14.667 0 -27.167 5.1709 -37.5 15.5039s-15.5 23.166 -15.5 38.499s5.16699 28.166 15.5 38.499s22.833 15.5 37.5 15.5s27.334 -5.33301 38.001 -16s16 -23.334 16 -38.001s-5.33301 -27.334 -16 -38.001s-23.334 -16 -38.001 -16zM188 0.00390625h-159v6
l40 56v407l-40 57v6h118v-470l41 -56v-6z" />
    <glyph glyph-name="j" unicode="j" horiz-adv-x="206" 
d="M69 8l0.000976562 461.001l-41 57v6h119v-524c0 -118.667 -31 -178 -93 -178c-14.667 0 -26.834 4.66699 -36.501 14s-14.5 21 -14.5 35c0 14.667 4.66699 26.667 14 36s21 14 35 14c14.667 0 26.667 -4.66699 36 -14s14 -21.333 14 -36
c0 -10.667 -2.66699 -19.667 -8 -27c14 13.333 21 32.333 21 57c0 18 -4.16699 36.167 -12.5 54.5s-19.5 33.166 -33.5 44.499zM108.001 602.001c-14.667 0 -27.167 5.1709 -37.5 15.5039s-15.5 23.166 -15.5 38.499s5.16699 28.166 15.5 38.499s22.833 15.5 37.5 15.5
s27.334 -5.33301 38.001 -16s16 -23.334 16 -38.001s-5.33301 -27.334 -16 -38.001s-23.334 -16 -38.001 -16z" />
    <glyph glyph-name="k" unicode="k" horiz-adv-x="404" 
d="M187 0l-158 0.000976562v6l40 56v626l-40 56v6h118v-438h71l46 116l-8 98v6h108v-6l-86 -98l-46 -116h72c4.66699 -44 14 -95.833 28 -155.5s29.333 -109.834 46 -150.501v-6h-82c-14 38.667 -27.333 87.667 -40 147s-21.667 110.333 -27 153h-82v-238l40 -56v-6z" />
    <glyph glyph-name="l" unicode="l" horiz-adv-x="216" 
d="M188 0h-159v6l40 56v626l-40 56v6h118v-688l41 -56v-6z" />
    <glyph glyph-name="m" unicode="m" horiz-adv-x="667" 
d="M638 0h-118v411c0 59.333 -22.667 89 -68 89c-25.333 0 -52 -9.66699 -80 -29c3.33301 -15.333 5 -31 5 -47v-362l39 -56v-6h-117v411c0 59.333 -22.333 89 -67 89c-26.667 0 -55 -11 -85 -33v-405l40 -56v-6h-158v6l40 56v407l-40 57v6h118v-53
c53.333 42 99.666 63 138.999 63c40.667 0 68.334 -20 83.001 -60c52.667 40 98 60 136 60c62 0 93 -39.333 93 -118v-362l40 -56v-6z" />
    <glyph glyph-name="n" unicode="n" 
d="M417 0h-117.999v411c0 59.333 -22.333 89 -67 89c-26.667 0 -55 -11 -85 -33v-405l40 -56v-6h-158v6l40 56v407l-40 57v6h118v-53c53.333 42 99.666 63 138.999 63c60.667 0 91 -39.333 91 -118v-362l40 -56v-6z" />
    <glyph glyph-name="o" unicode="o" horiz-adv-x="415" 
d="M207 -10c-50.667 0 -92.334 23.833 -125.001 71.5s-49 115.834 -49 204.501s16.333 156.834 49 204.501s74.334 71.5 125.001 71.5s92.5 -23.833 125.5 -71.5s49.5 -115.834 49.5 -204.501s-16.333 -156.834 -49 -204.501s-74.667 -71.5 -126 -71.5zM207 2
c26 0 47.833 23.6689 65.5 71.002s26.5 111.666 26.5 192.999s-8.83301 145.666 -26.5 192.999s-39.5 71 -65.5 71s-47.667 -23.5 -65 -70.5s-26 -111.5 -26 -193.5s8.66699 -146.5 26 -193.5s39 -70.5 65 -70.5z" />
    <glyph glyph-name="p" unicode="p" horiz-adv-x="421" 
d="M26 -160l0.000976562 6l41 56v567l-41 57v6h119v-49c39.333 39.333 72.666 59 99.999 59c40.667 0 74.5 -23 101.5 -69s40.5 -115 40.5 -207s-13.5 -161 -40.5 -207s-60.833 -69 -101.5 -69c-28.667 0 -62 19.667 -100 59v-147l42 -56v-6h-161zM145.001 472
l0.000976562 -412.001c23.333 -21.333 44.666 -32 63.999 -32c30 0 53.333 22 70 66s25 101.333 25 172s-8.33301 127.834 -25 171.501s-40 65.5 -70 65.5c-20 0 -41.333 -10.333 -64 -31z" />
    <glyph glyph-name="q" unicode="q" horiz-adv-x="421" 
d="M234 -160v6l42 56v147c-38 -39.333 -71.333 -59 -100 -59c-40.667 0 -74.5 23 -101.5 69s-40.5 115 -40.5 207s13.5 161 40.5 207s61.5 69 103.5 69c29.333 0 63 -21 101 -63l70 63h5v-640l41 -56v-6h-161zM276 60l0.000976562 409c-22 21.333 -43.667 32 -65 32
c-30 0 -53.167 -21.833 -69.5 -65.5s-24.5 -100.167 -24.5 -169.5c0 -70.667 8.33301 -128 25 -172s40 -66 70 -66c19.333 0 40.666 10.667 63.999 32z" />
    <glyph glyph-name="r" unicode="r" horiz-adv-x="308" 
d="M189 0l-160 -0.000976562v6l40 56v407l-40 57v6h118v-56c28 24.667 53.167 41.834 75.5 51.501s47.5 14.167 75.5 13.5v-137h-6l-84 81c-24 -2 -44.333 -9 -61 -21v-402l42 -56v-6z" />
    <glyph glyph-name="s" unicode="s" horiz-adv-x="348" 
d="M293 525l0.000976562 -118h-6l-107 123c-26 -0.666992 -45.5 -8.83398 -58.5 -24.501s-19.5 -35.167 -19.5 -58.5c0 -22.667 7.33301 -44.334 22 -65.001s32.5 -39.167 53.5 -55.5l63 -50.5c21 -17.333 38.833 -38.166 53.5 -62.499s22 -50.5 22 -78.5
c0 -44.667 -16.5 -80 -49.5 -106s-71.167 -39 -114.5 -39c-34.667 0 -72 5.66699 -112 17v119h6l107 -124c28.667 0.666992 51.5 9.33398 68.5 26.001s25.5 39.667 25.5 69c0 24.667 -7.33301 47.667 -22 69s-32.5 40.5 -53.5 57.5l-63 51c-21 17 -38.833 37.167 -53.5 60.5
s-22 48.333 -22 75c0 38 14.5 69.5 43.5 94.5s63.833 37.5 104.5 37.5c31.333 0 68.666 -5.66699 111.999 -17z" />
    <glyph glyph-name="t" unicode="t" horiz-adv-x="289" 
d="M269 32l2.99902 -7c-38 -23.333 -73.333 -35 -106 -35c-61.333 0 -92 38.333 -92 115v415h-51v12h51l72 176h6v-176h110v-12h-110v-396c0 -68.667 23.333 -103 70 -103c14.667 0 30.334 3.66699 47.001 11z" />
    <glyph glyph-name="u" unicode="u" 
d="M417 0h-118v53c-52 -42 -98.333 -63 -139 -63c-60.667 0 -91 39.333 -91 118v361l-40 57v6h118v-411c0 -60 22 -90 66 -90c25.333 0 54 11 86 33v405l-40 57v6h118v-470l40 -56v-6z" />
    <glyph glyph-name="v" unicode="v" horiz-adv-x="372" 
d="M227 0h-77l-105 469l-43 57v6h159v-6l-29 -57l88 -430h2l75 389l-41 98v6h117v-6l-63 -98z" />
    <glyph glyph-name="w" unicode="w" horiz-adv-x="575" 
d="M512 428l-75 -428h-77l-74 338h-3l-66 -338h-77l-96 469l-43 57v6h158v-6l-29 -57l80 -430h2l65 334l-35 153v6h119v-6l-18 -65l86 -422h2l68 389l-42 98v6h117v-6z" />
    <glyph glyph-name="x" unicode="x" horiz-adv-x="404" 
d="M394 0h-159v6l19 56l-77 171l-57 -129l9 -98v-6h-117v6l94 98l64 145l-99 220l-53 57v6h158v-6l-18 -57l63 -141l43 100l-9 98v6h117v-6l-94 -98l-50 -115l112 -251l54 -56v-6z" />
    <glyph glyph-name="y" unicode="y" horiz-adv-x="374" 
d="M204 0h-50l-110 469l-43 57v6h160v-6l-31 -57l90 -416c6.66699 24.667 10.667 41 12 49l65 326l-40 98v6h116v-6l-63 -98l-64 -326c-14.667 -78.667 -38.334 -143.667 -71.001 -195s-68.667 -77 -108 -77c-18 0 -32.333 5 -43 15s-16 22.667 -16 38s5 28 15 38
s22.667 15 38 15s28 -5 38 -15s15 -22.667 15 -38c0 -9.33301 -1.66699 -18 -5 -26c36.667 21.333 68.334 69 95.001 143z" />
    <glyph glyph-name="z" unicode="z" horiz-adv-x="333" 
d="M305 0h-285v10l199 510h-86l-97 -117h-6v129h275v-10l-200 -510h97l97 117h6v-129z" />
    <glyph glyph-name="braceleft" unicode="{" horiz-adv-x="294" 
d="M271 -119v-11c-54 0 -92.667 13 -116 39s-35 67.667 -35 125v267c0 26 -6.66699 43.833 -20 53.5s-33.333 14.5 -60 14.5v12c26.667 0 46.667 4.83301 60 14.5s20 27.5 20 53.5v268c0 56.667 11.667 98 35 124s62 39 116 39v-11c-48.667 0 -73 -32.667 -73 -98v-271
c0 -36.667 -8 -65.334 -24 -86.001s-42.333 -33.667 -79 -39c36.667 -5.33301 63 -18.166 79 -38.499s24 -48.833 24 -85.5v-272c0 -65.333 24.333 -98 73 -98z" />
    <glyph glyph-name="bar" unicode="|" horiz-adv-x="222" 
d="M118 -100h-14v950h14v-950z" />
    <glyph glyph-name="braceright" unicode="}" horiz-adv-x="294" 
d="M23 -130v10.999c48.667 0 73 32.667 73 98v272c0 72.667 34.667 114 104 124c-36.667 5.33301 -63.167 18.333 -79.5 39s-24.5 49.334 -24.5 86.001v271c0 65.333 -24.333 98 -73 98v11c54 0 92.667 -13 116 -39s35 -67.333 35 -124v-268c0 -26 6.66699 -43.833 20 -53.5
s33.333 -14.5 60 -14.5v-12c-26.667 0 -46.667 -4.83301 -60 -14.5s-20 -27.5 -20 -53.5v-267c0 -57.333 -11.667 -99 -35 -125s-62 -39 -116 -39z" />
    <glyph glyph-name="asciitilde" unicode="~" horiz-adv-x="570" 
d="M504 437l6 -2.99902c-8 -36.667 -22.5 -63.334 -43.5 -80.001s-43.833 -25 -68.5 -25c-28.667 0 -71.5 8.66699 -128.5 26s-96.833 26 -119.5 26c-40.667 0 -68.667 -16.667 -84 -50l-6 2c8 37.333 22.5 64.333 43.5 81s43.833 25 68.5 25
c28 0 70.667 -8.83301 128 -26.5s97.333 -26.5 120 -26.5c40.667 0 68.667 17 84 51z" />
    <glyph glyph-name="nbspace" unicode="&#xa0;" horiz-adv-x="280" 
 />
    <glyph glyph-name="exclamdown" unicode="&#xa1;" horiz-adv-x="202" 
d="M153 -160h-105v6l50 568h6l49 -568v-6zM101 490c-15.333 0 -28.333 5.33301 -39 16s-16 23.667 -16 39s5.33301 28.333 16 39s23.667 16 39 16s28.333 -5.33301 39 -16s16 -23.667 16 -39s-5.33301 -28.333 -16 -39s-23.667 -16 -39 -16z" />
    <glyph glyph-name="cent" unicode="&#xa2;" horiz-adv-x="355" 
d="M217 -110h-12.999v100c-14 0 -28 2 -42 6s-29 12 -45 24s-30 27.333 -42 46s-22 44 -30 76s-12 68.667 -12 110c0 78.667 16 144.5 48 197.5s73 83.167 123 90.5v102h13v-100h8c28.667 0 52.834 -7.16699 72.501 -21.5s29.5 -31.5 29.5 -51.5
c0 -14.667 -4.83301 -26.667 -14.5 -36s-21.5 -14 -35.5 -14s-25.667 4.66699 -35 14s-14 21.333 -14 36c0 14 4.66699 25.833 14 35.5s21 14.5 35 14.5c-8.66699 2.66699 -18.334 4 -29.001 4c-30 0 -55.333 -13.167 -76 -39.5s-35.334 -57.5 -44.001 -93.5
s-13 -74.333 -13 -115c0 -72 11.333 -132.167 34 -180.5s57 -72.5 103 -72.5c21.333 0 46.333 6.66699 75 20l3 -5c-37.333 -28 -75 -43.333 -113 -46v-101z" />
    <glyph glyph-name="sterling" unicode="&#xa3;" horiz-adv-x="389" 
d="M93 369l-71.998 0.000976562v12h69l-6.5 20.5c-3.66699 11.667 -5.83398 19 -6.50098 22s-2.5 9.83301 -5.5 20.5s-5 18.5 -6 23.5l-4.5 22c-2 9.66699 -3.33301 18.167 -4 25.5s-1.33398 15.833 -2.00098 25.5s-1 19.167 -1 28.5c0 52.667 15.667 97.667 47 135
s71.666 56 120.999 56c31.333 0 68 -5.33301 110 -16v-131h-6l-105 136c-56.667 -18 -85 -72.333 -85 -163c0 -24.667 2.33301 -48.334 7 -71.001s11.5 -48.167 20.5 -76.5s14.833 -47.5 17.5 -57.5h117v-12h-114c6 -26.667 9 -48.667 9 -66
c0 -22 -4.83301 -45.5 -14.5 -70.5s-19.167 -44.833 -28.5 -59.5s-23.166 -34.167 -41.499 -58.5s-28.833 -38.5 -31.5 -42.5h222l56 71h6v-143h-341v10c62 73.333 93 151.333 93 234c0 37.333 -6.66699 79 -20 125z" />
    <glyph glyph-name="currency" unicode="&#xa4;" horiz-adv-x="507" 
d="M467 173l-10 -8.99902l-80 80c-31.333 -33.333 -73 -50 -125 -50c-50.667 0 -92 16 -124 48l-79 -78l-9 9l79 80c-26.667 32.667 -40 74 -40 124s13.333 91.333 40 124l-79 80l9 9l79 -79c31.333 32.667 72.666 49 123.999 49c52.667 0 94.334 -17 125.001 -51l80 81
l10 -9l-82 -82c26.667 -32.667 40 -73.334 40 -122.001c0 -49.333 -13.333 -90.333 -40 -123zM252 549.001c-48.667 0 -87.334 -16.167 -116.001 -48.5s-43 -73.5 -43 -123.5s14.333 -91 43 -123s67.334 -48 116.001 -48c49.333 0 88.333 16 117 48s43 73 43 123
s-14.333 91.167 -43 123.5s-67.667 48.5 -117 48.5z" />
    <glyph glyph-name="yen" unicode="&#xa5;" horiz-adv-x="433" 
d="M180 249h-103v12h103v108h-103v12h98l-111 307l-45 56v6h162v-6l-28 -56l98 -294h3l82 252l-37 98v6h115v-6l-65 -98l-86 -265h99v-12h-103v-108h103v-12h-103v-187l42 -56v-6h-163v6l42 56v187z" />
    <glyph glyph-name="brokenbar" unicode="&#xa6;" horiz-adv-x="222" 
d="M118 -100h-14v367h14v-367zM118 503h-14v347h14v-347z" />
    <glyph glyph-name="section" unicode="&#xa7;" horiz-adv-x="421" 
d="M61 -104l-0.00195312 127.998h6l118 -133c72 12.667 108 47.667 108 105c0 22 -6.5 43.667 -19.5 65s-29.333 40 -49 56l-63.5 52l-63.5 54c-19.667 17.333 -36 37.833 -49 61.5s-19.5 48.5 -19.5 74.5c0 56.667 28 102.667 84 138c-36 37.333 -54 74.333 -54 111
c0 46.667 16.333 83.667 49 111s72.334 41 119.001 41c34.667 0 72.334 -5.33301 113.001 -16v-128h-6l-108 133c-65.333 -14 -98 -49.333 -98 -106c0 -22.667 9 -45 27 -67s40 -42.833 66 -62.5l78 -61.5c26 -21.333 48 -46.666 66 -75.999s27 -61 27 -95
c0 -53.333 -26.333 -98.333 -79 -135c32.667 -37.333 49 -75.666 49 -114.999c0 -47.333 -17 -84.5 -51 -111.5s-76.667 -40.5 -128 -40.5c-38 0 -78.667 5.66699 -122 17zM331.998 240.998c0 25.333 -7.66797 50.3311 -23.001 74.998s-32.166 44.667 -50.499 60l-72 58
c-29.667 23.333 -51.5 41.666 -65.5 54.999c-21.333 -21.333 -32 -51.666 -32 -90.999c0 -30 11.167 -58 33.5 -84s54 -54.667 95 -86s69.833 -55.666 86.5 -72.999c18.667 20.667 28 49.334 28 86.001z" />
    <glyph glyph-name="dieresis" unicode="&#xa8;" horiz-adv-x="335" 
d="M99 607c-14 0 -25.667 4.66699 -35 14s-14 21 -14 35s4.66699 25.667 14 35s21 14 35 14c13.333 0 24.666 -4.66699 33.999 -14s14 -21 14 -35s-4.66699 -25.667 -14 -35s-20.666 -14 -33.999 -14zM236 607c-14 0 -25.5 4.66699 -34.5 14s-13.5 21 -13.5 35
s4.5 25.667 13.5 35s20.5 14 34.5 14s25.667 -4.66699 35 -14s14 -21 14 -35s-4.66699 -25.667 -14 -35s-21 -14 -35 -14z" />
    <glyph glyph-name="copyright" unicode="&#xa9;" horiz-adv-x="850" 
d="M500 251v-91.001c-24 -8.66699 -49.667 -13 -77 -13c-36 0 -68.333 18.833 -97 56.5s-43 94.834 -43 171.501c0 76 14.333 132.833 43 170.5s61 56.5 97 56.5c29.333 0 55 -4 77 -12v-93h-3l-75 95c-45.333 -24 -68 -96.333 -68 -217c0 -121.333 22.667 -194 68 -218
l75 94h3zM425 -10.001c-106 0 -195 37.333 -267 112s-108 165.667 -108 273s36 198.333 108 273s161 112 267 112s195 -37.333 267 -112s108 -165.667 108 -273s-36 -198.333 -108 -273s-161 -112 -267 -112zM425 1.99902c100.667 0 186 36.167 256 108.5
s105 160.5 105 264.5s-35 192.333 -105 265s-155.333 109 -256 109s-186 -36.5 -256 -109.5s-105 -161.167 -105 -264.5s35 -191.333 105 -264s155.333 -109 256 -109z" />
    <glyph glyph-name="ordfeminine" unicode="&#xaa;" horiz-adv-x="273" 
d="M253 405l-87.001 0.000976562v35c-33.333 -27.333 -61.666 -41 -84.999 -41c-19.333 0 -34.333 5.5 -45 16.5s-16 24.833 -16 41.5c0 55.333 48.667 117.333 146 186v31c0 30 -10.667 50.5 -32 61.5s-43 12.167 -65 3.5c12 0 21.333 -3.83301 28 -11.5
s10 -17.167 10 -28.5c0 -10.667 -3.5 -19.667 -10.5 -27s-16.5 -11 -28.5 -11c-11.333 0 -20.333 3.66699 -27 11s-10 16.333 -10 27c0 19.333 8.66699 34.166 26 44.499s38 15.5 62 15.5c31.333 0 56.833 -6.33301 76.5 -19s29.5 -32.667 29.5 -60v-228l28 -44v-3z
M165.999 452.001l-0.000976562 179.001c-52.667 -54.667 -79 -107.334 -79 -158.001c0 -26.667 10.667 -40 32 -40c14.667 0 30.334 6.33301 47.001 19z" />
    <glyph glyph-name="guillemotleft" unicode="&#xab;" horiz-adv-x="356" 
d="M185 63l-6 -3l-133 203v7l133 203l6 -2l-54 -204zM310 63l-5 -3l-134 203v7l134 203l5 -2l-53 -204z" />
    <glyph glyph-name="logicalnot" unicode="&#xac;" horiz-adv-x="570" 
d="M510 160h-14v219h-436v12h450v-231z" />
    <glyph glyph-name="uni00AD" unicode="&#xad;" horiz-adv-x="350" 
d="M300 265h-250v12h250v-12z" />
    <glyph glyph-name="registered" unicode="&#xae;" horiz-adv-x="544" 
d="M272 341c-62.667 0 -115.334 22 -158.001 66s-64 97.667 -64 161s21.333 117 64 161s95.334 66 158.001 66s115.334 -22 158.001 -66s64 -97.667 64 -161s-21.333 -117 -64 -161s-95.334 -66 -158.001 -66zM272 353c58.667 0 108 20.833 148 62.5s60 92.5 60 152.5
s-20 111 -60 153s-89.333 63 -148 63s-108 -21 -148 -63s-60 -93 -60 -153s20 -110.833 60 -152.5s89.333 -62.5 148 -62.5zM193 443v3.00098l14 26v203l-14 26v3h67c24.667 0 44.667 -5.83301 60 -17.5s23 -28.167 23 -49.5c0 -32 -15.667 -53 -47 -63h25
c6.66699 -45.333 20 -88 40 -128v-3h-49c-18 35.333 -30 77.666 -36 126.999c-4 -0.666992 -9 -1 -15 -1h-7v-97l14 -26v-3h-75zM254 578.001h7c24.667 0 37 19.667 37 59s-12.333 59 -37 59h-7v-118z" />
    <glyph glyph-name="macron" unicode="&#xaf;" horiz-adv-x="342" 
d="M292 627h-242v46h242v-46z" />
    <glyph glyph-name="degree" unicode="&#xb0;" horiz-adv-x="284" 
d="M141 509c-34 0 -62.833 12.167 -86.5 36.5s-35.5 53.833 -35.5 88.5c0 35.333 11.667 65.166 35 89.499s52.333 36.5 87 36.5s63.834 -12.167 87.501 -36.5s35.5 -54.166 35.5 -89.499c0 -34.667 -11.833 -64.167 -35.5 -88.5s-52.834 -36.5 -87.501 -36.5zM141 522
c30 0 55.667 10.833 77 32.5s32 48.167 32 79.5c0 32 -10.667 58.833 -32 80.5s-47 32.5 -77 32.5c-29.333 0 -54.5 -10.833 -75.5 -32.5s-31.5 -48.5 -31.5 -80.5c0 -31.333 10.5 -57.833 31.5 -79.5s46.167 -32.5 75.5 -32.5z" />
    <glyph glyph-name="plusminus" unicode="&#xb1;" horiz-adv-x="570" 
d="M292 160h-14v219h-218v12h218v219h14v-219h218v-12h-218v-219zM510 0h-450v12h450v-12z" />
    <glyph glyph-name="twosuperior" unicode="&#xb2;" horiz-adv-x="276" 
d="M223 392l-173.001 -0.000976562v5c41.333 76.667 71.333 136.5 90 179.5s28 81.167 28 114.5c0 34.667 -14.333 54.334 -43 59.001l-63 -72h-3v70c20.667 8 43 12 67 12c66.667 0 100 -25.667 100 -77c0 -22.667 -6.66699 -46.5 -20 -71.5s-34.166 -55.833 -62.499 -92.5
s-46.833 -61.667 -55.5 -75h101l31 35h3v-87z" />
    <glyph glyph-name="threesuperior" unicode="&#xb3;" horiz-adv-x="283" 
d="M50 396l-0.000976562 71.001h1l64 -75c39.333 8.66699 59 37.334 59 86.001c0 26.667 -4.83301 48.334 -14.5 65.001s-23.834 25 -42.501 25h-16v10h16c17.333 0 30.5 9.16699 39.5 27.5s13.5 40.166 13.5 65.499c0 47.333 -17 73.666 -51 78.999l-61 -73h-2v71
c16.667 8 38.334 12 65.001 12c32.667 0 59 -7.16699 79 -21.5s30 -36.5 30 -66.5c0 -24 -7.16699 -44.833 -21.5 -62.5s-36.5 -29.167 -66.5 -34.5c29.333 -5.33301 51.833 -16.333 67.5 -33s23.5 -38 23.5 -64c0 -30.667 -11.167 -54.334 -33.5 -71.001
s-49.833 -25 -82.5 -25c-25.333 0 -47.666 4.66699 -66.999 14z" />
    <glyph glyph-name="acute" unicode="&#xb4;" horiz-adv-x="280" 
d="M230 670l-176 -104l-4 6l135 154h6l39 -50v-6z" />
    <glyph glyph-name="uni00B5" unicode="&#xb5;" horiz-adv-x="443" 
d="M416 0h-118.999v53c-48.667 -39.333 -91.667 -60 -129 -62c-16.667 0 -28.334 2 -35.001 6l13 -151v-6h-78v629l-41 57v6h119v-411c0 -60 22 -90 66 -90c26 0 54.333 11 85 33v405l-39 57v6h117v-470l41 -56v-6z" />
    <glyph glyph-name="paragraph" unicode="&#xb6;" horiz-adv-x="463" 
d="M383 -160h-11v899h-68v-899h-11v460h-27c-66 0 -120.667 19 -164 57s-65 94 -65 168s21.667 130 65 168s98.333 57 165 57h116v-910z" />
    <glyph glyph-name="periodcentered" unicode="&#xb7;" horiz-adv-x="210" 
d="M105 333c-14.667 0 -27.167 5.16699 -37.5 15.5s-15.5 23.166 -15.5 38.499s5.16699 28.166 15.5 38.499s22.833 15.5 37.5 15.5c15.333 0 28.166 -5.16699 38.499 -15.5s15.5 -23.166 15.5 -38.499s-5.16699 -28.166 -15.5 -38.499s-23.166 -15.5 -38.499 -15.5z" />
    <glyph glyph-name="cedilla" unicode="&#xb8;" horiz-adv-x="231" 
d="M54 -205l-2.00098 6.99902c42 12.667 63 30.667 63 54s-20.333 40.333 -61 51l-2 6l82 106l10 -7l-44 -56c22.667 -5.33301 41.834 -15.166 57.501 -29.499s23.5 -30.833 23.5 -49.5c0 -44 -42.333 -71.333 -127 -82z" />
    <glyph glyph-name="onesuperior" unicode="&#xb9;" horiz-adv-x="210" 
d="M160 392h-101v4l25 33v273l-34 25v5l85 28h2v-331l23 -33v-4z" />
    <glyph glyph-name="ordmasculine" unicode="&#xba;" horiz-adv-x="277" 
d="M137 399c-32.667 0 -60.332 15.667 -82.999 47s-34 75.666 -34 132.999s11.167 101.833 33.5 133.5s50.166 47.5 83.499 47.5c34.667 0 63.334 -15.667 86.001 -47s34 -76 34 -134c0 -57.333 -11.333 -101.666 -34 -132.999s-51.334 -47 -86.001 -47zM137.002 410
c16.667 0 29.834 14.5 39.501 43.5s14.5 70.833 14.5 125.5c0 55.333 -4.83301 97.5 -14.5 126.5s-22.834 43.5 -39.501 43.5c-16 0 -29 -14.833 -39 -44.5s-15 -71.5 -15 -125.5s5 -95.667 15 -125s23 -44 39 -44z" />
    <glyph glyph-name="guillemotright" unicode="&#xbb;" horiz-adv-x="356" 
d="M51 62l-5 2l53 203l-53 202l5 3l134 -202v-7zM177 62l-6 2l54 203l-54 202l6 3l133 -202v-7z" />
    <glyph glyph-name="onequarter" unicode="&#xbc;" horiz-adv-x="569" 
d="M514 0h-100v3l24 33v35h-104v49l104 238h53v-238h29v-49h-29v-35l23 -33v-3zM160 392h-101v4l25 33v273l-34 25v5l85 28h2v-331l23 -33v-4zM33 -10l-11 8l514 762l12 -8zM438 120v198h-2l-86 -198h88z" />
    <glyph glyph-name="onehalf" unicode="&#xbd;" horiz-adv-x="590" 
d="M566 0l-173 0.000976562v5c40 74 69.5 133.167 88.5 177.5s28.5 83.166 28.5 116.499c0 34 -14 53.667 -42 59l-64 -73h-2v71c20.667 8 43 12 67 12c66.667 0 100 -25.667 100 -77c0 -22.667 -6.83301 -46.667 -20.5 -72s-34.5 -56 -62.5 -92s-46.667 -61.333 -56 -76
h101l32 36h3v-87zM160 392.001h-101v4l25 33v273l-34 25v5l85 28h2v-331l23 -33v-4zM33 -9.99902l-11 8l514 762l12 -8z" />
    <glyph glyph-name="threequarters" unicode="&#xbe;" horiz-adv-x="569" 
d="M33 396l-0.000976562 71.001h1l64 -75c39.333 8.66699 59 37.334 59 86.001c0 26.667 -4.83301 48.334 -14.5 65.001s-23.834 25 -42.501 25h-16v10h16c17.333 0 30.5 9.16699 39.5 27.5s13.5 40.166 13.5 65.499c0 47.333 -17 73.666 -51 78.999l-61 -73h-2v71
c16.667 8 38.334 12 65.001 12c32.667 0 59 -7.16699 79 -21.5s30 -36.5 30 -66.5c0 -24 -7.16699 -44.833 -21.5 -62.5s-36.5 -29.167 -66.5 -34.5c29.333 -5.33301 51.833 -16.333 67.5 -33s23.5 -38 23.5 -64c0 -30.667 -11.167 -54.334 -33.5 -71.001
s-49.833 -25 -82.5 -25c-25.333 0 -47.666 4.66699 -66.999 14zM511.999 0.000976562h-100v3l25 33v35h-104v49l104 238h52v-238h30v-49h-30v-35l23 -33v-3zM32.999 -9.99902l-11 8l514 762l12 -8zM436.999 120.001v198h-2l-86 -198h88z" />
    <glyph glyph-name="questiondown" unicode="&#xbf;" horiz-adv-x="359" 
d="M219 -159l110 133.003h5v-126c-45.333 -12 -85 -18 -119 -18c-50.667 0 -95 12.333 -133 37s-57 61 -57 109c0 28 8.83301 61.167 26.5 99.5s36 71.5 55 99.5s43.5 61.667 73.5 101l34 138h6l33 -146c-50 -66.667 -87 -123.334 -111 -170.001s-36 -88.334 -36 -125.001
c0 -36 9.83301 -65.833 29.5 -89.5s47.5 -37.834 83.5 -42.501zM217 490.003c-15.333 0 -28.333 5.33301 -39 16s-16 23.667 -16 39s5.33301 28.333 16 39s23.667 16 39 16s28.333 -5.33301 39 -16s16 -23.667 16 -39s-5.33301 -28.333 -16 -39s-23.667 -16 -39 -16z" />
    <glyph glyph-name="Agrave" unicode="&#xc0;" horiz-adv-x="435" 
d="M434 0h-163v6l31 56l-43 208h-154l-29 -166l42 -98v-6h-116v6l61 98l100 571l-15 69v6h97l145 -688l44 -56v-6zM257 282l-79 374h-4l-67 -374h150zM290 786l-215 78v6l58 52h6l155 -130z" />
    <glyph glyph-name="Aacute" unicode="&#xc1;" horiz-adv-x="435" 
d="M434 0h-163v6l31 56l-43 208h-154l-29 -166l42 -98v-6h-116v6l61 98l100 571l-15 69v6h97l145 -688l44 -56v-6zM257 282l-79 374h-4l-67 -374h150zM355 864l-215 -78l-4 6l155 130h6l58 -52v-6z" />
    <glyph glyph-name="Acircumflex" unicode="&#xc2;" horiz-adv-x="435" 
d="M434 0h-163v6l31 56l-43 208h-154l-29 -166l42 -98v-6h-116v6l61 98l100 571l-15 69v6h97l145 -688l44 -56v-6zM257 282l-79 374h-4l-67 -374h150zM349 786l-142 50l-141 -50l-3 6l127 113h36l126 -113z" />
    <glyph glyph-name="Atilde" unicode="&#xc3;" horiz-adv-x="435" 
d="M434 0h-163v6l31 56l-43 208h-154l-29 -166l42 -98v-6h-116v6l61 98l100 571l-15 69v6h97l145 -688l44 -56v-6zM257 282l-79 374h-4l-67 -374h150zM350 905l6.00098 -2c-16.667 -68.667 -46.334 -103 -89.001 -103c-16 0 -39.5 8.33301 -70.5 25s-51.5 25 -61.5 25
c-26 0 -47 -15.333 -63 -46l-6 2c16.667 69.333 46.667 104 90 104c15.333 0 38.5 -8.33301 69.5 -25s51.833 -25 62.5 -25c26 0 46.667 15 62 45z" />
    <glyph glyph-name="Adieresis" unicode="&#xc4;" horiz-adv-x="435" 
d="M434 0h-163v6l31 56l-43 208h-154l-29 -166l42 -98v-6h-116v6l61 98l100 571l-15 69v6h97l145 -688l44 -56v-6zM257 282l-79 374h-4l-67 -374h150zM142 809c-14 0 -25.667 4.66699 -35 14s-14 21 -14 35c0 13.333 4.66699 24.666 14 33.999s21 14 35 14
c13.333 0 24.666 -4.66699 33.999 -14s14 -20.666 14 -33.999c0 -14 -4.66699 -25.667 -14 -35s-20.666 -14 -33.999 -14zM279 809c-14 0 -25.5 4.66699 -34.5 14s-13.5 21 -13.5 35c0 13.333 4.5 24.666 13.5 33.999s20.5 14 34.5 14s25.667 -4.66699 35 -14
s14 -20.666 14 -33.999c0 -14 -4.66699 -25.667 -14 -35s-21 -14 -35 -14z" />
    <glyph glyph-name="Aring" unicode="&#xc5;" horiz-adv-x="435" 
d="M434 0h-163v6l31 56l-43 208h-154l-29 -166l42 -98v-6h-116v6l61 98l100 571l-15 69v6h97l145 -688l44 -56v-6zM257 282l-79 374h-4l-67 -374h150zM309 856c0 -21.333 -9.33301 -39 -28 -53s-43.334 -21 -74.001 -21s-55.167 7 -73.5 21s-27.5 31.667 -27.5 53
c0 22 9.16699 39.833 27.5 53.5s42.833 20.5 73.5 20.5s55.334 -6.83301 74.001 -20.5s28 -31.5 28 -53.5zM207 794c15.333 0 27 5.66797 35 17.001s12 26.333 12 45c0 19.333 -4 34.666 -12 45.999s-19.667 17 -35 17c-30.667 0 -46 -21 -46 -63
c0 -18.667 4 -33.667 12 -45s19.333 -17 34 -17z" />
    <glyph glyph-name="AE" unicode="&#xc6;" horiz-adv-x="649" 
d="M621 0h-331v6l42 56v208h-165l-70 -166l21 -98v-6h-116v6l81 98l244 580l-40 60v6h334v-129h-6l-101 118h-102v-339l168 39h6v-90h-6l-168 40v-377h102l101 117h6v-129zM332 282v374h-4l-157 -374h161z" />
    <glyph glyph-name="Ccedilla" unicode="&#xc7;" horiz-adv-x="402" 
d="M193 -205l-1.99805 6.99805c42 12.667 63 30.667 63 54s-20.333 40.333 -61 51l-2 6l59 77c-26.667 2 -52 10.333 -76 25s-46.5 36.5 -67.5 65.5s-37.833 68.833 -50.5 119.5s-19 109 -19 175c0 68 6.66699 127.833 20 179.5s31.166 91.834 53.499 120.501
s46.166 50 71.499 64s51.666 21 78.999 21c34 0 71.333 -5.33301 112 -16v-131h-5l-109 136c-42 -17.333 -75.333 -57.5 -100 -120.5s-37 -147.5 -37 -253.5s12.333 -190.333 37 -253s58 -102.667 100 -120l13 16l1 1l95 115h5v-127c-37.333 -10 -73.333 -15.667 -108 -17
l-26 -34c22.667 -5.33301 41.834 -15.166 57.501 -29.499s23.5 -30.833 23.5 -49.5c0 -44 -42.333 -71.333 -127 -82z" />
    <glyph glyph-name="Egrave" unicode="&#xc8;" horiz-adv-x="396" 
d="M300 786l-215 78v6l58 52h6l155 -130zM367 0h-330v6l42 56v626l-42 56v6h330v-129h-5l-102 118h-101v-339l168 39h5v-90h-5l-168 40v-377h101l102 117h5v-129z" />
    <glyph glyph-name="Eacute" unicode="&#xc9;" horiz-adv-x="396" 
d="M367 0h-330v6l42 56v626l-42 56v6h330v-129h-5l-102 118h-101v-339l168 39h5v-90h-5l-168 40v-377h101l102 117h5v-129zM332 864l-215 -78l-4 6l155 130h6l58 -52v-6z" />
    <glyph glyph-name="Ecircumflex" unicode="&#xca;" horiz-adv-x="396" 
d="M346 786l-142 50l-141 -50l-3 6l127 113h36l126 -113zM367 0h-330v6l42 56v626l-42 56v6h330v-129h-5l-102 118h-101v-339l168 39h5v-90h-5l-168 40v-377h101l102 117h5v-129z" />
    <glyph glyph-name="Edieresis" unicode="&#xcb;" horiz-adv-x="396" 
d="M367 0h-330v6l42 56v626l-42 56v6h330v-129h-5l-102 118h-101v-339l168 39h5v-90h-5l-168 40v-377h101l102 117h5v-129zM139 809c-14 0 -25.667 4.66699 -35 14s-14 21 -14 35c0 13.333 4.66699 24.666 14 33.999s21 14 35 14c13.333 0 24.666 -4.66699 33.999 -14
s14 -20.666 14 -33.999c0 -14 -4.66699 -25.667 -14 -35s-20.666 -14 -33.999 -14zM276 809c-14 0 -25.5 4.66699 -34.5 14s-13.5 21 -13.5 35c0 13.333 4.5 24.666 13.5 33.999s20.5 14 34.5 14s25.667 -4.66699 35 -14s14 -20.666 14 -33.999
c0 -14 -4.66699 -25.667 -14 -35s-21 -14 -35 -14z" />
    <glyph glyph-name="Igrave" unicode="&#xcc;" horiz-adv-x="238" 
d="M201 0h-164v6l42 56v626l-42 56v6h164v-6l-42 -56v-626l42 -56v-6zM204 786l-215 78v6l58 52h6l155 -130z" />
    <glyph glyph-name="Iacute" unicode="&#xcd;" horiz-adv-x="238" 
d="M201 0h-164v6l42 56v626l-42 56v6h164v-6l-42 -56v-626l42 -56v-6zM251 864l-215 -78l-4 6l155 130h6l58 -52v-6z" />
    <glyph glyph-name="Icircumflex" unicode="&#xce;" horiz-adv-x="238" 
d="M201 0h-164v6l42 56v626l-42 56v6h164v-6l-42 -56v-626l42 -56v-6zM261 786l-142 50l-141 -50l-3 6l127 113h36l126 -113z" />
    <glyph glyph-name="Idieresis" unicode="&#xcf;" horiz-adv-x="238" 
d="M201 0h-164v6l42 56v626l-42 56v6h164v-6l-42 -56v-626l42 -56v-6zM51 809c-14 0 -25.667 4.66699 -35 14s-14 21 -14 35c0 13.333 4.66699 24.666 14 33.999s21 14 35 14c13.333 0 24.666 -4.66699 33.999 -14s14 -20.666 14 -33.999c0 -14 -4.66699 -25.667 -14 -35
s-20.666 -14 -33.999 -14zM188 809c-14 0 -25.5 4.66699 -34.5 14s-13.5 21 -13.5 35c0 13.333 4.5 24.666 13.5 33.999s20.5 14 34.5 14s25.667 -4.66699 35 -14s14 -20.666 14 -33.999c0 -14 -4.66699 -25.667 -14 -35s-21 -14 -35 -14z" />
    <glyph glyph-name="Eth" unicode="&#xd0;" horiz-adv-x="492" 
d="M184 0h-147v6l42 56v317h-60v11h60v298l-42 56v6h147c24.667 0 49 -3.83301 73 -11.5s48.167 -20.667 72.5 -39s45.666 -41.333 63.999 -69s33.166 -63.5 44.499 -107.5s17 -93.333 17 -148s-5.66699 -104 -17 -148s-26.166 -79.833 -44.499 -107.5
s-39.666 -50.667 -63.999 -69s-48.5 -31.333 -72.5 -39s-48.333 -11.5 -73 -11.5zM159 12l27 -0.000976562c51.333 0 94.833 31.333 130.5 94s53.5 152.667 53.5 270c0 116.667 -17.833 206.334 -53.5 269.001s-79.167 94 -130.5 94h-27v-349h85v-11h-85v-367z" />
    <glyph glyph-name="Ntilde" unicode="&#xd1;" horiz-adv-x="471" 
d="M380 905l6.00098 -2c-16.667 -68.667 -46.334 -103 -89.001 -103c-16 0 -39.5 8.33301 -70.5 25s-51.5 25 -61.5 25c-26 0 -47 -15.333 -63 -46l-6 2c16.667 69.333 46.667 104 90 104c15.333 0 38.5 -8.33301 69.5 -25s51.833 -25 62.5 -25c26 0 46.667 15 62 45z
M401.001 0h-23l-278 613h-4v-509l53 -98v-6h-120v6l53 98v544l-45 96v6h91l255 -567h4v463l-53 98v6h119v-6l-52 -98v-646z" />
    <glyph glyph-name="Ograve" unicode="&#xd2;" horiz-adv-x="482" 
d="M313 786l-215 78v6l58 52h6l155 -130zM241 -10c-55.333 0 -103.166 31.335 -143.499 94.002s-60.5 159.667 -60.5 291s20.167 228.333 60.5 291s88.166 94 143.499 94c20 0 39.333 -4.16699 58 -12.5s37 -22.166 55 -41.499s33.667 -43.333 47 -72
s24 -65.334 32 -110.001s12 -94.334 12 -149.001s-4 -104.334 -12 -149.001s-18.667 -81.334 -32 -110.001s-29 -52.667 -47 -72s-36.333 -33.166 -55 -41.499s-38 -12.5 -58 -12.5zM241 2.00195c38 0 67.167 31.667 87.5 95s30.5 156 30.5 278
c0 122.667 -10.167 215.667 -30.5 279s-49.5 95 -87.5 95s-67.333 -31.667 -88 -95s-31 -156.333 -31 -279s10.167 -215.5 30.5 -278.5s49.833 -94.5 88.5 -94.5z" />
    <glyph glyph-name="Oacute" unicode="&#xd3;" horiz-adv-x="482" 
d="M360 864l-215 -78l-4 6l155 130h6l58 -52v-6zM241 -10c-55.333 0 -103.166 31.335 -143.499 94.002s-60.5 159.667 -60.5 291s20.167 228.333 60.5 291s88.166 94 143.499 94c20 0 39.333 -4.16699 58 -12.5s37 -22.166 55 -41.499s33.667 -43.333 47 -72
s24 -65.334 32 -110.001s12 -94.334 12 -149.001s-4 -104.334 -12 -149.001s-18.667 -81.334 -32 -110.001s-29 -52.667 -47 -72s-36.333 -33.166 -55 -41.499s-38 -12.5 -58 -12.5zM241 2.00195c38 0 67.167 31.667 87.5 95s30.5 156 30.5 278
c0 122.667 -10.167 215.667 -30.5 279s-49.5 95 -87.5 95s-67.333 -31.667 -88 -95s-31 -156.333 -31 -279s10.167 -215.5 30.5 -278.5s49.833 -94.5 88.5 -94.5z" />
    <glyph glyph-name="Ocircumflex" unicode="&#xd4;" horiz-adv-x="482" 
d="M382 786l-142 50l-141 -50l-3 6l127 113h36l126 -113zM241 -10c-55.333 0 -103.166 31.335 -143.499 94.002s-60.5 159.667 -60.5 291s20.167 228.333 60.5 291s88.166 94 143.499 94c20 0 39.333 -4.16699 58 -12.5s37 -22.166 55 -41.499s33.667 -43.333 47 -72
s24 -65.334 32 -110.001s12 -94.334 12 -149.001s-4 -104.334 -12 -149.001s-18.667 -81.334 -32 -110.001s-29 -52.667 -47 -72s-36.333 -33.166 -55 -41.499s-38 -12.5 -58 -12.5zM241 2.00195c38 0 67.167 31.667 87.5 95s30.5 156 30.5 278
c0 122.667 -10.167 215.667 -30.5 279s-49.5 95 -87.5 95s-67.333 -31.667 -88 -95s-31 -156.333 -31 -279s10.167 -215.5 30.5 -278.5s49.833 -94.5 88.5 -94.5z" />
    <glyph glyph-name="Otilde" unicode="&#xd5;" horiz-adv-x="482" 
d="M241 -10c-55.333 0 -103.166 31.335 -143.499 94.002s-60.5 159.667 -60.5 291s20.167 228.333 60.5 291s88.166 94 143.499 94c20 0 39.333 -4.16699 58 -12.5s37 -22.166 55 -41.499s33.667 -43.333 47 -72s24 -65.334 32 -110.001s12 -94.334 12 -149.001
s-4 -104.334 -12 -149.001s-18.667 -81.334 -32 -110.001s-29 -52.667 -47 -72s-36.333 -33.166 -55 -41.499s-38 -12.5 -58 -12.5zM241 2.00195c38 0 67.167 31.667 87.5 95s30.5 156 30.5 278c0 122.667 -10.167 215.667 -30.5 279s-49.5 95 -87.5 95
s-67.333 -31.667 -88 -95s-31 -156.333 -31 -279s10.167 -215.5 30.5 -278.5s49.833 -94.5 88.5 -94.5zM380 905.002l6.00098 -2c-16.667 -68.667 -46.334 -103 -89.001 -103c-16 0 -39.5 8.33301 -70.5 25s-51.5 25 -61.5 25c-26 0 -47 -15.333 -63 -46l-6 2
c16.667 69.333 46.667 104 90 104c15.333 0 38.5 -8.33301 69.5 -25s51.833 -25 62.5 -25c26 0 46.667 15 62 45z" />
    <glyph glyph-name="Odieresis" unicode="&#xd6;" horiz-adv-x="482" 
d="M241 -10c-55.333 0 -103.166 31.335 -143.499 94.002s-60.5 159.667 -60.5 291s20.167 228.333 60.5 291s88.166 94 143.499 94c20 0 39.333 -4.16699 58 -12.5s37 -22.166 55 -41.499s33.667 -43.333 47 -72s24 -65.334 32 -110.001s12 -94.334 12 -149.001
s-4 -104.334 -12 -149.001s-18.667 -81.334 -32 -110.001s-29 -52.667 -47 -72s-36.333 -33.166 -55 -41.499s-38 -12.5 -58 -12.5zM241 2.00195c38 0 67.167 31.667 87.5 95s30.5 156 30.5 278c0 122.667 -10.167 215.667 -30.5 279s-49.5 95 -87.5 95
s-67.333 -31.667 -88 -95s-31 -156.333 -31 -279s10.167 -215.5 30.5 -278.5s49.833 -94.5 88.5 -94.5zM172 809.002c-14 0 -25.667 4.66699 -35 14s-14 21 -14 35c0 13.333 4.66699 24.666 14 33.999s21 14 35 14c13.333 0 24.666 -4.66699 33.999 -14
s14 -20.666 14 -33.999c0 -14 -4.66699 -25.667 -14 -35s-20.666 -14 -33.999 -14zM309 809.002c-14 0 -25.5 4.66699 -34.5 14s-13.5 21 -13.5 35c0 13.333 4.5 24.666 13.5 33.999s20.5 14 34.5 14s25.667 -4.66699 35 -14s14 -20.666 14 -33.999
c0 -14 -4.66699 -25.667 -14 -35s-21 -14 -35 -14z" />
    <glyph glyph-name="multiply" unicode="&#xd7;" horiz-adv-x="491" 
d="M421 199l-175 177l-176 -177l-10 11l176 175l-176 175l10 11l176 -177l175 177l10 -11l-176 -175l176 -175z" />
    <glyph glyph-name="Oslash" unicode="&#xd8;" horiz-adv-x="482" 
d="M84 -47l-10.998 4.00098l40 103c-50.667 66.667 -76 171.667 -76 315c0 131.333 20.167 228.333 60.5 291s88.166 94 143.499 94c45.333 0 84.666 -20 117.999 -60l39 100l11 -4l-41 -106c51.333 -67.333 77 -172.333 77 -315c0 -54.667 -4 -104.334 -12 -149.001
s-18.667 -81.334 -32 -110.001s-29 -52.667 -47 -72s-36.333 -33.166 -55 -41.499s-38 -12.5 -58 -12.5c-46.667 0 -86.667 20 -120 60zM241.002 749.001c-38 0 -67.333 -31.667 -88 -95s-31 -156.333 -31 -279c0 -102 6.66699 -181.667 20 -239l192 498
c-20 76.667 -51 115 -93 115zM241.002 2.00098c38 0 67.167 31.667 87.5 95s30.5 156 30.5 278c0 98 -6.66699 177.667 -20 239l-192 -498c20 -76 51.333 -114 94 -114z" />
    <glyph glyph-name="Ugrave" unicode="&#xd9;" horiz-adv-x="503" 
d="M350 786l-215 78v6l58 52h6l155 -130zM410 210v436l-53 98v6h119v-6l-52 -98v-436c0 -146.667 -57 -220 -171 -220c-116 0 -174 73.333 -174 220v478l-42 56v6h164v-6l-42 -56v-478c0 -66.667 10 -116.5 30 -149.5s52.333 -49.5 97 -49.5c40.667 0 71.5 17.333 92.5 52
s31.5 83.667 31.5 147z" />
    <glyph glyph-name="Uacute" unicode="&#xda;" horiz-adv-x="503" 
d="M410 210v436l-53 98v6h119v-6l-52 -98v-436c0 -146.667 -57 -220 -171 -220c-116 0 -174 73.333 -174 220v478l-42 56v6h164v-6l-42 -56v-478c0 -66.667 10 -116.5 30 -149.5s52.333 -49.5 97 -49.5c40.667 0 71.5 17.333 92.5 52s31.5 83.667 31.5 147zM383 864
l-215 -78l-4 6l155 130h6l58 -52v-6z" />
    <glyph glyph-name="Ucircumflex" unicode="&#xdb;" horiz-adv-x="503" 
d="M402 786l-142 50l-141 -50l-3 6l127 113h36l126 -113zM410 210v436l-53 98v6h119v-6l-52 -98v-436c0 -146.667 -57 -220 -171 -220c-116 0 -174 73.333 -174 220v478l-42 56v6h164v-6l-42 -56v-478c0 -66.667 10 -116.5 30 -149.5s52.333 -49.5 97 -49.5
c40.667 0 71.5 17.333 92.5 52s31.5 83.667 31.5 147z" />
    <glyph glyph-name="Udieresis" unicode="&#xdc;" horiz-adv-x="503" 
d="M410 210v436l-53 98v6h119v-6l-52 -98v-436c0 -146.667 -57 -220 -171 -220c-116 0 -174 73.333 -174 220v478l-42 56v6h164v-6l-42 -56v-478c0 -66.667 10 -116.5 30 -149.5s52.333 -49.5 97 -49.5c40.667 0 71.5 17.333 92.5 52s31.5 83.667 31.5 147zM193 809
c-14 0 -25.667 4.66699 -35 14s-14 21 -14 35c0 13.333 4.66699 24.666 14 33.999s21 14 35 14c13.333 0 24.666 -4.66699 33.999 -14s14 -20.666 14 -33.999c0 -14 -4.66699 -25.667 -14 -35s-20.666 -14 -33.999 -14zM330 809c-14 0 -25.5 4.66699 -34.5 14
s-13.5 21 -13.5 35c0 13.333 4.5 24.666 13.5 33.999s20.5 14 34.5 14s25.667 -4.66699 35 -14s14 -20.666 14 -33.999c0 -14 -4.66699 -25.667 -14 -35s-21 -14 -35 -14z" />
    <glyph glyph-name="Yacute" unicode="&#xdd;" horiz-adv-x="450" 
d="M310 0h-164v6l42 56v198l-124 428l-45 56v6h162v-6l-28 -56l107 -393h2l91 351l-37 98v6h115v-6l-65 -98l-98 -386v-198l42 -56v-6zM353 864l-215 -78l-4 6l155 130h6l58 -52v-6z" />
    <glyph glyph-name="Thorn" unicode="&#xde;" horiz-adv-x="441" 
d="M37 0v5.99805l42 56v626l-42 56v6h165v-6l-43 -56v-70h27c66 0 120.5 -19.167 163.5 -57.5s64.5 -94.166 64.5 -167.499s-21.5 -129.166 -64.5 -167.499s-97.5 -57.5 -163.5 -57.5h-27v-106l43 -56v-6h-165zM159 179.998l27 -0.000976562c46 0 81.667 18.833 107 56.5
s38 89.834 38 156.501c0 67.333 -12.667 119.833 -38 157.5s-61 56.5 -107 56.5h-27v-427z" />
    <glyph glyph-name="germandbls" unicode="&#xdf;" horiz-adv-x="456" 
d="M178 7v126.998h6l81 -132c25.333 6.66699 44.666 25.5 57.999 56.5s20 69.833 20 116.5c0 139.333 -43 213.333 -129 222v7c56 8 84 65.667 84 173c0 59.333 -6.66699 102.833 -20 130.5s-30.333 41.5 -51 41.5c-53.333 0 -80 -65.333 -80 -196v-553h-118v6l40 56v470
c0 66.667 13.833 121.334 41.5 164.001s66.5 64 116.5 64c48.667 0 86.334 -15.5 113.001 -46.5s40 -72.833 40 -125.5c0 -46 -11.167 -86.167 -33.5 -120.5s-56.166 -55.833 -101.499 -64.5c63.333 -7.33301 108.833 -30.666 136.5 -69.999s41.5 -88 41.5 -146
s-15.833 -105.333 -47.5 -142s-70.834 -55 -117.501 -55c-25.333 0 -52 5.66699 -80 17z" />
    <glyph glyph-name="agrave" unicode="&#xe0;" horiz-adv-x="392" 
d="M363 0l-117.999 -0.00195312v53c-48 -42 -91 -63 -129 -63c-28.667 0 -50.334 8.5 -65.001 25.5s-22 38.833 -22 65.5c0 84.667 72 179.334 216 284.001v47c0 46.667 -16 78.667 -48 96s-66 18.333 -102 3c16.667 0.666992 30 -4.16602 40 -14.499s15 -22.833 15 -37.5
c0 -15.333 -5 -28 -15 -38s-22.667 -15 -38 -15s-28 5 -38 15s-15 22.667 -15 38c0 22.667 13.167 42.167 39.5 58.5s56.5 24.5 90.5 24.5c99.333 0 149 -40.333 149 -121v-359l40 -56v-6zM245.001 63.998l0.000976562 290c-89.333 -82.667 -134 -166 -134 -250
c0 -48 18.333 -72 55 -72c23.333 0 49.666 10.667 78.999 32zM259.002 565.998l-175 104v6l39 50h6l135 -154z" />
    <glyph glyph-name="aacute" unicode="&#xe1;" horiz-adv-x="392" 
d="M363 0l-117.999 -0.00195312v53c-48 -42 -91 -63 -129 -63c-28.667 0 -50.334 8.5 -65.001 25.5s-22 38.833 -22 65.5c0 84.667 72 179.334 216 284.001v47c0 46.667 -16 78.667 -48 96s-66 18.333 -102 3c16.667 0.666992 30 -4.16602 40 -14.499s15 -22.833 15 -37.5
c0 -15.333 -5 -28 -15 -38s-22.667 -15 -38 -15s-28 5 -38 15s-15 22.667 -15 38c0 22.667 13.167 42.167 39.5 58.5s56.5 24.5 90.5 24.5c99.333 0 149 -40.333 149 -121v-359l40 -56v-6zM245.001 63.998l0.000976562 290c-89.333 -82.667 -134 -166 -134 -250
c0 -48 18.333 -72 55 -72c23.333 0 49.666 10.667 78.999 32zM286.002 669.998l-176 -104l-4 6l135 154h6l39 -50v-6z" />
    <glyph glyph-name="acircumflex" unicode="&#xe2;" horiz-adv-x="392" 
d="M314 570l-129 76l-128 -76l-3 6l114 136h36l113 -136zM363 0l-117.999 -0.00195312v53c-48 -42 -91 -63 -129 -63c-28.667 0 -50.334 8.5 -65.001 25.5s-22 38.833 -22 65.5c0 84.667 72 179.334 216 284.001v47c0 46.667 -16 78.667 -48 96s-66 18.333 -102 3
c16.667 0.666992 30 -4.16602 40 -14.499s15 -22.833 15 -37.5c0 -15.333 -5 -28 -15 -38s-22.667 -15 -38 -15s-28 5 -38 15s-15 22.667 -15 38c0 22.667 13.167 42.167 39.5 58.5s56.5 24.5 90.5 24.5c99.333 0 149 -40.333 149 -121v-359l40 -56v-6zM245.001 63.998
l0.000976562 290c-89.333 -82.667 -134 -166 -134 -250c0 -48 18.333 -72 55 -72c23.333 0 49.666 10.667 78.999 32z" />
    <glyph glyph-name="atilde" unicode="&#xe3;" horiz-adv-x="392" 
d="M363 0l-117.999 -0.00195312v53c-48 -42 -91 -63 -129 -63c-28.667 0 -50.334 8.5 -65.001 25.5s-22 38.833 -22 65.5c0 84.667 72 179.334 216 284.001v47c0 46.667 -16 78.667 -48 96s-66 18.333 -102 3c16.667 0.666992 30 -4.16602 40 -14.499s15 -22.833 15 -37.5
c0 -15.333 -5 -28 -15 -38s-22.667 -15 -38 -15s-28 5 -38 15s-15 22.667 -15 38c0 22.667 13.167 42.167 39.5 58.5s56.5 24.5 90.5 24.5c99.333 0 149 -40.333 149 -121v-359l40 -56v-6zM245.001 63.998l0.000976562 290c-89.333 -82.667 -134 -166 -134 -250
c0 -48 18.333 -72 55 -72c23.333 0 49.666 10.667 78.999 32zM326.002 696.998l6 -3c-16.667 -70 -44.667 -105 -84 -105c-16.667 0 -39.167 9 -67.5 27s-47.166 27 -56.499 27c-23.333 0 -43 -16.667 -59 -50l-6 2c16.667 70.667 45 106 85 106c16 0 38.167 -9 66.5 -27
s47.5 -27 57.5 -27c23.333 0 42.666 16.667 57.999 50z" />
    <glyph glyph-name="adieresis" unicode="&#xe4;" horiz-adv-x="392" 
d="M125 607c-14 0 -25.667 4.66699 -35 14s-14 21 -14 35s4.66699 25.667 14 35s21 14 35 14c13.333 0 24.666 -4.66699 33.999 -14s14 -21 14 -35s-4.66699 -25.667 -14 -35s-20.666 -14 -33.999 -14zM262 607c-14 0 -25.5 4.66699 -34.5 14s-13.5 21 -13.5 35
s4.5 25.667 13.5 35s20.5 14 34.5 14s25.667 -4.66699 35 -14s14 -21 14 -35s-4.66699 -25.667 -14 -35s-21 -14 -35 -14zM363 0l-117.999 -0.00195312v53c-48 -42 -91 -63 -129 -63c-28.667 0 -50.334 8.5 -65.001 25.5s-22 38.833 -22 65.5
c0 84.667 72 179.334 216 284.001v47c0 46.667 -16 78.667 -48 96s-66 18.333 -102 3c16.667 0.666992 30 -4.16602 40 -14.499s15 -22.833 15 -37.5c0 -15.333 -5 -28 -15 -38s-22.667 -15 -38 -15s-28 5 -38 15s-15 22.667 -15 38c0 22.667 13.167 42.167 39.5 58.5
s56.5 24.5 90.5 24.5c99.333 0 149 -40.333 149 -121v-359l40 -56v-6zM245.001 63.998l0.000976562 290c-89.333 -82.667 -134 -166 -134 -250c0 -48 18.333 -72 55 -72c23.333 0 49.666 10.667 78.999 32z" />
    <glyph glyph-name="aring" unicode="&#xe5;" horiz-adv-x="392" 
d="M363 0l-117.999 -0.00195312v53c-48 -42 -91 -63 -129 -63c-28.667 0 -50.334 8.5 -65.001 25.5s-22 38.833 -22 65.5c0 84.667 72 179.334 216 284.001v47c0 46.667 -16 78.667 -48 96s-66 18.333 -102 3c16.667 0.666992 30 -4.16602 40 -14.499s15 -22.833 15 -37.5
c0 -15.333 -5 -28 -15 -38s-22.667 -15 -38 -15s-28 5 -38 15s-15 22.667 -15 38c0 22.667 13.167 42.167 39.5 58.5s56.5 24.5 90.5 24.5c99.333 0 149 -40.333 149 -121v-359l40 -56v-6zM245.001 63.998l0.000976562 290c-89.333 -82.667 -134 -166 -134 -250
c0 -48 18.333 -72 55 -72c23.333 0 49.666 10.667 78.999 32zM284.002 661.998c0 -22.667 -8.16699 -41.667 -24.5 -57s-38.5 -23 -66.5 -23s-50 7.66699 -66 23s-24 34.333 -24 57c0 22 8 40.667 24 56s38 23 66 23s50.167 -7.66699 66.5 -23s24.5 -34 24.5 -56z
M193.002 593.998c12.667 0 22.334 6.5 29.001 19.5s10 29.167 10 48.5s-3.33301 35.333 -10 48s-16.334 19 -29.001 19s-22.167 -6.33301 -28.5 -19s-9.5 -28.667 -9.5 -48s3.16699 -35.5 9.5 -48.5s15.833 -19.5 28.5 -19.5z" />
    <glyph glyph-name="ae" unicode="&#xe6;" horiz-adv-x="594" 
d="M539 42l3 -5.00195c-40.667 -31.333 -82.667 -47 -126 -47c-58.667 0 -104 29.333 -136 88c-66 -58.667 -120 -88 -162 -88c-30 0 -52.333 8.5 -67 25.5s-22 38.833 -22 65.5c0 84.667 72 179.334 216 284.001v47c0 46.667 -16 78.667 -48 96s-66 18.333 -102 3
c16.667 0.666992 30 -4.16602 40 -14.499s15 -22.833 15 -37.5c0 -15.333 -5 -28 -15 -38s-22.667 -15 -38 -15s-28 5 -38 15s-15 22.667 -15 38c0 22.667 13.167 42.167 39.5 58.5s56.5 24.5 90.5 24.5c66.667 0 110 -19.667 130 -59c27.333 39.333 60.666 59 99.999 59
c45.333 0 83.333 -22 114 -66s44.667 -112.667 42 -206h-233c0.666992 -70.667 12.334 -129.667 35.001 -177s56.667 -71 102 -71c21.333 0 46.333 6.66699 75 20zM245 252.998v101c-89.333 -82.667 -134 -166 -134 -250c0 -22.667 5 -40.167 15 -52.5
s23.667 -18.5 41 -18.5c32.667 0 69 18 109 54c-20.667 42.667 -31 98 -31 166zM327 281.998h152.001c0 75.333 -7.33301 135.5 -22 180.5s-32.334 67.5 -53.001 67.5s-38.5 -22.333 -53.5 -67s-22.833 -105 -23.5 -181z" />
    <glyph glyph-name="ccedilla" unicode="&#xe7;" horiz-adv-x="355" 
d="M140 -205l-2 7c42 12.667 63 30.667 63 54s-20.333 40.333 -61 51l-2 6l59 77c-18 0.666992 -35.667 5.16699 -53 13.5s-34.833 21.5 -52.5 39.5s-31.834 45 -42.501 81s-16 78.667 -16 128c0 84.667 18.333 154.167 55 208.5s82.334 81.5 137.001 81.5
c28.667 0 52.834 -7.16699 72.501 -21.5s29.5 -31.5 29.5 -51.5c0 -14.667 -4.83301 -26.667 -14.5 -36s-21.5 -14 -35.5 -14s-25.667 4.66699 -35 14s-14 21.333 -14 36c0 14 4.66699 25.833 14 35.5s21 14.5 35 14.5c-8.66699 2.66699 -18.334 4 -29.001 4
c-30 0 -55.333 -13.167 -76 -39.5s-35.334 -57.5 -44.001 -93.5s-13 -74.333 -13 -115c0 -72 11.333 -132.167 34 -180.5s57 -72.5 103 -72.5c21.333 0 46.333 6.66699 75 20l3 -5c-38 -28.667 -77 -44.334 -117 -47.001l-27 -34
c22.667 -5.33301 41.834 -15.166 57.501 -29.499s23.5 -30.833 23.5 -49.5c0 -44 -42.333 -71.333 -127 -82z" />
    <glyph glyph-name="egrave" unicode="&#xe8;" horiz-adv-x="383" 
d="M327 42l3.00195 -5c-42 -31.333 -84 -47 -126 -47c-18 0 -35.833 3.66699 -53.5 11s-35.834 19.833 -54.501 37.5s-33.834 45 -45.501 82s-17.5 81.167 -17.5 132.5c0 94 15.667 165.667 47 215s68.666 74 111.999 74c44.667 0 82.5 -22 113.5 -66
s45.167 -112.667 42.5 -206h-233c0.666992 -70.667 12.334 -129.667 35.001 -177s56.667 -71 102 -71c21.333 0 46.333 6.66699 75 20zM115.002 282h152.001c0 75.333 -7.33301 135.5 -22 180.5s-32.334 67.5 -53.001 67.5s-38.5 -22.333 -53.5 -67s-22.833 -105 -23.5 -181
zM255.003 566l-175 104v6l39 50h6l135 -154z" />
    <glyph glyph-name="eacute" unicode="&#xe9;" horiz-adv-x="383" 
d="M327 42l3.00195 -5c-42 -31.333 -84 -47 -126 -47c-18 0 -35.833 3.66699 -53.5 11s-35.834 19.833 -54.501 37.5s-33.834 45 -45.501 82s-17.5 81.167 -17.5 132.5c0 94 15.667 165.667 47 215s68.666 74 111.999 74c44.667 0 82.5 -22 113.5 -66
s45.167 -112.667 42.5 -206h-233c0.666992 -70.667 12.334 -129.667 35.001 -177s56.667 -71 102 -71c21.333 0 46.333 6.66699 75 20zM115.002 282h152.001c0 75.333 -7.33301 135.5 -22 180.5s-32.334 67.5 -53.001 67.5s-38.5 -22.333 -53.5 -67s-22.833 -105 -23.5 -181
zM299.003 670l-176 -104l-4 6l135 154h6l39 -50v-6z" />
    <glyph glyph-name="ecircumflex" unicode="&#xea;" horiz-adv-x="383" 
d="M327 42l3.00195 -5c-42 -31.333 -84 -47 -126 -47c-18 0 -35.833 3.66699 -53.5 11s-35.834 19.833 -54.501 37.5s-33.834 45 -45.501 82s-17.5 81.167 -17.5 132.5c0 94 15.667 165.667 47 215s68.666 74 111.999 74c44.667 0 82.5 -22 113.5 -66
s45.167 -112.667 42.5 -206h-233c0.666992 -70.667 12.334 -129.667 35.001 -177s56.667 -71 102 -71c21.333 0 46.333 6.66699 75 20zM115.002 282h152.001c0 75.333 -7.33301 135.5 -22 180.5s-32.334 67.5 -53.001 67.5s-38.5 -22.333 -53.5 -67s-22.833 -105 -23.5 -181
zM318.003 570l-129 76l-128 -76l-3 6l114 136h36l113 -136z" />
    <glyph glyph-name="edieresis" unicode="&#xeb;" horiz-adv-x="383" 
d="M327 42l3.00195 -5c-42 -31.333 -84 -47 -126 -47c-18 0 -35.833 3.66699 -53.5 11s-35.834 19.833 -54.501 37.5s-33.834 45 -45.501 82s-17.5 81.167 -17.5 132.5c0 94 15.667 165.667 47 215s68.666 74 111.999 74c44.667 0 82.5 -22 113.5 -66
s45.167 -112.667 42.5 -206h-233c0.666992 -70.667 12.334 -129.667 35.001 -177s56.667 -71 102 -71c21.333 0 46.333 6.66699 75 20zM115.002 282h152.001c0 75.333 -7.33301 135.5 -22 180.5s-32.334 67.5 -53.001 67.5s-38.5 -22.333 -53.5 -67s-22.833 -105 -23.5 -181
zM258.003 607c-14 0 -25.5 4.66699 -34.5 14s-13.5 21 -13.5 35s4.5 25.667 13.5 35s20.5 14 34.5 14s25.667 -4.66699 35 -14s14 -21 14 -35s-4.66699 -25.667 -14 -35s-21 -14 -35 -14zM121.003 607c-14 0 -25.667 4.66699 -35 14s-14 21 -14 35s4.66699 25.667 14 35
s21 14 35 14c13.333 0 24.666 -4.66699 33.999 -14s14 -21 14 -35s-4.66699 -25.667 -14 -35s-20.666 -14 -33.999 -14z" />
    <glyph glyph-name="igrave" unicode="&#xec;" horiz-adv-x="216" 
d="M188 0h-159v6l40 56v407l-40 57v6h118v-470l41 -56v-6zM164 566l-175 104v6l39 50h6l135 -154z" />
    <glyph glyph-name="iacute" unicode="&#xed;" horiz-adv-x="216" 
d="M218 670l-176 -104l-4 6l135 154h6l39 -50v-6zM188 0h-159v6l40 56v407l-40 57v6h118v-470l41 -56v-6z" />
    <glyph glyph-name="icircumflex" unicode="&#xee;" horiz-adv-x="216" 
d="M232 570l-129 76l-128 -76l-3 6l114 136h36l113 -136zM188 0h-159v6l40 56v407l-40 57v6h118v-470l41 -56v-6z" />
    <glyph glyph-name="idieresis" unicode="&#xef;" horiz-adv-x="216" 
d="M35 607c-14 0 -25.667 4.66699 -35 14s-14 21 -14 35s4.66699 25.667 14 35s21 14 35 14c13.333 0 24.666 -4.66699 33.999 -14s14 -21 14 -35s-4.66699 -25.667 -14 -35s-20.666 -14 -33.999 -14zM172 607c-14 0 -25.5 4.66699 -34.5 14s-13.5 21 -13.5 35
s4.5 25.667 13.5 35s20.5 14 34.5 14s25.667 -4.66699 35 -14s14 -21 14 -35s-4.66699 -25.667 -14 -35s-21 -14 -35 -14zM188 0h-159v6l40 56v407l-40 57v6h118v-470l41 -56v-6z" />
    <glyph glyph-name="eth" unicode="&#xf0;" horiz-adv-x="416" 
d="M226 639l-110.998 -53.001l-5 10l111 52c-22 38.667 -49.333 74 -82 106l4 6c40.667 -22 78 -54 112 -96l109 51l4 -9l-107 -51c37.333 -47.333 67 -102.833 89 -166.5s33 -129.834 33 -198.501c0 -99.333 -16.333 -174.166 -49 -224.499s-74.667 -75.5 -126 -75.5
c-50.667 0 -92.334 23.833 -125.001 71.5s-49 115.834 -49 204.501c0 83.333 14.667 150.166 44 200.499s65.333 75.5 108 75.5c31.333 0 62.333 -16.333 93 -49c-12.667 54.667 -30.334 103.334 -53.001 146.001zM218.002 508.999
c-31.333 0 -56.167 -23.1689 -74.5 -69.502s-27.5 -104.166 -27.5 -173.499c0 -81.333 8.83301 -145.666 26.5 -192.999s39.5 -71 65.5 -71s47.833 25.167 65.5 75.5s26.5 120.5 26.5 210.5c0 67.333 -6 131 -18 191c-22 20 -43.333 30 -64 30z" />
    <glyph glyph-name="ntilde" unicode="&#xf1;" 
d="M417 0h-117.999v411c0 59.333 -22.333 89 -67 89c-26.667 0 -55 -11 -85 -33v-405l40 -56v-6h-158v6l40 56v407l-40 57v6h118v-53c53.333 42 99.666 63 138.999 63c60.667 0 91 -39.333 91 -118v-362l40 -56v-6zM352.001 697l6 -3c-16.667 -70 -44.667 -105 -84 -105
c-16.667 0 -39.167 9 -67.5 27s-47.166 27 -56.499 27c-23.333 0 -43 -16.667 -59 -50l-6 2c16.667 70.667 45 106 85 106c16 0 38.167 -9 66.5 -27s47.5 -27 57.5 -27c23.333 0 42.666 16.667 57.999 50z" />
    <glyph glyph-name="ograve" unicode="&#xf2;" horiz-adv-x="415" 
d="M207 -10c-50.667 0 -92.334 23.833 -125.001 71.5s-49 115.834 -49 204.501s16.333 156.834 49 204.501s74.334 71.5 125.001 71.5s92.5 -23.833 125.5 -71.5s49.5 -115.834 49.5 -204.501s-16.333 -156.834 -49 -204.501s-74.667 -71.5 -126 -71.5zM207 2
c26 0 47.833 23.6689 65.5 71.002s26.5 111.666 26.5 192.999s-8.83301 145.666 -26.5 192.999s-39.5 71 -65.5 71s-47.667 -23.5 -65 -70.5s-26 -111.5 -26 -193.5s8.66699 -146.5 26 -193.5s39 -70.5 65 -70.5zM280 566.002l-175 104v6l39 50h6l135 -154z" />
    <glyph glyph-name="oacute" unicode="&#xf3;" horiz-adv-x="415" 
d="M308 670l-176 -104l-4 6l135 154h6l39 -50v-6zM207 -10c-50.667 0 -92.334 23.833 -125.001 71.5s-49 115.834 -49 204.501s16.333 156.834 49 204.501s74.334 71.5 125.001 71.5s92.5 -23.833 125.5 -71.5s49.5 -115.834 49.5 -204.501s-16.333 -156.834 -49 -204.501
s-74.667 -71.5 -126 -71.5zM207 2c26 0 47.833 23.6689 65.5 71.002s26.5 111.666 26.5 192.999s-8.83301 145.666 -26.5 192.999s-39.5 71 -65.5 71s-47.667 -23.5 -65 -70.5s-26 -111.5 -26 -193.5s8.66699 -146.5 26 -193.5s39 -70.5 65 -70.5z" />
    <glyph glyph-name="ocircumflex" unicode="&#xf4;" horiz-adv-x="415" 
d="M335 570l-129 76l-128 -76l-3 6l114 136h36l113 -136zM207 -10c-50.667 0 -92.334 23.833 -125.001 71.5s-49 115.834 -49 204.501s16.333 156.834 49 204.501s74.334 71.5 125.001 71.5s92.5 -23.833 125.5 -71.5s49.5 -115.834 49.5 -204.501
s-16.333 -156.834 -49 -204.501s-74.667 -71.5 -126 -71.5zM207 2c26 0 47.833 23.6689 65.5 71.002s26.5 111.666 26.5 192.999s-8.83301 145.666 -26.5 192.999s-39.5 71 -65.5 71s-47.667 -23.5 -65 -70.5s-26 -111.5 -26 -193.5s8.66699 -146.5 26 -193.5
s39 -70.5 65 -70.5z" />
    <glyph glyph-name="otilde" unicode="&#xf5;" horiz-adv-x="415" 
d="M207 -10c-50.667 0 -92.334 23.833 -125.001 71.5s-49 115.834 -49 204.501s16.333 156.834 49 204.501s74.334 71.5 125.001 71.5s92.5 -23.833 125.5 -71.5s49.5 -115.834 49.5 -204.501s-16.333 -156.834 -49 -204.501s-74.667 -71.5 -126 -71.5zM207 2
c26 0 47.833 23.6689 65.5 71.002s26.5 111.666 26.5 192.999s-8.83301 145.666 -26.5 192.999s-39.5 71 -65.5 71s-47.667 -23.5 -65 -70.5s-26 -111.5 -26 -193.5s8.66699 -146.5 26 -193.5s39 -70.5 65 -70.5zM346 697.002l6 -3c-16.667 -70 -44.667 -105 -84 -105
c-16.667 0 -39.167 9 -67.5 27s-47.166 27 -56.499 27c-23.333 0 -43 -16.667 -59 -50l-6 2c16.667 70.667 45 106 85 106c16 0 38.167 -9 66.5 -27s47.5 -27 57.5 -27c23.333 0 42.666 16.667 57.999 50z" />
    <glyph glyph-name="odieresis" unicode="&#xf6;" horiz-adv-x="415" 
d="M138 607c-14 0 -25.667 4.66699 -35 14s-14 21 -14 35s4.66699 25.667 14 35s21 14 35 14c13.333 0 24.666 -4.66699 33.999 -14s14 -21 14 -35s-4.66699 -25.667 -14 -35s-20.666 -14 -33.999 -14zM275 607c-14 0 -25.5 4.66699 -34.5 14s-13.5 21 -13.5 35
s4.5 25.667 13.5 35s20.5 14 34.5 14s25.667 -4.66699 35 -14s14 -21 14 -35s-4.66699 -25.667 -14 -35s-21 -14 -35 -14zM207 -10c-50.667 0 -92.334 23.833 -125.001 71.5s-49 115.834 -49 204.501s16.333 156.834 49 204.501s74.334 71.5 125.001 71.5
s92.5 -23.833 125.5 -71.5s49.5 -115.834 49.5 -204.501s-16.333 -156.834 -49 -204.501s-74.667 -71.5 -126 -71.5zM207 2c26 0 47.833 23.6689 65.5 71.002s26.5 111.666 26.5 192.999s-8.83301 145.666 -26.5 192.999s-39.5 71 -65.5 71s-47.667 -23.5 -65 -70.5
s-26 -111.5 -26 -193.5s8.66699 -146.5 26 -193.5s39 -70.5 65 -70.5z" />
    <glyph glyph-name="divide" unicode="&#xf7;" horiz-adv-x="570" 
d="M335 206c0 -14 -4.66699 -25.833 -14 -35.5s-21.333 -14.5 -36 -14.5s-26.667 4.83301 -36 14.5s-14 21.5 -14 35.5s4.66699 25.833 14 35.5s21.333 14.5 36 14.5s26.667 -4.83301 36 -14.5s14 -21.5 14 -35.5zM335 564c0 -14 -4.66699 -25.833 -14 -35.5
s-21.333 -14.5 -36 -14.5s-26.667 4.83301 -36 14.5s-14 21.5 -14 35.5s4.66699 25.833 14 35.5s21.333 14.5 36 14.5s26.667 -4.83301 36 -14.5s14 -21.5 14 -35.5zM510 391v-12h-450v12h450z" />
    <glyph glyph-name="oslash" unicode="&#xf8;" horiz-adv-x="415" 
d="M78 -48l-10.002 3.00098l34 80c-46 48 -69 125 -69 231c0 88.667 16.333 156.834 49 204.501s74.334 71.5 125.001 71.5c36 0 68.333 -12.667 97 -38l33 76l10 -4l-35 -80c46.667 -48.667 70 -125.334 70 -230.001c0 -88.667 -16.333 -156.834 -49 -204.501
s-74.667 -71.5 -126 -71.5c-37.333 0 -69.666 12.333 -96.999 37zM206.998 530.001c-26 0 -47.668 -23.499 -65.001 -70.499s-26 -111.5 -26 -193.5c0 -62.667 5.33301 -116.334 16 -161.001l145 337c-17.333 58.667 -40.666 88 -69.999 88zM206.997 2.00195
c26 0 47.834 23.6689 65.501 71.002s26.5 111.666 26.5 192.999c0 63.333 -5.66699 116.666 -17 159.999l-145 -337c17.333 -58 40.666 -87 69.999 -87z" />
    <glyph glyph-name="ugrave" unicode="&#xf9;" 
d="M417 0h-118v53c-52 -42 -98.333 -63 -139 -63c-60.667 0 -91 39.333 -91 118v361l-40 57v6h118v-411c0 -60 22 -90 66 -90c25.333 0 54 11 86 33v405l-40 57v6h118v-470l40 -56v-6zM279 566l-175 104v6l39 50h6l135 -154z" />
    <glyph glyph-name="uacute" unicode="&#xfa;" 
d="M339 670l-176 -104l-4 6l135 154h6l39 -50v-6zM417 0h-118v53c-52 -42 -98.333 -63 -139 -63c-60.667 0 -91 39.333 -91 118v361l-40 57v6h118v-411c0 -60 22 -90 66 -90c25.333 0 54 11 86 33v405l-40 57v6h118v-470l40 -56v-6z" />
    <glyph glyph-name="ucircumflex" unicode="&#xfb;" 
d="M341 570l-129 76l-128 -76l-3 6l114 136h36l113 -136zM417 0h-118v53c-52 -42 -98.333 -63 -139 -63c-60.667 0 -91 39.333 -91 118v361l-40 57v6h118v-411c0 -60 22 -90 66 -90c25.333 0 54 11 86 33v405l-40 57v6h118v-470l40 -56v-6z" />
    <glyph glyph-name="udieresis" unicode="&#xfc;" 
d="M143 607c-14 0 -25.667 4.66699 -35 14s-14 21 -14 35s4.66699 25.667 14 35s21 14 35 14c13.333 0 24.666 -4.66699 33.999 -14s14 -21 14 -35s-4.66699 -25.667 -14 -35s-20.666 -14 -33.999 -14zM280 607c-14 0 -25.5 4.66699 -34.5 14s-13.5 21 -13.5 35
s4.5 25.667 13.5 35s20.5 14 34.5 14s25.667 -4.66699 35 -14s14 -21 14 -35s-4.66699 -25.667 -14 -35s-21 -14 -35 -14zM417 0h-118v53c-52 -42 -98.333 -63 -139 -63c-60.667 0 -91 39.333 -91 118v361l-40 57v6h118v-411c0 -60 22 -90 66 -90c25.333 0 54 11 86 33v405
l-40 57v6h118v-470l40 -56v-6z" />
    <glyph glyph-name="yacute" unicode="&#xfd;" horiz-adv-x="374" 
d="M204 0h-50l-110 469l-43 57v6h160v-6l-31 -57l90 -416c6.66699 24.667 10.667 41 12 49l65 326l-40 98v6h116v-6l-63 -98l-64 -326c-14.667 -78.667 -38.334 -143.667 -71.001 -195s-68.667 -77 -108 -77c-18 0 -32.333 5 -43 15s-16 22.667 -16 38s5 28 15 38
s22.667 15 38 15s28 -5 38 -15s15 -22.667 15 -38c0 -9.33301 -1.66699 -18 -5 -26c36.667 21.333 68.334 69 95.001 143zM316 670l-176 -104l-4 6l135 154h6l39 -50v-6z" />
    <glyph glyph-name="thorn" unicode="&#xfe;" horiz-adv-x="421" 
d="M26 -160l0.000976562 6l41 56v786l-41 56v6h119v-267c39.333 39.333 72.666 59 99.999 59c40.667 0 74.5 -23 101.5 -69s40.5 -115 40.5 -207s-13.5 -161 -40.5 -207s-60.833 -69 -101.5 -69c-28.667 0 -62 19.667 -100 59v-147l42 -56v-6h-161zM145.001 472
l0.000976562 -412.001c23.333 -21.333 44.666 -32 63.999 -32c30 0 53.333 22 70 66s25 101.333 25 172s-8.33301 127.834 -25 171.501s-40 65.5 -70 65.5c-20 0 -41.333 -10.333 -64 -31z" />
    <glyph glyph-name="ydieresis" unicode="&#xff;" horiz-adv-x="374" 
d="M204 0h-50l-110 469l-43 57v6h160v-6l-31 -57l90 -416c6.66699 24.667 10.667 41 12 49l65 326l-40 98v6h116v-6l-63 -98l-64 -326c-14.667 -78.667 -38.334 -143.667 -71.001 -195s-68.667 -77 -108 -77c-18 0 -32.333 5 -43 15s-16 22.667 -16 38s5 28 15 38
s22.667 15 38 15s28 -5 38 -15s15 -22.667 15 -38c0 -9.33301 -1.66699 -18 -5 -26c36.667 21.333 68.334 69 95.001 143zM127 607c-14 0 -25.667 4.66699 -35 14s-14 21 -14 35s4.66699 25.667 14 35s21 14 35 14c13.333 0 24.666 -4.66699 33.999 -14s14 -21 14 -35
s-4.66699 -25.667 -14 -35s-20.666 -14 -33.999 -14zM264 607c-14 0 -25.5 4.66699 -34.5 14s-13.5 21 -13.5 35s4.5 25.667 13.5 35s20.5 14 34.5 14s25.667 -4.66699 35 -14s14 -21 14 -35s-4.66699 -25.667 -14 -35s-21 -14 -35 -14z" />
    <glyph glyph-name="Amacron" unicode="&#x100;" horiz-adv-x="435" 
d="M434 0h-163v6l31 56l-43 208h-154l-29 -166l42 -98v-6h-116v6l61 98l100 571l-15 69v6h97l145 -688l44 -56v-6zM257 282l-79 374h-4l-67 -374h150zM348 839h-274v46h274v-46z" />
    <glyph glyph-name="amacron" unicode="&#x101;" horiz-adv-x="392" 
d="M363 0l-117.999 -0.00195312v53c-48 -42 -91 -63 -129 -63c-28.667 0 -50.334 8.5 -65.001 25.5s-22 38.833 -22 65.5c0 84.667 72 179.334 216 284.001v47c0 46.667 -16 78.667 -48 96s-66 18.333 -102 3c16.667 0.666992 30 -4.16602 40 -14.499s15 -22.833 15 -37.5
c0 -15.333 -5 -28 -15 -38s-22.667 -15 -38 -15s-28 5 -38 15s-15 22.667 -15 38c0 22.667 13.167 42.167 39.5 58.5s56.5 24.5 90.5 24.5c99.333 0 149 -40.333 149 -121v-359l40 -56v-6zM245.001 63.998l0.000976562 290c-89.333 -82.667 -134 -166 -134 -250
c0 -48 18.333 -72 55 -72c23.333 0 49.666 10.667 78.999 32zM315.002 626.998h-242v46h242v-46z" />
    <glyph glyph-name="Abreve" unicode="&#x102;" horiz-adv-x="435" 
d="M434 0h-163v6l31 56l-43 208h-154l-29 -166l42 -98v-6h-116v6l61 98l100 571l-15 69v6h97l145 -688l44 -56v-6zM257 282l-79 374h-4l-67 -374h150zM327 919h8c-10.667 -84.667 -53.667 -127 -129 -127c-76 0 -118.667 42.333 -128 127h7c22 -40.667 62.333 -61 121 -61
c60 0 100.333 20.333 121 61z" />
    <glyph glyph-name="abreve" unicode="&#x103;" horiz-adv-x="392" 
d="M363 0l-117.999 -0.00195312v53c-48 -42 -91 -63 -129 -63c-28.667 0 -50.334 8.5 -65.001 25.5s-22 38.833 -22 65.5c0 84.667 72 179.334 216 284.001v47c0 46.667 -16 78.667 -48 96s-66 18.333 -102 3c16.667 0.666992 30 -4.16602 40 -14.499s15 -22.833 15 -37.5
c0 -15.333 -5 -28 -15 -38s-22.667 -15 -38 -15s-28 5 -38 15s-15 22.667 -15 38c0 22.667 13.167 42.167 39.5 58.5s56.5 24.5 90.5 24.5c99.333 0 149 -40.333 149 -121v-359l40 -56v-6zM245.001 63.998l0.000976562 290c-89.333 -82.667 -134 -166 -134 -250
c0 -48 18.333 -72 55 -72c23.333 0 49.666 10.667 78.999 32zM303.002 719.998h7.99902c-1.33301 -42 -12 -76 -32 -102s-48.333 -39 -85 -39c-37.333 0 -65.833 13 -85.5 39s-30.167 60 -31.5 102h7c6.66699 -25.333 20.334 -45 41.001 -59s43.667 -21 69 -21
s48.333 7 69 21s34 33.667 40 59z" />
    <glyph glyph-name="Aogonek" unicode="&#x104;" horiz-adv-x="435" 
d="M313 -153l4 -4.99902c-36.667 -31.333 -70 -47 -100 -47c-18.667 0 -33.334 5.83301 -44.001 17.5s-16 26.167 -16 43.5c0 25.333 10.333 52.333 31 81s50 54.667 88 78l26 47l-43 208h-154l-29 -166l42 -98v-6h-116v6l61 98l100 571l-15 69v6h97l145 -688l44 -56v-6
h-158c-33.333 -38.667 -50 -79.334 -50 -122.001c0 -32 12.333 -48 37 -48c12.667 0 29.334 5.66699 50.001 17zM257 282.001l-79 374h-4l-67 -374h150z" />
    <glyph glyph-name="aogonek" unicode="&#x105;" horiz-adv-x="392" 
d="M359 -153l4.00098 -5.00195c-36.667 -31.333 -70 -47 -100 -47c-18.667 0 -33.334 5.83301 -44.001 17.5s-16 26.167 -16 43.5c0 22.667 8.5 46.834 25.5 72.501s40.833 49.5 71.5 71.5h-55v53c-48 -42 -91 -63 -129 -63c-28.667 0 -50.334 8.5 -65.001 25.5
s-22 38.833 -22 65.5c0 84.667 72 179.334 216 284.001v47c0 46.667 -16 78.667 -48 96s-66 18.333 -102 3c16.667 0.666992 30 -4.16602 40 -14.499s15 -22.833 15 -37.5c0 -15.333 -5 -28 -15 -38s-22.667 -15 -38 -15s-28 5 -38 15s-15 22.667 -15 38
c0 22.667 13.167 42.167 39.5 58.5s56.5 24.5 90.5 24.5c99.333 0 149 -40.333 149 -121v-359l40 -56v-6h-41c-33.333 -38.667 -50 -79.334 -50 -122.001c0 -32 12.333 -48 37 -48c12.667 0 29.334 5.66699 50.001 17zM245.001 63.998l0.000976562 290
c-89.333 -82.667 -134 -166 -134 -250c0 -48 18.333 -72 55 -72c23.333 0 49.666 10.667 78.999 32z" />
    <glyph glyph-name="Cacute" unicode="&#x106;" horiz-adv-x="402" 
d="M259 2l108.999 131.998h5v-127c-39.333 -11.333 -76.666 -17 -111.999 -17c-27.333 0 -53.666 7 -78.999 21s-49.166 35.333 -71.499 64s-40.166 68.834 -53.499 120.501s-20 111.5 -20 179.5s6.66699 127.833 20 179.5s31.166 91.834 53.499 120.501
s46.166 50 71.499 64s51.666 21 78.999 21c34 0 71.333 -5.33301 112 -16v-131h-5l-109 136c-42 -17.333 -75.333 -57.5 -100 -120.5s-37 -147.5 -37 -253.5s12.333 -190.333 37 -253s58 -102.667 100 -120zM382.999 863.998l-215 -78l-4 6l155 130h6l58 -52v-6z" />
    <glyph glyph-name="cacute" unicode="&#x107;" horiz-adv-x="355" 
d="M315 670l-176 -104l-4 6l135 154h6l39 -50v-6zM327 42l3 -5c-42 -31.333 -84 -47 -126 -47c-14 0 -28 2 -42 6s-29 12 -45 24s-30 27.333 -42 46s-22 44 -30 76s-12 68.667 -12 110c0 84.667 18.333 154.167 55 208.5s82.334 81.5 137.001 81.5
c28.667 0 52.834 -7.16699 72.501 -21.5s29.5 -31.5 29.5 -51.5c0 -14.667 -4.83301 -26.667 -14.5 -36s-21.5 -14 -35.5 -14s-25.667 4.66699 -35 14s-14 21.333 -14 36c0 14 4.66699 25.833 14 35.5s21 14.5 35 14.5c-8.66699 2.66699 -18.334 4 -29.001 4
c-30 0 -55.333 -13.167 -76 -39.5s-35.334 -57.5 -44.001 -93.5s-13 -74.333 -13 -115c0 -72 11.333 -132.167 34 -180.5s57 -72.5 103 -72.5c21.333 0 46.333 6.66699 75 20z" />
    <glyph glyph-name="Ccircumflex" unicode="&#x108;" horiz-adv-x="402" 
d="M259 2l108.999 131.998h5v-127c-39.333 -11.333 -76.666 -17 -111.999 -17c-27.333 0 -53.666 7 -78.999 21s-49.166 35.333 -71.499 64s-40.166 68.834 -53.499 120.501s-20 111.5 -20 179.5s6.66699 127.833 20 179.5s31.166 91.834 53.499 120.501
s46.166 50 71.499 64s51.666 21 78.999 21c34 0 71.333 -5.33301 112 -16v-131h-5l-109 136c-42 -17.333 -75.333 -57.5 -100 -120.5s-37 -147.5 -37 -253.5s12.333 -190.333 37 -253s58 -102.667 100 -120zM400.999 785.998l-142 50l-141 -50l-3 6l127 113h36l126 -113z
" />
    <glyph glyph-name="ccircumflex" unicode="&#x109;" horiz-adv-x="355" 
d="M344 570l-129 76l-128 -76l-3 6l114 136h36l113 -136zM327 42l3 -5c-42 -31.333 -84 -47 -126 -47c-14 0 -28 2 -42 6s-29 12 -45 24s-30 27.333 -42 46s-22 44 -30 76s-12 68.667 -12 110c0 84.667 18.333 154.167 55 208.5s82.334 81.5 137.001 81.5
c28.667 0 52.834 -7.16699 72.501 -21.5s29.5 -31.5 29.5 -51.5c0 -14.667 -4.83301 -26.667 -14.5 -36s-21.5 -14 -35.5 -14s-25.667 4.66699 -35 14s-14 21.333 -14 36c0 14 4.66699 25.833 14 35.5s21 14.5 35 14.5c-8.66699 2.66699 -18.334 4 -29.001 4
c-30 0 -55.333 -13.167 -76 -39.5s-35.334 -57.5 -44.001 -93.5s-13 -74.333 -13 -115c0 -72 11.333 -132.167 34 -180.5s57 -72.5 103 -72.5c21.333 0 46.333 6.66699 75 20z" />
    <glyph glyph-name="Cdotaccent" unicode="&#x10a;" horiz-adv-x="402" 
d="M259 805c-15.333 0 -28.166 5.1709 -38.499 15.5039s-15.5 23.166 -15.5 38.499s5.16699 28.166 15.5 38.499s23.166 15.5 38.499 15.5c14.667 0 27.167 -5.33301 37.5 -16s15.5 -23.334 15.5 -38.001s-5.16699 -27.334 -15.5 -38.001s-22.833 -16 -37.5 -16z
M259 2.00391l108.999 131.998h5v-127c-39.333 -11.333 -76.666 -17 -111.999 -17c-27.333 0 -53.666 7 -78.999 21s-49.166 35.333 -71.499 64s-40.166 68.834 -53.499 120.501s-20 111.5 -20 179.5s6.66699 127.833 20 179.5s31.166 91.834 53.499 120.501
s46.166 50 71.499 64s51.666 21 78.999 21c34 0 71.333 -5.33301 112 -16v-131h-5l-109 136c-42 -17.333 -75.333 -57.5 -100 -120.5s-37 -147.5 -37 -253.5s12.333 -190.333 37 -253s58 -102.667 100 -120z" />
    <glyph glyph-name="cdotaccent" unicode="&#x10b;" horiz-adv-x="355" 
d="M327 42l3 -5c-42 -31.333 -84 -47 -126 -47c-14 0 -28 2 -42 6s-29 12 -45 24s-30 27.333 -42 46s-22 44 -30 76s-12 68.667 -12 110c0 84.667 18.333 154.167 55 208.5s82.334 81.5 137.001 81.5c28.667 0 52.834 -7.16699 72.501 -21.5s29.5 -31.5 29.5 -51.5
c0 -14.667 -4.83301 -26.667 -14.5 -36s-21.5 -14 -35.5 -14s-25.667 4.66699 -35 14s-14 21.333 -14 36c0 14 4.66699 25.833 14 35.5s21 14.5 35 14.5c-8.66699 2.66699 -18.334 4 -29.001 4c-30 0 -55.333 -13.167 -76 -39.5s-35.334 -57.5 -44.001 -93.5
s-13 -74.333 -13 -115c0 -72 11.333 -132.167 34 -180.5s57 -72.5 103 -72.5c21.333 0 46.333 6.66699 75 20zM218 602c-15.333 0 -28.166 5.1709 -38.499 15.5039s-15.5 23.166 -15.5 38.499s5.16699 28.166 15.5 38.499s23.166 15.5 38.499 15.5
c14.667 0 27.167 -5.33301 37.5 -16s15.5 -23.334 15.5 -38.001s-5.16699 -27.334 -15.5 -38.001s-22.833 -16 -37.5 -16z" />
    <glyph glyph-name="Ccaron" unicode="&#x10c;" horiz-adv-x="402" 
d="M259 2l108.999 131.998h5v-127c-39.333 -11.333 -76.666 -17 -111.999 -17c-27.333 0 -53.666 7 -78.999 21s-49.166 35.333 -71.499 64s-40.166 68.834 -53.499 120.501s-20 111.5 -20 179.5s6.66699 127.833 20 179.5s31.166 91.834 53.499 120.501
s46.166 50 71.499 64s51.666 21 78.999 21c34 0 71.333 -5.33301 112 -16v-131h-5l-109 136c-42 -17.333 -75.333 -57.5 -100 -120.5s-37 -147.5 -37 -253.5s12.333 -190.333 37 -253s58 -102.667 100 -120zM231.999 795.998l-127 113l3 6l141 -51l142 51l3 -6l-126 -113
h-36z" />
    <glyph glyph-name="ccaron" unicode="&#x10d;" horiz-adv-x="355" 
d="M234 580h-36l-114 136l3 6l128 -77l129 77l3 -6zM327 42l3 -5c-42 -31.333 -84 -47 -126 -47c-14 0 -28 2 -42 6s-29 12 -45 24s-30 27.333 -42 46s-22 44 -30 76s-12 68.667 -12 110c0 84.667 18.333 154.167 55 208.5s82.334 81.5 137.001 81.5
c28.667 0 52.834 -7.16699 72.501 -21.5s29.5 -31.5 29.5 -51.5c0 -14.667 -4.83301 -26.667 -14.5 -36s-21.5 -14 -35.5 -14s-25.667 4.66699 -35 14s-14 21.333 -14 36c0 14 4.66699 25.833 14 35.5s21 14.5 35 14.5c-8.66699 2.66699 -18.334 4 -29.001 4
c-30 0 -55.333 -13.167 -76 -39.5s-35.334 -57.5 -44.001 -93.5s-13 -74.333 -13 -115c0 -72 11.333 -132.167 34 -180.5s57 -72.5 103 -72.5c21.333 0 46.333 6.66699 75 20z" />
    <glyph glyph-name="Dcaron" unicode="&#x10e;" horiz-adv-x="492" 
d="M184 0h-147v6l42 56v626l-42 56v6h147c24.667 0 49 -3.83301 73 -11.5s48.167 -20.667 72.5 -39s45.666 -41.333 63.999 -69s33.166 -63.5 44.499 -107.5s17 -93.333 17 -148s-5.66699 -104 -17 -148s-26.166 -79.833 -44.499 -107.5s-39.666 -50.667 -63.999 -69
s-48.5 -31.333 -72.5 -39s-48.333 -11.5 -73 -11.5zM159 12l27 -0.000976562c51.333 0 94.833 31.333 130.5 94s53.5 152.667 53.5 270c0 116.667 -17.833 206.334 -53.5 269.001s-79.167 94 -130.5 94h-27v-727zM178 795.999l-127 113l3 6l141 -51l142 51l3 -6l-126 -113
h-36z" />
    <glyph glyph-name="dcaron" unicode="&#x10f;" horiz-adv-x="470" 
d="M398 591h-6l12 194h78v-6zM395 0h-118.999v49c-38 -39.333 -71.333 -59 -100 -59c-40.667 0 -74.5 23 -101.5 69s-40.5 115 -40.5 207s13.5 161 40.5 207s60.833 69 101.5 69c27.333 0 60.666 -19.667 99.999 -59v205l-42 56v6h120v-688l41 -56v-6zM276.001 60
l0.000976562 412.001c-22.667 20.667 -44 31 -64 31c-30 0 -53.333 -21.833 -70 -65.5s-25 -100.834 -25 -171.501s8.33301 -128 25 -172s40 -66 70 -66c19.333 0 40.666 10.667 63.999 32z" />
    <glyph glyph-name="Dcroat" unicode="&#x110;" horiz-adv-x="492" 
d="M184 0h-147v6l42 56v317h-60v11h60v298l-42 56v6h147c24.667 0 49 -3.83301 73 -11.5s48.167 -20.667 72.5 -39s45.666 -41.333 63.999 -69s33.166 -63.5 44.499 -107.5s17 -93.333 17 -148s-5.66699 -104 -17 -148s-26.166 -79.833 -44.499 -107.5
s-39.666 -50.667 -63.999 -69s-48.5 -31.333 -72.5 -39s-48.333 -11.5 -73 -11.5zM159 12l27 -0.000976562c51.333 0 94.833 31.333 130.5 94s53.5 152.667 53.5 270c0 116.667 -17.833 206.334 -53.5 269.001s-79.167 94 -130.5 94h-27v-349h85v-11h-85v-367z" />
    <glyph glyph-name="dcroat" unicode="&#x111;" horiz-adv-x="423" 
d="M395 0h-118.999v49c-38 -39.333 -71.333 -59 -100 -59c-40.667 0 -74.5 23 -101.5 69s-40.5 115 -40.5 207s13.5 161 40.5 207s60.833 69 101.5 69c27.333 0 60.666 -19.667 99.999 -59v137h-86v12h86v56l-42 56v6h120v-118h61v-12h-61v-558l41 -56v-6zM276.001 60
l0.000976562 412.001c-22.667 20.667 -44 31 -64 31c-30 0 -53.333 -21.833 -70 -65.5s-25 -100.834 -25 -171.501s8.33301 -128 25 -172s40 -66 70 -66c19.333 0 40.666 10.667 63.999 32z" />
    <glyph glyph-name="Emacron" unicode="&#x112;" horiz-adv-x="396" 
d="M367 0h-330v6l42 56v626l-42 56v6h330v-129h-5l-102 118h-101v-339l168 39h5v-90h-5l-168 40v-377h101l102 117h5v-129zM346 839h-274v46h274v-46z" />
    <glyph glyph-name="emacron" unicode="&#x113;" horiz-adv-x="383" 
d="M327 42l3.00195 -5c-42 -31.333 -84 -47 -126 -47c-18 0 -35.833 3.66699 -53.5 11s-35.834 19.833 -54.501 37.5s-33.834 45 -45.501 82s-17.5 81.167 -17.5 132.5c0 94 15.667 165.667 47 215s68.666 74 111.999 74c44.667 0 82.5 -22 113.5 -66
s45.167 -112.667 42.5 -206h-233c0.666992 -70.667 12.334 -129.667 35.001 -177s56.667 -71 102 -71c21.333 0 46.333 6.66699 75 20zM115.002 282h152.001c0 75.333 -7.33301 135.5 -22 180.5s-32.334 67.5 -53.001 67.5s-38.5 -22.333 -53.5 -67s-22.833 -105 -23.5 -181
zM311.003 627h-242v46h242v-46z" />
    <glyph glyph-name="Ebreve" unicode="&#x114;" horiz-adv-x="396" 
d="M367 0h-330v6l42 56v626l-42 56v6h330v-129h-5l-102 118h-101v-339l168 39h5v-90h-5l-168 40v-377h101l102 117h5v-129zM330 919h8c-10.667 -84.667 -53.667 -127 -129 -127c-76 0 -118.667 42.333 -128 127h7c22 -40.667 62.333 -61 121 -61c60 0 100.333 20.333 121 61
z" />
    <glyph glyph-name="ebreve" unicode="&#x115;" horiz-adv-x="383" 
d="M327 42l3.00195 -5c-42 -31.333 -84 -47 -126 -47c-18 0 -35.833 3.66699 -53.5 11s-35.834 19.833 -54.501 37.5s-33.834 45 -45.501 82s-17.5 81.167 -17.5 132.5c0 94 15.667 165.667 47 215s68.666 74 111.999 74c44.667 0 82.5 -22 113.5 -66
s45.167 -112.667 42.5 -206h-233c0.666992 -70.667 12.334 -129.667 35.001 -177s56.667 -71 102 -71c21.333 0 46.333 6.66699 75 20zM115.002 282h152.001c0 75.333 -7.33301 135.5 -22 180.5s-32.334 67.5 -53.001 67.5s-38.5 -22.333 -53.5 -67s-22.833 -105 -23.5 -181
zM299.003 720h7.99902c-1.33301 -42 -12 -76 -32 -102s-48.333 -39 -85 -39c-37.333 0 -65.833 13 -85.5 39s-30.167 60 -31.5 102h7c6.66699 -25.333 20.334 -45 41.001 -59s43.667 -21 69 -21s48.333 7 69 21s34 33.667 40 59z" />
    <glyph glyph-name="Edotaccent" unicode="&#x116;" horiz-adv-x="396" 
d="M205 805c-15.333 0 -28.166 5.1709 -38.499 15.5039s-15.5 23.166 -15.5 38.499s5.16699 28.166 15.5 38.499s23.166 15.5 38.499 15.5c14.667 0 27.167 -5.33301 37.5 -16s15.5 -23.334 15.5 -38.001s-5.16699 -27.334 -15.5 -38.001s-22.833 -16 -37.5 -16z
M367 0.00390625h-330v6l42 56v626l-42 56v6h330v-129h-5l-102 118h-101v-339l168 39h5v-90h-5l-168 40v-377h101l102 117h5v-129z" />
    <glyph glyph-name="edotaccent" unicode="&#x117;" horiz-adv-x="383" 
d="M327 42l3.00195 -5c-42 -31.333 -84 -47 -126 -47c-18 0 -35.833 3.66699 -53.5 11s-35.834 19.833 -54.501 37.5s-33.834 45 -45.501 82s-17.5 81.167 -17.5 132.5c0 94 15.667 165.667 47 215s68.666 74 111.999 74c44.667 0 82.5 -22 113.5 -66
s45.167 -112.667 42.5 -206h-233c0.666992 -70.667 12.334 -129.667 35.001 -177s56.667 -71 102 -71c21.333 0 46.333 6.66699 75 20zM115.002 282h152.001c0 75.333 -7.33301 135.5 -22 180.5s-32.334 67.5 -53.001 67.5s-38.5 -22.333 -53.5 -67s-22.833 -105 -23.5 -181
zM191.003 602c-15.333 0 -28.166 5.1709 -38.499 15.5039s-15.5 23.166 -15.5 38.499s5.16699 28.166 15.5 38.499s23.166 15.5 38.499 15.5c14.667 0 27.167 -5.33301 37.5 -16s15.5 -23.334 15.5 -38.001s-5.16699 -27.334 -15.5 -38.001s-22.833 -16 -37.5 -16z" />
    <glyph glyph-name="Eogonek" unicode="&#x118;" horiz-adv-x="396" 
d="M304 0h-267v6l42 56v626l-42 56v6h330v-129h-5l-102 118h-101v-339l168 39h5v-90h-5l-168 40v-377h101l102 117h5v-129h-41c-33.333 -38.667 -50 -79.334 -50 -122.001c0 -32 12.333 -48 37 -48c12.667 0 29.334 5.66699 50.001 17l4 -5
c-36.667 -31.333 -70 -47 -100 -47c-18.667 0 -33.334 5.83301 -44.001 17.5s-16 26.167 -16 43.5c0 22.667 8.5 46.834 25.5 72.501s40.833 49.5 71.5 71.5z" />
    <glyph glyph-name="eogonek" unicode="&#x119;" horiz-adv-x="383" 
d="M327 42l3.00195 -4.99805l-23 -16c-22.667 -20.667 -40.334 -44.334 -53.001 -71.001s-19 -50.667 -19 -72c0 -14.667 3.16699 -26.334 9.5 -35.001s15.5 -13 27.5 -13c12.667 0 29.334 5.66699 50.001 17l4 -5c-36.667 -31.333 -70 -47 -100 -47
c-18 0 -32.5 5.83301 -43.5 17.5s-16.5 26.167 -16.5 43.5c0 21.333 8.66699 45 26 71s41 50.333 71 73c-20 -6.66699 -39.667 -10 -59 -10c-18 0 -35.833 3.66699 -53.5 11s-35.834 19.833 -54.501 37.5s-33.834 45 -45.501 82s-17.5 81.167 -17.5 132.5
c0 94 15.667 165.667 47 215s68.666 74 111.999 74c44.667 0 82.5 -22 113.5 -66s45.167 -112.667 42.5 -206h-233c0.666992 -70.667 12.334 -129.667 35.001 -177s56.667 -71 102 -71c21.333 0 46.333 6.66699 75 20zM115.002 282.002h152.001
c0 75.333 -7.33301 135.5 -22 180.5s-32.334 67.5 -53.001 67.5s-38.5 -22.333 -53.5 -67s-22.833 -105 -23.5 -181z" />
    <glyph glyph-name="Ecaron" unicode="&#x11a;" horiz-adv-x="396" 
d="M367 0h-330v6l42 56v626l-42 56v6h330v-129h-5l-102 118h-101v-339l168 39h5v-90h-5l-168 40v-377h101l102 117h5v-129zM185 796l-127 113l3 6l141 -51l142 51l3 -6l-126 -113h-36z" />
    <glyph glyph-name="ecaron" unicode="&#x11b;" horiz-adv-x="383" 
d="M327 42l3.00195 -5c-42 -31.333 -84 -47 -126 -47c-18 0 -35.833 3.66699 -53.5 11s-35.834 19.833 -54.501 37.5s-33.834 45 -45.501 82s-17.5 81.167 -17.5 132.5c0 94 15.667 165.667 47 215s68.666 74 111.999 74c44.667 0 82.5 -22 113.5 -66
s45.167 -112.667 42.5 -206h-233c0.666992 -70.667 12.334 -129.667 35.001 -177s56.667 -71 102 -71c21.333 0 46.333 6.66699 75 20zM115.002 282h152.001c0 75.333 -7.33301 135.5 -22 180.5s-32.334 67.5 -53.001 67.5s-38.5 -22.333 -53.5 -67s-22.833 -105 -23.5 -181
zM208.003 580h-36l-114 136l3 6l128 -77l129 77l3 -6z" />
    <glyph glyph-name="Gcircumflex" unicode="&#x11c;" horiz-adv-x="440" 
d="M386 786l-142 50l-141 -50l-3 6l127 113h36l126 -113zM402 -10h-6l-71 62c-38 -41.333 -75.667 -62 -113 -62c-48 0 -89 28.333 -123 85s-51 150 -51 280c0 71.333 6.66699 134 20 188s31.5 96.167 54.5 126.5s48 53 75 68s55.5 22.5 85.5 22.5
c38 0 73.333 -5.33301 106 -16v-125h-6l-119 130c-40 -16 -71.833 -56.167 -95.5 -120.5s-35.5 -151.5 -35.5 -261.5c0 -104.667 12.167 -186.5 36.5 -245.5s55.833 -88.5 94.5 -88.5c22.667 0 46 10 70 30v215l-41 56v6h119v-350z" />
    <glyph glyph-name="gcircumflex" unicode="&#x11d;" horiz-adv-x="401" 
d="M362 392c0 -46.667 -16.832 -83.334 -50.499 -110.001s-71.167 -40 -112.5 -40c-30.667 0 -58.334 6.66699 -83.001 20c-10 -20.667 -15 -39.667 -15 -57c0 -16.667 4.66699 -29.167 14 -37.5s21.333 -12.5 36 -12.5h100c36.667 0 67.667 -13 93 -39s38 -58.667 38 -98
c0 -54 -19.167 -98.833 -57.5 -134.5s-85.833 -53.5 -142.5 -53.5c-45.333 0 -82.5 10.5 -111.5 31.5s-43.5 46.5 -43.5 76.5c0 52 28.333 100.333 85 145c-35.333 10 -53 33 -53 69c0 34.667 16 73 48 115c-47.333 28.667 -71 70.334 -71 125.001
c0 46.667 17 83.334 51 110.001s71.333 40 112 40c41.333 0 78.833 -13.333 112.5 -40s50.5 -63.334 50.5 -110.001zM230.001 79l-80.001 -0.000976562c-12.667 0 -21.667 0.666992 -27 2c-18.667 -33.333 -28 -70.666 -28 -111.999c0 -34.667 8.83301 -63.5 26.5 -86.5
s45.834 -34.5 84.501 -34.5c35.333 0 64.333 10.167 87 30.5s34 50.5 34 90.5c0 34.667 -8.5 61.667 -25.5 81s-40.833 29 -71.5 29zM199 252.999c54.667 0 82 46.333 82 139c0 92 -27.333 138 -82 138s-82 -46 -82 -138c0 -92.667 27.333 -139 82 -139zM329 569.999
l-129 76l-128 -76l-3 6l114 136h36l113 -136z" />
    <glyph glyph-name="Gbreve" unicode="&#x11e;" horiz-adv-x="440" 
d="M402 -10h-6l-71 62c-38 -41.333 -75.667 -62 -113 -62c-48 0 -89 28.333 -123 85s-51 150 -51 280c0 71.333 6.66699 134 20 188s31.5 96.167 54.5 126.5s48 53 75 68s55.5 22.5 85.5 22.5c38 0 73.333 -5.33301 106 -16v-125h-6l-119 130
c-40 -16 -71.833 -56.167 -95.5 -120.5s-35.5 -151.5 -35.5 -261.5c0 -104.667 12.167 -186.5 36.5 -245.5s55.833 -88.5 94.5 -88.5c22.667 0 46 10 70 30v215l-41 56v6h119v-350zM371 919h8c-10.667 -84.667 -53.667 -127 -129 -127c-76 0 -118.667 42.333 -128 127h7
c22 -40.667 62.333 -61 121 -61c60 0 100.333 20.333 121 61z" />
    <glyph glyph-name="gbreve" unicode="&#x11f;" horiz-adv-x="401" 
d="M362 392c0 -46.667 -16.832 -83.334 -50.499 -110.001s-71.167 -40 -112.5 -40c-30.667 0 -58.334 6.66699 -83.001 20c-10 -20.667 -15 -39.667 -15 -57c0 -16.667 4.66699 -29.167 14 -37.5s21.333 -12.5 36 -12.5h100c36.667 0 67.667 -13 93 -39s38 -58.667 38 -98
c0 -54 -19.167 -98.833 -57.5 -134.5s-85.833 -53.5 -142.5 -53.5c-45.333 0 -82.5 10.5 -111.5 31.5s-43.5 46.5 -43.5 76.5c0 52 28.333 100.333 85 145c-35.333 10 -53 33 -53 69c0 34.667 16 73 48 115c-47.333 28.667 -71 70.334 -71 125.001
c0 46.667 17 83.334 51 110.001s71.333 40 112 40c41.333 0 78.833 -13.333 112.5 -40s50.5 -63.334 50.5 -110.001zM230.001 79l-80.001 -0.000976562c-12.667 0 -21.667 0.666992 -27 2c-18.667 -33.333 -28 -70.666 -28 -111.999c0 -34.667 8.83301 -63.5 26.5 -86.5
s45.834 -34.5 84.501 -34.5c35.333 0 64.333 10.167 87 30.5s34 50.5 34 90.5c0 34.667 -8.5 61.667 -25.5 81s-40.833 29 -71.5 29zM199 252.999c54.667 0 82 46.333 82 139c0 92 -27.333 138 -82 138s-82 -46 -82 -138c0 -92.667 27.333 -139 82 -139zM310 719.999
h7.99902c-1.33301 -42 -12 -76 -32 -102s-48.333 -39 -85 -39c-37.333 0 -65.833 13 -85.5 39s-30.167 60 -31.5 102h7c6.66699 -25.333 20.334 -45 41.001 -59s43.667 -21 69 -21s48.333 7 69 21s34 33.667 40 59z" />
    <glyph glyph-name="Gdotaccent" unicode="&#x120;" horiz-adv-x="440" 
d="M254 805c-15.333 0 -28.166 5.1709 -38.499 15.5039s-15.5 23.166 -15.5 38.499s5.16699 28.166 15.5 38.499s23.166 15.5 38.499 15.5c14.667 0 27.167 -5.33301 37.5 -16s15.5 -23.334 15.5 -38.001s-5.16699 -27.334 -15.5 -38.001s-22.833 -16 -37.5 -16z
M402 -9.99609h-6l-71 62c-38 -41.333 -75.667 -62 -113 -62c-48 0 -89 28.333 -123 85s-51 150 -51 280c0 71.333 6.66699 134 20 188s31.5 96.167 54.5 126.5s48 53 75 68s55.5 22.5 85.5 22.5c38 0 73.333 -5.33301 106 -16v-125h-6l-119 130
c-40 -16 -71.833 -56.167 -95.5 -120.5s-35.5 -151.5 -35.5 -261.5c0 -104.667 12.167 -186.5 36.5 -245.5s55.833 -88.5 94.5 -88.5c22.667 0 46 10 70 30v215l-41 56v6h119v-350z" />
    <glyph glyph-name="gdotaccent" unicode="&#x121;" horiz-adv-x="401" 
d="M362 392c0 -46.667 -16.832 -83.334 -50.499 -110.001s-71.167 -40 -112.5 -40c-30.667 0 -58.334 6.66699 -83.001 20c-10 -20.667 -15 -39.667 -15 -57c0 -16.667 4.66699 -29.167 14 -37.5s21.333 -12.5 36 -12.5h100c36.667 0 67.667 -13 93 -39s38 -58.667 38 -98
c0 -54 -19.167 -98.833 -57.5 -134.5s-85.833 -53.5 -142.5 -53.5c-45.333 0 -82.5 10.5 -111.5 31.5s-43.5 46.5 -43.5 76.5c0 52 28.333 100.333 85 145c-35.333 10 -53 33 -53 69c0 34.667 16 73 48 115c-47.333 28.667 -71 70.334 -71 125.001
c0 46.667 17 83.334 51 110.001s71.333 40 112 40c41.333 0 78.833 -13.333 112.5 -40s50.5 -63.334 50.5 -110.001zM230.001 79l-80.001 -0.000976562c-12.667 0 -21.667 0.666992 -27 2c-18.667 -33.333 -28 -70.666 -28 -111.999c0 -34.667 8.83301 -63.5 26.5 -86.5
s45.834 -34.5 84.501 -34.5c35.333 0 64.333 10.167 87 30.5s34 50.5 34 90.5c0 34.667 -8.5 61.667 -25.5 81s-40.833 29 -71.5 29zM199 252.999c54.667 0 82 46.333 82 139c0 92 -27.333 138 -82 138s-82 -46 -82 -138c0 -92.667 27.333 -139 82 -139zM201 601.999
c-15.333 0 -28.166 5.1709 -38.499 15.5039s-15.5 23.166 -15.5 38.499s5.16699 28.166 15.5 38.499s23.166 15.5 38.499 15.5c14.667 0 27.167 -5.33301 37.5 -16s15.5 -23.334 15.5 -38.001s-5.16699 -27.334 -15.5 -38.001s-22.833 -16 -37.5 -16z" />
    <glyph glyph-name="Gcommaaccent" unicode="&#x122;" horiz-adv-x="440" 
d="M212 -233h-6l12 182h85v-6zM402 -10h-6l-71 62c-38 -41.333 -75.667 -62 -113 -62c-48 0 -89 28.333 -123 85s-51 150 -51 280c0 71.333 6.66699 134 20 188s31.5 96.167 54.5 126.5s48 53 75 68s55.5 22.5 85.5 22.5c38 0 73.333 -5.33301 106 -16v-125h-6l-119 130
c-40 -16 -71.833 -56.167 -95.5 -120.5s-35.5 -151.5 -35.5 -261.5c0 -104.667 12.167 -186.5 36.5 -245.5s55.833 -88.5 94.5 -88.5c22.667 0 46 10 70 30v215l-41 56v6h119v-350z" />
    <glyph glyph-name="gcommaaccent" unicode="&#x123;" horiz-adv-x="401" 
d="M362 392c0 -46.667 -16.832 -83.334 -50.499 -110.001s-71.167 -40 -112.5 -40c-30.667 0 -58.334 6.66699 -83.001 20c-10 -20.667 -15 -39.667 -15 -57c0 -16.667 4.66699 -29.167 14 -37.5s21.333 -12.5 36 -12.5h100c36.667 0 67.667 -13 93 -39s38 -58.667 38 -98
c0 -54 -19.167 -98.833 -57.5 -134.5s-85.833 -53.5 -142.5 -53.5c-45.333 0 -82.5 10.5 -111.5 31.5s-43.5 46.5 -43.5 76.5c0 52 28.333 100.333 85 145c-35.333 10 -53 33 -53 69c0 34.667 16 73 48 115c-47.333 28.667 -71 70.334 -71 125.001
c0 46.667 17 83.334 51 110.001s71.333 40 112 40c41.333 0 78.833 -13.333 112.5 -40s50.5 -63.334 50.5 -110.001zM230.001 79l-80.001 -0.000976562c-12.667 0 -21.667 0.666992 -27 2c-18.667 -33.333 -28 -70.666 -28 -111.999c0 -34.667 8.83301 -63.5 26.5 -86.5
s45.834 -34.5 84.501 -34.5c35.333 0 64.333 10.167 87 30.5s34 50.5 34 90.5c0 34.667 -8.5 61.667 -25.5 81s-40.833 29 -71.5 29zM199 252.999c54.667 0 82 46.333 82 139c0 92 -27.333 138 -82 138s-82 -46 -82 -138c0 -92.667 27.333 -139 82 -139zM239 752.999h6
l-12 -182h-85v6z" />
    <glyph glyph-name="Hcircumflex" unicode="&#x124;" horiz-adv-x="522" 
d="M485 0h-162v6l40 56v327h-204v-327l40 -56v-6h-162v6l42 56v626l-42 56v6h162v-6l-40 -56v-288h204v288l-40 56v6h162v-6l-42 -56v-626l42 -56v-6zM402 786l-142 50l-141 -50l-3 6l127 113h36l126 -113z" />
    <glyph glyph-name="hcircumflex" unicode="&#x125;" 
d="M417 0h-117.999v411c0 59.333 -22.333 89 -67 89c-26.667 0 -55 -11 -85 -33v-405l40 -56v-6h-158v6l40 56v626l-40 56v6h118v-271c53.333 42 99.666 63 138.999 63c60.667 0 91 -39.333 91 -118v-362l40 -56v-6zM242.001 776l-142 50l-141 -50l-3 6l127 113h36l126 -113
z" />
    <glyph glyph-name="Hbar" unicode="&#x126;" horiz-adv-x="522" 
d="M485 0h-162v6l40 56v327h-204v-327l40 -56v-6h-162v6l42 56v491h-43v12h43v123l-42 56v6h162v-6l-40 -56v-123h204v123l-40 56v6h162v-6l-42 -56v-123h43v-12h-43v-491l42 -56v-6zM159 400h204v153h-204v-153z" />
    <glyph glyph-name="hbar" unicode="&#x127;" 
d="M417 0h-117.999v411c0 59.333 -22.333 89 -67 89c-26.667 0 -55 -11 -85 -33v-405l40 -56v-6h-158v6l40 56v558h-66v12h66v56l-40 56v6h118v-118h81v-12h-81v-141c53.333 42 99.666 63 138.999 63c60.667 0 91 -39.333 91 -118v-362l40 -56v-6z" />
    <glyph glyph-name="Itilde" unicode="&#x128;" horiz-adv-x="238" 
d="M201 0h-164v6l42 56v626l-42 56v6h164v-6l-42 -56v-626l42 -56v-6zM259 905l6.00098 -2c-16.667 -68.667 -46.334 -103 -89.001 -103c-16 0 -39.5 8.33301 -70.5 25s-51.5 25 -61.5 25c-26 0 -47 -15.333 -63 -46l-6 2c16.667 69.333 46.667 104 90 104
c15.333 0 38.5 -8.33301 69.5 -25s51.833 -25 62.5 -25c26 0 46.667 15 62 45z" />
    <glyph glyph-name="itilde" unicode="&#x129;" horiz-adv-x="216" 
d="M188 0h-159v6l40 56v407l-40 57v6h118v-470l41 -56v-6zM244 697l6 -3c-16.667 -70 -44.667 -105 -84 -105c-16.667 0 -39.167 9 -67.5 27s-47.166 27 -56.499 27c-23.333 0 -43 -16.667 -59 -50l-6 2c16.667 70.667 45 106 85 106c16 0 38.167 -9 66.5 -27
s47.5 -27 57.5 -27c23.333 0 42.666 16.667 57.999 50z" />
    <glyph glyph-name="Imacron" unicode="&#x12a;" horiz-adv-x="238" 
d="M201 0h-164v6l42 56v626l-42 56v6h164v-6l-42 -56v-626l42 -56v-6zM256 839h-274v46h274v-46z" />
    <glyph glyph-name="imacron" unicode="&#x12b;" horiz-adv-x="216" 
d="M188 0h-159v6l40 56v407l-40 57v6h118v-470l41 -56v-6zM224 627h-242v46h242v-46z" />
    <glyph glyph-name="Ibreve" unicode="&#x12c;" horiz-adv-x="238" 
d="M201 0h-164v6l42 56v626l-42 56v6h164v-6l-42 -56v-626l42 -56v-6zM240 919h8c-10.667 -84.667 -53.667 -127 -129 -127c-76 0 -118.667 42.333 -128 127h7c22 -40.667 62.333 -61 121 -61c60 0 100.333 20.333 121 61z" />
    <glyph glyph-name="ibreve" unicode="&#x12d;" horiz-adv-x="216" 
d="M188 0h-159v6l40 56v407l-40 57v6h118v-470l41 -56v-6zM214 720h7.99902c-1.33301 -42 -12 -76 -32 -102s-48.333 -39 -85 -39c-37.333 0 -65.833 13 -85.5 39s-30.167 60 -31.5 102h7c6.66699 -25.333 20.334 -45 41.001 -59s43.667 -21 69 -21s48.333 7 69 21
s34 33.667 40 59z" />
    <glyph glyph-name="Iogonek" unicode="&#x12e;" horiz-adv-x="238" 
d="M197 -153l4 -5c-36.667 -31.333 -70 -47 -100 -47c-18.667 0 -33.334 5.83301 -44.001 17.5s-16 26.167 -16 43.5c0 22.667 8.5 46.834 25.5 72.501s40.833 49.5 71.5 71.5h-101v6l42 56v626l-42 56v6h164v-6l-42 -56v-626l42 -56v-6h-41
c-33.333 -38.667 -50 -79.334 -50 -122.001c0 -32 12.333 -48 37 -48c12.667 0 29.334 5.66699 50.001 17z" />
    <glyph glyph-name="iogonek" unicode="&#x12f;" horiz-adv-x="216" 
d="M182 -153l4 -5c-36.667 -31.333 -70 -47 -100 -47c-18.667 0 -33.334 5.83301 -44.001 17.5s-16 26.167 -16 43.5c0 22.667 8.5 46.834 25.5 72.501s40.833 49.5 71.5 71.5h-94v6l40 56v407l-40 57v6h118v-470l41 -56v-6h-43c-33.333 -38.667 -50 -79.334 -50 -122.001
c0 -32 12.333 -48 37 -48c12.667 0 29.334 5.66699 50.001 17zM108 602c-14.667 0 -27.167 5.1709 -37.5 15.5039s-15.5 23.166 -15.5 38.499s5.16699 28.166 15.5 38.499s22.833 15.5 37.5 15.5s27.334 -5.33301 38.001 -16s16 -23.334 16 -38.001
s-5.33301 -27.334 -16 -38.001s-23.334 -16 -38.001 -16z" />
    <glyph glyph-name="Idotaccent" unicode="&#x130;" horiz-adv-x="238" 
d="M201 0h-164v6l42 56v626l-42 56v6h164v-6l-42 -56v-626l42 -56v-6zM119 805c-15.333 0 -28.166 5.1709 -38.499 15.5039s-15.5 23.166 -15.5 38.499s5.16699 28.166 15.5 38.499s23.166 15.5 38.499 15.5c14.667 0 27.167 -5.33301 37.5 -16s15.5 -23.334 15.5 -38.001
s-5.16699 -27.334 -15.5 -38.001s-22.833 -16 -37.5 -16z" />
    <glyph glyph-name="dotlessi" unicode="&#x131;" horiz-adv-x="216" 
d="M188 0h-159v6l40 56v407l-40 57v6h118v-470l41 -56v-6z" />
    <glyph glyph-name="IJ" unicode="&#x132;" horiz-adv-x="566" 
d="M201 0h-164v6l42 56v626l-42 56v6h164v-6l-42 -56v-626l42 -56v-6zM409 151v536.999l-42 56v6h164v-6l-42 -56v-527c0 -55.333 -14.667 -97.666 -44 -126.999s-63 -44 -101 -44c-32.667 0 -64.667 5.66699 -96 17v124h5l100 -129c37.333 23.333 56 73 56 149z" />
    <glyph glyph-name="ij" unicode="&#x133;" horiz-adv-x="423" 
d="M108 602c-14.667 0 -27.167 5.1709 -37.5 15.5039s-15.5 23.166 -15.5 38.499s5.16699 28.166 15.5 38.499s22.833 15.5 37.5 15.5s27.334 -5.33301 38.001 -16s16 -23.334 16 -38.001s-5.33301 -27.334 -16 -38.001s-23.334 -16 -38.001 -16zM188 0.00390625h-159v6
l40 56v407l-40 57v6h118v-470l41 -56v-6zM285 8.00391l0.000976562 461.001l-41 57v6h119v-524c0 -118.667 -31 -178 -93 -178c-14.667 0 -26.834 4.66699 -36.501 14s-14.5 21 -14.5 35c0 14.667 4.66699 26.667 14 36s21 14 35 14c14.667 0 26.667 -4.66699 36 -14
s14 -21.333 14 -36c0 -10.667 -2.66699 -19.667 -8 -27c14 13.333 21 32.333 21 57c0 18 -4.16699 36.167 -12.5 54.5s-19.5 33.166 -33.5 44.499zM324.001 602.005c-14.667 0 -27.167 5.1709 -37.5 15.5039s-15.5 23.166 -15.5 38.499s5.16699 28.166 15.5 38.499
s22.833 15.5 37.5 15.5s27.334 -5.33301 38.001 -16s16 -23.334 16 -38.001s-5.33301 -27.334 -16 -38.001s-23.334 -16 -38.001 -16z" />
    <glyph glyph-name="Jcircumflex" unicode="&#x134;" horiz-adv-x="337" 
d="M180 151v536.999l-42 56v6h164v-6l-42 -56v-527c0 -55.333 -14.667 -97.666 -44 -126.999s-63 -44 -101 -44c-32.667 0 -64.667 5.66699 -96 17v124h5l100 -129c37.333 23.333 56 73 56 149zM362 785.999l-142 50l-141 -50l-3 6l127 113h36l126 -113z" />
    <glyph glyph-name="jcircumflex" unicode="&#x135;" horiz-adv-x="206" 
d="M69 8l0.000976562 461.001l-41 57v6h119v-524c0 -118.667 -31 -178 -93 -178c-14.667 0 -26.834 4.66699 -36.501 14s-14.5 21 -14.5 35c0 14.667 4.66699 26.667 14 36s21 14 35 14c14.667 0 26.667 -4.66699 36 -14s14 -21.333 14 -36
c0 -10.667 -2.66699 -19.667 -8 -27c14 13.333 21 32.333 21 57c0 18 -4.16699 36.167 -12.5 54.5s-19.5 33.166 -33.5 44.499zM230.001 570.001l-129 76l-128 -76l-3 6l114 136h36l113 -136z" />
    <glyph glyph-name="Kcommaaccent" unicode="&#x136;" horiz-adv-x="462" 
d="M193 -233h-6l12 182h85v-6zM445 0h-84.002c-23.333 51.333 -44.666 114 -63.999 188s-32.666 144.667 -39.999 212h-98v-338l40 -56v-6h-162v6l42 56v626l-42 56v6h162v-6l-40 -56v-276h96l67 243l-26 89v6h117v-6l-78 -89l-67 -243h66c18 -150 55 -285.333 111 -406v-6z
" />
    <glyph glyph-name="kcommaaccent" unicode="&#x137;" horiz-adv-x="404" 
d="M187 0l-158 0.000976562v6l40 56v626l-40 56v6h118v-438h71l46 116l-8 98v6h108v-6l-86 -98l-46 -116h72c4.66699 -44 14 -95.833 28 -155.5s29.333 -109.834 46 -150.501v-6h-82c-14 38.667 -27.333 87.667 -40 147s-21.667 110.333 -27 153h-82v-238l40 -56v-6z
M161 -232.999h-6l12 182h85v-6z" />
    <glyph glyph-name="Lacute" unicode="&#x139;" horiz-adv-x="377" 
d="M270 864l-215 -78l-4 6l155 130h6l58 -52v-6zM359 0h-322v6l42 56v626l-42 56v6h165v-6l-43 -56v-676h93l101 121h6v-133z" />
    <glyph glyph-name="lacute" unicode="&#x13a;" horiz-adv-x="216" 
d="M253 854l-215 -78l-4 6l155 130h6l58 -52v-6zM188 0h-159v6l40 56v626l-40 56v6h118v-688l41 -56v-6z" />
    <glyph glyph-name="Lcommaaccent" unicode="&#x13b;" horiz-adv-x="377" 
d="M151 -233h-6l12 182h85v-6zM359 0h-322v6l42 56v626l-42 56v6h165v-6l-43 -56v-676h93l101 121h6v-133z" />
    <glyph glyph-name="lcommaaccent" unicode="&#x13c;" horiz-adv-x="216" 
d="M61 -233h-6l12 182h85v-6zM188 0h-159v6l40 56v626l-40 56v6h118v-688l41 -56v-6z" />
    <glyph glyph-name="Lcaron" unicode="&#x13d;" horiz-adv-x="377" 
d="M231 591h-6l12 194h78v-6zM359 0h-322v6l42 56v626l-42 56v6h165v-6l-43 -56v-676h93l101 121h6v-133z" />
    <glyph glyph-name="lcaron" unicode="&#x13e;" horiz-adv-x="263" 
d="M191 591h-6l12 194h78v-6zM188 0h-159v6l40 56v626l-40 56v6h118v-688l41 -56v-6z" />
    <glyph glyph-name="Ldot" unicode="&#x13f;" horiz-adv-x="377" 
d="M359 0h-322v6l42 56v626l-42 56v6h165v-6l-43 -56v-676h93l101 121h6v-133z" />
    <glyph glyph-name="ldot" unicode="&#x140;" horiz-adv-x="231" 
d="M188 0h-159v6l40 56v626l-40 56v6h118v-688l41 -56v-6zM223 333c-15.333 0 -28.166 5.1709 -38.499 15.5039s-15.5 23.166 -15.5 38.499s5.16699 28.166 15.5 38.499s23.166 15.5 38.499 15.5c14.667 0 27.167 -5.33301 37.5 -16s15.5 -23.334 15.5 -38.001
s-5.16699 -27.334 -15.5 -38.001s-22.833 -16 -37.5 -16z" />
    <glyph glyph-name="Lslash" unicode="&#x141;" horiz-adv-x="377" 
d="M359 0h-322v6l42 56v299l-79 -24v12l79 25v314l-42 56v6h165v-6l-43 -56v-289l119 38v-13l-119 -38v-374h93l101 121h6v-133z" />
    <glyph glyph-name="lslash" unicode="&#x142;" horiz-adv-x="216" 
d="M188 0h-159v6l40 56v296l-69 -21v12l69 21v318l-40 56v6h118v-355l69 22v-12l-69 -22v-321l41 -56v-6z" />
    <glyph glyph-name="Nacute" unicode="&#x143;" horiz-adv-x="471" 
d="M367 864l-215 -78l-4 6l155 130h6l58 -52v-6zM401 0h-23l-278 613h-4v-509l53 -98v-6h-120v6l53 98v544l-45 96v6h91l255 -567h4v463l-53 98v6h119v-6l-52 -98v-646z" />
    <glyph glyph-name="nacute" unicode="&#x144;" 
d="M311 670l-176 -104l-4 6l135 154h6l39 -50v-6zM417 0h-117.999v411c0 59.333 -22.333 89 -67 89c-26.667 0 -55 -11 -85 -33v-405l40 -56v-6h-158v6l40 56v407l-40 57v6h118v-53c53.333 42 99.666 63 138.999 63c60.667 0 91 -39.333 91 -118v-362l40 -56v-6z" />
    <glyph glyph-name="Ncommaaccent" unicode="&#x145;" horiz-adv-x="471" 
d="M202 -233h-6l12 182h85v-6zM401 0h-23l-278 613h-4v-509l53 -98v-6h-120v6l53 98v544l-45 96v6h91l255 -567h4v463l-53 98v6h119v-6l-52 -98v-646z" />
    <glyph glyph-name="ncommaaccent" unicode="&#x146;" 
d="M184 -233h-6l12 182h85v-6zM417 0h-117.999v411c0 59.333 -22.333 89 -67 89c-26.667 0 -55 -11 -85 -33v-405l40 -56v-6h-158v6l40 56v407l-40 57v6h118v-53c53.333 42 99.666 63 138.999 63c60.667 0 91 -39.333 91 -118v-362l40 -56v-6z" />
    <glyph glyph-name="Ncaron" unicode="&#x147;" horiz-adv-x="471" 
d="M401 0h-23l-278 613h-4v-509l53 -98v-6h-120v6l53 98v544l-45 96v6h91l255 -567h4v463l-53 98v6h119v-6l-52 -98v-646zM223 796l-127 113l3 6l141 -51l142 51l3 -6l-126 -113h-36z" />
    <glyph glyph-name="ncaron" unicode="&#x148;" 
d="M232 580h-36l-114 136l3 6l128 -77l129 77l3 -6zM417 0h-117.999v411c0 59.333 -22.333 89 -67 89c-26.667 0 -55 -11 -85 -33v-405l40 -56v-6h-158v6l40 56v407l-40 57v6h118v-53c53.333 42 99.666 63 138.999 63c60.667 0 91 -39.333 91 -118v-362l40 -56v-6z" />
    <glyph glyph-name="Eng" unicode="&#x14a;" horiz-adv-x="471" 
d="M250 -112l-3 7.00098c31.333 18 52.5 39.167 63.5 63.5s16.5 59.166 16.5 104.499v45l-229 508h-4v-512l55 -98v-6h-120v6l53 98v544l-45 96v6h91l257 -570h4v466l-55 98v6h119v-6l-52 -98v-573c0 -54 -12 -93.833 -36 -119.5s-62.333 -47.5 -115 -65.5z" />
    <glyph glyph-name="eng" unicode="&#x14b;" 
d="M233 -170l-2.99902 7c30 17.333 49 37.5 57 60.5s12 59.167 12 108.5v405c0 59.333 -22.333 89 -67 89c-26.667 0 -55 -11 -85 -33v-405l40 -56v-6h-158v6l40 56v407l-40 57v6h118v-53c53.333 42 99.666 63 138.999 63c60.667 0 91 -39.333 91 -118v-409
c0 -54.667 -11 -94.5 -33 -119.5s-59 -46.833 -111 -65.5z" />
    <glyph glyph-name="Omacron" unicode="&#x14c;" horiz-adv-x="482" 
d="M241 -10c-55.333 0 -103.166 31.335 -143.499 94.002s-60.5 159.667 -60.5 291s20.167 228.333 60.5 291s88.166 94 143.499 94c20 0 39.333 -4.16699 58 -12.5s37 -22.166 55 -41.499s33.667 -43.333 47 -72s24 -65.334 32 -110.001s12 -94.334 12 -149.001
s-4 -104.334 -12 -149.001s-18.667 -81.334 -32 -110.001s-29 -52.667 -47 -72s-36.333 -33.166 -55 -41.499s-38 -12.5 -58 -12.5zM241 2.00195c38 0 67.167 31.667 87.5 95s30.5 156 30.5 278c0 122.667 -10.167 215.667 -30.5 279s-49.5 95 -87.5 95
s-67.333 -31.667 -88 -95s-31 -156.333 -31 -279s10.167 -215.5 30.5 -278.5s49.833 -94.5 88.5 -94.5zM378 839.002h-274v46h274v-46z" />
    <glyph glyph-name="omacron" unicode="&#x14d;" horiz-adv-x="415" 
d="M328 627h-242v46h242v-46zM207 -10c-50.667 0 -92.334 23.833 -125.001 71.5s-49 115.834 -49 204.501s16.333 156.834 49 204.501s74.334 71.5 125.001 71.5s92.5 -23.833 125.5 -71.5s49.5 -115.834 49.5 -204.501s-16.333 -156.834 -49 -204.501
s-74.667 -71.5 -126 -71.5zM207 2c26 0 47.833 23.6689 65.5 71.002s26.5 111.666 26.5 192.999s-8.83301 145.666 -26.5 192.999s-39.5 71 -65.5 71s-47.667 -23.5 -65 -70.5s-26 -111.5 -26 -193.5s8.66699 -146.5 26 -193.5s39 -70.5 65 -70.5z" />
    <glyph glyph-name="Obreve" unicode="&#x14e;" horiz-adv-x="482" 
d="M241 -10c-55.333 0 -103.166 31.335 -143.499 94.002s-60.5 159.667 -60.5 291s20.167 228.333 60.5 291s88.166 94 143.499 94c20 0 39.333 -4.16699 58 -12.5s37 -22.166 55 -41.499s33.667 -43.333 47 -72s24 -65.334 32 -110.001s12 -94.334 12 -149.001
s-4 -104.334 -12 -149.001s-18.667 -81.334 -32 -110.001s-29 -52.667 -47 -72s-36.333 -33.166 -55 -41.499s-38 -12.5 -58 -12.5zM241 2.00195c38 0 67.167 31.667 87.5 95s30.5 156 30.5 278c0 122.667 -10.167 215.667 -30.5 279s-49.5 95 -87.5 95
s-67.333 -31.667 -88 -95s-31 -156.333 -31 -279s10.167 -215.5 30.5 -278.5s49.833 -94.5 88.5 -94.5zM361 919.002h8c-10.667 -84.667 -53.667 -127 -129 -127c-76 0 -118.667 42.333 -128 127h7c22 -40.667 62.333 -61 121 -61c60 0 100.333 20.333 121 61z" />
    <glyph glyph-name="obreve" unicode="&#x14f;" horiz-adv-x="415" 
d="M207 -10c-50.667 0 -92.334 23.833 -125.001 71.5s-49 115.834 -49 204.501s16.333 156.834 49 204.501s74.334 71.5 125.001 71.5s92.5 -23.833 125.5 -71.5s49.5 -115.834 49.5 -204.501s-16.333 -156.834 -49 -204.501s-74.667 -71.5 -126 -71.5zM207 2
c26 0 47.833 23.6689 65.5 71.002s26.5 111.666 26.5 192.999s-8.83301 145.666 -26.5 192.999s-39.5 71 -65.5 71s-47.667 -23.5 -65 -70.5s-26 -111.5 -26 -193.5s8.66699 -146.5 26 -193.5s39 -70.5 65 -70.5zM316 720.002h7.99902c-1.33301 -42 -12 -76 -32 -102
s-48.333 -39 -85 -39c-37.333 0 -65.833 13 -85.5 39s-30.167 60 -31.5 102h7c6.66699 -25.333 20.334 -45 41.001 -59s43.667 -21 69 -21s48.333 7 69 21s34 33.667 40 59z" />
    <glyph glyph-name="Ohungarumlaut" unicode="&#x150;" horiz-adv-x="482" 
d="M291 873l-170 -87l-5 5l112 131h6l57 -43v-6zM414 873l-170 -87l-4 5l112 131h6l56 -43v-6zM241 -10c-55.333 0 -103.166 31.335 -143.499 94.002s-60.5 159.667 -60.5 291s20.167 228.333 60.5 291s88.166 94 143.499 94c20 0 39.333 -4.16699 58 -12.5
s37 -22.166 55 -41.499s33.667 -43.333 47 -72s24 -65.334 32 -110.001s12 -94.334 12 -149.001s-4 -104.334 -12 -149.001s-18.667 -81.334 -32 -110.001s-29 -52.667 -47 -72s-36.333 -33.166 -55 -41.499s-38 -12.5 -58 -12.5zM241 2.00195c38 0 67.167 31.667 87.5 95
s30.5 156 30.5 278c0 122.667 -10.167 215.667 -30.5 279s-49.5 95 -87.5 95s-67.333 -31.667 -88 -95s-31 -156.333 -31 -279s10.167 -215.5 30.5 -278.5s49.833 -94.5 88.5 -94.5z" />
    <glyph glyph-name="ohungarumlaut" unicode="&#x151;" horiz-adv-x="415" 
d="M256 686l-149 -120l-4 5l89 155h6l58 -34v-6zM370 686l-148 -120l-5 5l89 155h6l58 -34v-6zM207 -10c-50.667 0 -92.334 23.833 -125.001 71.5s-49 115.834 -49 204.501s16.333 156.834 49 204.501s74.334 71.5 125.001 71.5s92.5 -23.833 125.5 -71.5
s49.5 -115.834 49.5 -204.501s-16.333 -156.834 -49 -204.501s-74.667 -71.5 -126 -71.5zM207 2c26 0 47.833 23.6689 65.5 71.002s26.5 111.666 26.5 192.999s-8.83301 145.666 -26.5 192.999s-39.5 71 -65.5 71s-47.667 -23.5 -65 -70.5s-26 -111.5 -26 -193.5
s8.66699 -146.5 26 -193.5s39 -70.5 65 -70.5z" />
    <glyph glyph-name="OE" unicode="&#x152;" horiz-adv-x="650" 
d="M622 0h-314c-24.667 -0 -49 3.83301 -73 11.5s-48.167 20.667 -72.5 39s-45.666 41.333 -63.999 69s-33.166 63.5 -44.499 107.5s-17 93.333 -17 148s5.66699 104 17 148s26.166 79.833 44.499 107.5s39.666 50.667 63.999 69s48.5 31.333 72.5 39s48.333 11.5 73 11.5
h314v-129h-6l-102 118h-101v-339l168 39h6v-90h-6l-168 40v-377h101l102 117h6v-129zM333 12v727.001h-27c-51.333 0 -94.833 -31.333 -130.5 -94s-53.5 -152.334 -53.5 -269.001c0 -117.333 17.833 -207.333 53.5 -270s79.167 -94 130.5 -94h27z" />
    <glyph glyph-name="oe" unicode="&#x153;" horiz-adv-x="649" 
d="M594 42l3.00195 -5.00195c-40.667 -31.333 -82.667 -47 -126 -47c-56.667 0 -100.334 29.333 -131.001 88c-31.333 -58.667 -75.333 -88 -132 -88c-50.667 0 -92.334 23.833 -125.001 71.5s-49 115.834 -49 204.501s16.333 156.834 49 204.501s74.334 71.5 125.001 71.5
c57.333 0 101.666 -30 132.999 -90c29.333 60 68.666 90 117.999 90c45.333 0 83.333 -22 114 -66s44.667 -112.667 42 -206h-233c0.666992 -70.667 12.334 -129.667 35.001 -177s56.667 -71 102 -71c21.333 0 46.333 6.66699 75 20zM208.002 1.99805
c26 0 47.833 23.667 65.5 71s26.5 111.666 26.5 192.999s-8.83301 145.666 -26.5 192.999s-39.5 71 -65.5 71s-47.833 -23.667 -65.5 -71s-26.5 -111.666 -26.5 -192.999s8.83301 -145.666 26.5 -192.999s39.5 -71 65.5 -71zM382.002 281.998h151.999
c0 75.333 -7.16699 135.5 -21.5 180.5s-32.166 67.5 -53.499 67.5c-20.667 0 -38.5 -22.333 -53.5 -67s-22.833 -105 -23.5 -181z" />
    <glyph glyph-name="Racute" unicode="&#x154;" horiz-adv-x="453" 
d="M436 0l-82.998 -0.000976562c-22.667 47.333 -43.667 105.833 -63 175.5s-33.333 132.834 -42 189.501c-16.667 -3.33301 -37.334 -5 -62.001 -5h-27v-298l40 -56v-6h-162v6l42 56v626l-42 56v6h147c66.667 0 121.667 -16.5 165 -49.5s65 -81.5 65 -145.5
c0 -49.333 -13.333 -89.5 -40 -120.5s-62.334 -52.5 -107.001 -64.5h59c22 -132.667 58.667 -254 110 -364v-6zM159.002 371.999l27 -0.000976562c46 0 81.667 16.333 107 49s38 77.334 38 134.001s-12.667 101.5 -38 134.5s-61 49.5 -107 49.5h-27v-367zM323.002 863.998
l-215 -78l-4 6l155 130h6l58 -52v-6z" />
    <glyph glyph-name="racute" unicode="&#x155;" horiz-adv-x="308" 
d="M276 670l-176 -104l-4 6l135 154h6l39 -50v-6zM189 0l-160 -0.000976562v6l40 56v407l-40 57v6h118v-56c28 24.667 53.167 41.834 75.5 51.501s47.5 14.167 75.5 13.5v-137h-6l-84 81c-24 -2 -44.333 -9 -61 -21v-402l42 -56v-6z" />
    <glyph glyph-name="Rcommaaccent" unicode="&#x156;" horiz-adv-x="453" 
d="M436 0l-82.998 -0.000976562c-22.667 47.333 -43.667 105.833 -63 175.5s-33.333 132.834 -42 189.501c-16.667 -3.33301 -37.334 -5 -62.001 -5h-27v-298l40 -56v-6h-162v6l42 56v626l-42 56v6h147c66.667 0 121.667 -16.5 165 -49.5s65 -81.5 65 -145.5
c0 -49.333 -13.333 -89.5 -40 -120.5s-62.334 -52.5 -107.001 -64.5h59c22 -132.667 58.667 -254 110 -364v-6zM159.002 371.999l27 -0.000976562c46 0 81.667 16.333 107 49s38 77.334 38 134.001s-12.667 101.5 -38 134.5s-61 49.5 -107 49.5h-27v-367zM181.002 -233.002
h-6l12 182h85v-6z" />
    <glyph glyph-name="rcommaaccent" unicode="&#x157;" horiz-adv-x="308" 
d="M60 -233h-6l12 182h85v-6zM189 0l-160 -0.000976562v6l40 56v407l-40 57v6h118v-56c28 24.667 53.167 41.834 75.5 51.501s47.5 14.167 75.5 13.5v-137h-6l-84 81c-24 -2 -44.333 -9 -61 -21v-402l42 -56v-6z" />
    <glyph glyph-name="Rcaron" unicode="&#x158;" horiz-adv-x="453" 
d="M436 0l-82.998 -0.000976562c-22.667 47.333 -43.667 105.833 -63 175.5s-33.333 132.834 -42 189.501c-16.667 -3.33301 -37.334 -5 -62.001 -5h-27v-298l40 -56v-6h-162v6l42 56v626l-42 56v6h147c66.667 0 121.667 -16.5 165 -49.5s65 -81.5 65 -145.5
c0 -49.333 -13.333 -89.5 -40 -120.5s-62.334 -52.5 -107.001 -64.5h59c22 -132.667 58.667 -254 110 -364v-6zM159.002 371.999l27 -0.000976562c46 0 81.667 16.333 107 49s38 77.334 38 134.001s-12.667 101.5 -38 134.5s-61 49.5 -107 49.5h-27v-367zM190.002 795.998
l-127 113l3 6l141 -51l142 51l3 -6l-126 -113h-36z" />
    <glyph glyph-name="rcaron" unicode="&#x159;" horiz-adv-x="308" 
d="M186 580h-36l-114 136l3 6l128 -77l129 77l3 -6zM189 0l-160 -0.000976562v6l40 56v407l-40 57v6h118v-56c28 24.667 53.167 41.834 75.5 51.501s47.5 14.167 75.5 13.5v-137h-6l-84 81c-24 -2 -44.333 -9 -61 -21v-402l42 -56v-6z" />
    <glyph glyph-name="Sacute" unicode="&#x15a;" horiz-adv-x="355" 
d="M31 7l-0.00195312 126.998h6l118 -132c72 12 108 52.667 108 122c0 30.667 -8 62.334 -24 95.001s-35.5 63.167 -58.5 91.5l-69 86c-23 29 -42.5 60.167 -58.5 93.5s-24 66 -24 98c0 52.667 16.333 94.5 49 125.5s72.334 46.5 119.001 46.5
c34.667 0 72.334 -5.33301 113.001 -16v-128h-6l-108 133c-30 -6 -53.833 -19.5 -71.5 -40.5s-26.5 -48.5 -26.5 -82.5c0 -27.333 8 -56.166 24 -86.499s35.5 -59.5 58.5 -87.5l69 -86c23 -29.333 42.5 -61.833 58.5 -97.5s24 -71.167 24 -106.5
c0 -53.333 -17 -95.333 -51 -126s-76.667 -46 -128 -46c-42 0 -82.667 5.66699 -122 17zM298.998 863.998l-215 -78l-4 6l155 130h6l58 -52v-6z" />
    <glyph glyph-name="sacute" unicode="&#x15b;" horiz-adv-x="348" 
d="M267 670l-176 -104l-4 6l135 154h6l39 -50v-6zM293 525l0.000976562 -118h-6l-107 123c-26 -0.666992 -45.5 -8.83398 -58.5 -24.501s-19.5 -35.167 -19.5 -58.5c0 -22.667 7.33301 -44.334 22 -65.001s32.5 -39.167 53.5 -55.5l63 -50.5
c21 -17.333 38.833 -38.166 53.5 -62.499s22 -50.5 22 -78.5c0 -44.667 -16.5 -80 -49.5 -106s-71.167 -39 -114.5 -39c-34.667 0 -72 5.66699 -112 17v119h6l107 -124c28.667 0.666992 51.5 9.33398 68.5 26.001s25.5 39.667 25.5 69c0 24.667 -7.33301 47.667 -22 69
s-32.5 40.5 -53.5 57.5l-63 51c-21 17 -38.833 37.167 -53.5 60.5s-22 48.333 -22 75c0 38 14.5 69.5 43.5 94.5s63.833 37.5 104.5 37.5c31.333 0 68.666 -5.66699 111.999 -17z" />
    <glyph glyph-name="Scircumflex" unicode="&#x15c;" horiz-adv-x="355" 
d="M31 7l-0.00195312 126.998h6l118 -132c72 12 108 52.667 108 122c0 30.667 -8 62.334 -24 95.001s-35.5 63.167 -58.5 91.5l-69 86c-23 29 -42.5 60.167 -58.5 93.5s-24 66 -24 98c0 52.667 16.333 94.5 49 125.5s72.334 46.5 119.001 46.5
c34.667 0 72.334 -5.33301 113.001 -16v-128h-6l-108 133c-30 -6 -53.833 -19.5 -71.5 -40.5s-26.5 -48.5 -26.5 -82.5c0 -27.333 8 -56.166 24 -86.499s35.5 -59.5 58.5 -87.5l69 -86c23 -29.333 42.5 -61.833 58.5 -97.5s24 -71.167 24 -106.5
c0 -53.333 -17 -95.333 -51 -126s-76.667 -46 -128 -46c-42 0 -82.667 5.66699 -122 17zM324.998 785.998l-142 50l-141 -50l-3 6l127 113h36l126 -113z" />
    <glyph glyph-name="scircumflex" unicode="&#x15d;" horiz-adv-x="348" 
d="M296 570l-129 76l-128 -76l-3 6l114 136h36l113 -136zM293 525l0.000976562 -118h-6l-107 123c-26 -0.666992 -45.5 -8.83398 -58.5 -24.501s-19.5 -35.167 -19.5 -58.5c0 -22.667 7.33301 -44.334 22 -65.001s32.5 -39.167 53.5 -55.5l63 -50.5
c21 -17.333 38.833 -38.166 53.5 -62.499s22 -50.5 22 -78.5c0 -44.667 -16.5 -80 -49.5 -106s-71.167 -39 -114.5 -39c-34.667 0 -72 5.66699 -112 17v119h6l107 -124c28.667 0.666992 51.5 9.33398 68.5 26.001s25.5 39.667 25.5 69c0 24.667 -7.33301 47.667 -22 69
s-32.5 40.5 -53.5 57.5l-63 51c-21 17 -38.833 37.167 -53.5 60.5s-22 48.333 -22 75c0 38 14.5 69.5 43.5 94.5s63.833 37.5 104.5 37.5c31.333 0 68.666 -5.66699 111.999 -17z" />
    <glyph glyph-name="Scedilla" unicode="&#x15e;" horiz-adv-x="355" 
d="M126 -205l-2.00195 6.99707c42 12.667 63 30.667 63 54s-20.333 40.333 -61 51l-2 6l61 80c-10 -2 -20.667 -3 -32 -3c-42 0 -82.667 5.66699 -122 17v127h6l118 -132c72 12 108 52.667 108 122c0 30.667 -8 62.334 -24 95.001s-35.5 63.167 -58.5 91.5l-69 86
c-23 29 -42.5 60.167 -58.5 93.5s-24 66 -24 98c0 52.667 16.333 94.5 49 125.5s72.334 46.5 119.001 46.5c34.667 0 72.334 -5.33301 113.001 -16v-128h-6l-108 133c-30 -6 -53.833 -19.5 -71.5 -40.5s-26.5 -48.5 -26.5 -82.5c0 -27.333 8 -56.166 24 -86.499
s35.5 -59.5 58.5 -87.5l69 -86c23 -29.333 42.5 -61.833 58.5 -97.5s24 -71.167 24 -106.5c0 -44 -11.833 -80.5 -35.5 -109.5s-54.834 -47.833 -93.501 -56.5l-31 -40c22.667 -5.33301 41.834 -15.166 57.501 -29.499s23.5 -30.833 23.5 -49.5
c0 -44 -42.333 -71.333 -127 -82z" />
    <glyph glyph-name="scedilla" unicode="&#x15f;" horiz-adv-x="348" 
d="M293 525v-118.003h-6l-107 123c-26 -0.666992 -45.5 -8.83398 -58.5 -24.501s-19.5 -35.167 -19.5 -58.5c0 -22.667 7.33301 -44.334 22 -65.001s32.5 -39.167 53.5 -55.5l63 -50.5c21 -17.333 38.833 -38.166 53.5 -62.499s22 -50.5 22 -78.5
c0 -37.333 -11.5 -68.166 -34.5 -92.499s-52.167 -40.166 -87.5 -47.499l-30 -39c22.667 -5.33301 41.834 -15.166 57.501 -29.499s23.5 -30.833 23.5 -49.5c0 -44 -42.333 -71.333 -127 -82l-1 7c41.333 12.667 62 30.667 62 54s-20.333 40.333 -61 51l-2 6l61 79
c-12 -1.33301 -20.333 -2 -25 -2c-34.667 0 -72 5.66699 -112 17v119h6l107 -124c28.667 0.666992 51.5 9.33398 68.5 26.001s25.5 39.667 25.5 69c0 24.667 -7.33301 47.667 -22 69s-32.5 40.5 -53.5 57.5l-63 51c-21 17 -38.833 37.167 -53.5 60.5s-22 48.333 -22 75
c0 38 14.5 69.5 43.5 94.5s63.833 37.5 104.5 37.5c31.333 0 68.666 -5.66699 111.999 -17z" />
    <glyph glyph-name="Scaron" unicode="&#x160;" horiz-adv-x="355" 
d="M31 7l-0.00195312 126.998h6l118 -132c72 12 108 52.667 108 122c0 30.667 -8 62.334 -24 95.001s-35.5 63.167 -58.5 91.5l-69 86c-23 29 -42.5 60.167 -58.5 93.5s-24 66 -24 98c0 52.667 16.333 94.5 49 125.5s72.334 46.5 119.001 46.5
c34.667 0 72.334 -5.33301 113.001 -16v-128h-6l-108 133c-30 -6 -53.833 -19.5 -71.5 -40.5s-26.5 -48.5 -26.5 -82.5c0 -27.333 8 -56.166 24 -86.499s35.5 -59.5 58.5 -87.5l69 -86c23 -29.333 42.5 -61.833 58.5 -97.5s24 -71.167 24 -106.5
c0 -53.333 -17 -95.333 -51 -126s-76.667 -46 -128 -46c-42 0 -82.667 5.66699 -122 17zM156.998 795.998l-127 113l3 6l141 -51l142 51l3 -6l-126 -113h-36z" />
    <glyph glyph-name="scaron" unicode="&#x161;" horiz-adv-x="348" 
d="M186 580h-36l-114 136l3 6l128 -77l129 77l3 -6zM293 525l0.000976562 -118h-6l-107 123c-26 -0.666992 -45.5 -8.83398 -58.5 -24.501s-19.5 -35.167 -19.5 -58.5c0 -22.667 7.33301 -44.334 22 -65.001s32.5 -39.167 53.5 -55.5l63 -50.5
c21 -17.333 38.833 -38.166 53.5 -62.499s22 -50.5 22 -78.5c0 -44.667 -16.5 -80 -49.5 -106s-71.167 -39 -114.5 -39c-34.667 0 -72 5.66699 -112 17v119h6l107 -124c28.667 0.666992 51.5 9.33398 68.5 26.001s25.5 39.667 25.5 69c0 24.667 -7.33301 47.667 -22 69
s-32.5 40.5 -53.5 57.5l-63 51c-21 17 -38.833 37.167 -53.5 60.5s-22 48.333 -22 75c0 38 14.5 69.5 43.5 94.5s63.833 37.5 104.5 37.5c31.333 0 68.666 -5.66699 111.999 -17z" />
    <glyph glyph-name="uni0162" unicode="&#x162;" horiz-adv-x="460" 
d="M168 -205l-2.00098 6.99902c42 12.667 63 30.667 63 54s-20.333 40.333 -61 51l-2 6l67 87h-86v6l43 56v677h-67l-97 -122h-6v133h420v-133h-6l-97 122h-67v-677l43 -56v-6h-65l-34 -44c22.667 -5.33301 41.834 -15.166 57.501 -29.499s23.5 -30.833 23.5 -49.5
c0 -44 -42.333 -71.333 -127 -82z" />
    <glyph glyph-name="uni0163" unicode="&#x163;" horiz-adv-x="289" 
d="M88 -205l-2.00195 6.99902c42 12.667 63 30.667 63 54s-20.333 40.333 -61 51l-2 6l60 78c-48.667 8.66699 -73 46.667 -73 114v415h-51v12h51l72 176h6v-176h110v-12h-110v-396c0 -68.667 23.333 -103 70 -103c14.667 0 30.334 3.66699 47.001 11l3 -7
c-38 -23.333 -73.333 -35 -106 -35h-5l-26 -34c22.667 -5.33301 41.834 -15.166 57.501 -29.499s23.5 -30.833 23.5 -49.5c0 -44 -42.333 -71.333 -127 -82z" />
    <glyph glyph-name="Tcaron" unicode="&#x164;" horiz-adv-x="460" 
d="M313 0h-166v6l43 56v677h-67l-97 -122h-6v133h420v-133h-6l-97 122h-67v-677l43 -56v-6zM213 796l-127 113l3 6l141 -51l142 51l3 -6l-126 -113h-36z" />
    <glyph glyph-name="tcaron" unicode="&#x165;" horiz-adv-x="293" 
d="M194 591h-6l12 194h78v-6zM268 32l2.99902 -7c-38 -23.333 -73.333 -35 -106 -35c-61.333 0 -92 38.333 -92 115v415h-51v12h51l72 176h6v-176h110v-12h-110v-396c0 -68.667 23.333 -103 70 -103c14.667 0 30.334 3.66699 47.001 11z" />
    <glyph glyph-name="Tbar" unicode="&#x166;" horiz-adv-x="460" 
d="M313 0h-166v6l43 56v312h-97v12h97v353h-67l-97 -122h-6v133h420v-133h-6l-97 122h-67v-353h97v-12h-97v-312l43 -56v-6z" />
    <glyph glyph-name="tbar" unicode="&#x167;" horiz-adv-x="289" 
d="M268 32l2.99902 -7c-38 -23.333 -73.333 -35 -106 -35c-61.333 0 -92 38.333 -92 115v212h-47v12h47v191h-51v12h51l72 176h6v-176h110v-12h-110v-191h114v-12h-114v-193c0 -68.667 23.333 -103 70 -103c14.667 0 30.334 3.66699 47.001 11z" />
    <glyph glyph-name="Utilde" unicode="&#x168;" horiz-adv-x="503" 
d="M410 210v436l-53 98v6h119v-6l-52 -98v-436c0 -146.667 -57 -220 -171 -220c-116 0 -174 73.333 -174 220v478l-42 56v6h164v-6l-42 -56v-478c0 -66.667 10 -116.5 30 -149.5s52.333 -49.5 97 -49.5c40.667 0 71.5 17.333 92.5 52s31.5 83.667 31.5 147zM398 905
l6.00098 -2c-16.667 -68.667 -46.334 -103 -89.001 -103c-16 0 -39.5 8.33301 -70.5 25s-51.5 25 -61.5 25c-26 0 -47 -15.333 -63 -46l-6 2c16.667 69.333 46.667 104 90 104c15.333 0 38.5 -8.33301 69.5 -25s51.833 -25 62.5 -25c26 0 46.667 15 62 45z" />
    <glyph glyph-name="utilde" unicode="&#x169;" 
d="M417 0h-118v53c-52 -42 -98.333 -63 -139 -63c-60.667 0 -91 39.333 -91 118v361l-40 57v6h118v-411c0 -60 22 -90 66 -90c25.333 0 54 11 86 33v405l-40 57v6h118v-470l40 -56v-6zM353 697l6 -3c-16.667 -70 -44.667 -105 -84 -105c-16.667 0 -39.167 9 -67.5 27
s-47.166 27 -56.499 27c-23.333 0 -43 -16.667 -59 -50l-6 2c16.667 70.667 45 106 85 106c16 0 38.167 -9 66.5 -27s47.5 -27 57.5 -27c23.333 0 42.666 16.667 57.999 50z" />
    <glyph glyph-name="Umacron" unicode="&#x16a;" horiz-adv-x="503" 
d="M410 210v436l-53 98v6h119v-6l-52 -98v-436c0 -146.667 -57 -220 -171 -220c-116 0 -174 73.333 -174 220v478l-42 56v6h164v-6l-42 -56v-478c0 -66.667 10 -116.5 30 -149.5s52.333 -49.5 97 -49.5c40.667 0 71.5 17.333 92.5 52s31.5 83.667 31.5 147zM395 839h-274v46
h274v-46z" />
    <glyph glyph-name="umacron" unicode="&#x16b;" 
d="M417 0h-118v53c-52 -42 -98.333 -63 -139 -63c-60.667 0 -91 39.333 -91 118v361l-40 57v6h118v-411c0 -60 22 -90 66 -90c25.333 0 54 11 86 33v405l-40 57v6h118v-470l40 -56v-6zM333 627h-242v46h242v-46z" />
    <glyph glyph-name="Ubreve" unicode="&#x16c;" horiz-adv-x="503" 
d="M410 210v436l-53 98v6h119v-6l-52 -98v-436c0 -146.667 -57 -220 -171 -220c-116 0 -174 73.333 -174 220v478l-42 56v6h164v-6l-42 -56v-478c0 -66.667 10 -116.5 30 -149.5s52.333 -49.5 97 -49.5c40.667 0 71.5 17.333 92.5 52s31.5 83.667 31.5 147zM383 919h8
c-10.667 -84.667 -53.667 -127 -129 -127c-76 0 -118.667 42.333 -128 127h7c22 -40.667 62.333 -61 121 -61c60 0 100.333 20.333 121 61z" />
    <glyph glyph-name="ubreve" unicode="&#x16d;" 
d="M417 0h-118v53c-52 -42 -98.333 -63 -139 -63c-60.667 0 -91 39.333 -91 118v361l-40 57v6h118v-411c0 -60 22 -90 66 -90c25.333 0 54 11 86 33v405l-40 57v6h118v-470l40 -56v-6zM321 720h7.99902c-1.33301 -42 -12 -76 -32 -102s-48.333 -39 -85 -39
c-37.333 0 -65.833 13 -85.5 39s-30.167 60 -31.5 102h7c6.66699 -25.333 20.334 -45 41.001 -59s43.667 -21 69 -21s48.333 7 69 21s34 33.667 40 59z" />
    <glyph glyph-name="Uring" unicode="&#x16e;" horiz-adv-x="503" 
d="M362 856c0 -21.333 -9.33301 -39 -28 -53s-43.334 -21 -74.001 -21s-55.167 7 -73.5 21s-27.5 31.667 -27.5 53c0 22 9.16699 39.833 27.5 53.5s42.833 20.5 73.5 20.5s55.334 -6.83301 74.001 -20.5s28 -31.5 28 -53.5zM260 794c15.333 0 27 5.66797 35 17.001
s12 26.333 12 45c0 19.333 -4 34.666 -12 45.999s-19.667 17 -35 17c-30.667 0 -46 -21 -46 -63c0 -18.667 4 -33.667 12 -45s19.333 -17 34 -17zM410 210.001v436l-53 98v6h119v-6l-52 -98v-436c0 -146.667 -57 -220 -171 -220c-116 0 -174 73.333 -174 220v478l-42 56v6
h164v-6l-42 -56v-478c0 -66.667 10 -116.5 30 -149.5s52.333 -49.5 97 -49.5c40.667 0 71.5 17.333 92.5 52s31.5 83.667 31.5 147z" />
    <glyph glyph-name="uring" unicode="&#x16f;" 
d="M302 662c0 -22.667 -8.16699 -41.667 -24.5 -57s-38.5 -23 -66.5 -23s-50 7.66699 -66 23s-24 34.333 -24 57c0 22 8 40.667 24 56s38 23 66 23s50.167 -7.66699 66.5 -23s24.5 -34 24.5 -56zM211 594c12.667 0 22.334 6.5 29.001 19.5s10 29.167 10 48.5
s-3.33301 35.333 -10 48s-16.334 19 -29.001 19s-22.167 -6.33301 -28.5 -19s-9.5 -28.667 -9.5 -48s3.16699 -35.5 9.5 -48.5s15.833 -19.5 28.5 -19.5zM417 0h-118v53c-52 -42 -98.333 -63 -139 -63c-60.667 0 -91 39.333 -91 118v361l-40 57v6h118v-411
c0 -60 22 -90 66 -90c25.333 0 54 11 86 33v405l-40 57v6h118v-470l40 -56v-6z" />
    <glyph glyph-name="Uhungarumlaut" unicode="&#x170;" horiz-adv-x="503" 
d="M309 873l-170 -87l-5 5l112 131h6l57 -43v-6zM432 873l-170 -87l-4 5l112 131h6l56 -43v-6zM410 210v436l-53 98v6h119v-6l-52 -98v-436c0 -146.667 -57 -220 -171 -220c-116 0 -174 73.333 -174 220v478l-42 56v6h164v-6l-42 -56v-478c0 -66.667 10 -116.5 30 -149.5
s52.333 -49.5 97 -49.5c40.667 0 71.5 17.333 92.5 52s31.5 83.667 31.5 147z" />
    <glyph glyph-name="uhungarumlaut" unicode="&#x171;" 
d="M417 0h-118v53c-52 -42 -98.333 -63 -139 -63c-60.667 0 -91 39.333 -91 118v361l-40 57v6h118v-411c0 -60 22 -90 66 -90c25.333 0 54 11 86 33v405l-40 57v6h118v-470l40 -56v-6zM262 686l-149 -120l-4 5l89 155h6l58 -34v-6zM376 686l-148 -120l-5 5l89 155h6l58 -34
v-6z" />
    <glyph glyph-name="Uogonek" unicode="&#x172;" horiz-adv-x="503" 
d="M410 210v436l-53 98v6h119v-6l-52 -98v-436c0 -94.667 -23.333 -158.667 -70 -192c-21.333 -20 -37.833 -42.833 -49.5 -68.5s-17.5 -49.5 -17.5 -71.5c0 -32 12.333 -48 37 -48c12.667 0 29.334 5.66699 50.001 17l4 -5c-36.667 -31.333 -70 -47 -100 -47
c-18.667 0 -33.334 5.83301 -44.001 17.5s-16 26.167 -16 43.5c0 22 8 45.667 24 71s39 49 69 71c-18 -5.33301 -37.333 -8 -58 -8c-116 0 -174 73.333 -174 220v478l-42 56v6h164v-6l-42 -56v-478c0 -66.667 10 -116.5 30 -149.5s52.333 -49.5 97 -49.5
c40.667 0 71.5 17.333 92.5 52s31.5 83.667 31.5 147z" />
    <glyph glyph-name="uogonek" unicode="&#x173;" 
d="M354 0h-55v53c-52 -42 -98.333 -63 -139 -63c-60.667 0 -91 39.333 -91 118v361l-40 57v6h118v-411c0 -60 22 -90 66 -90c25.333 0 54 11 86 33v405l-40 57v6h118v-470l40 -56v-6h-41c-33.333 -38.667 -50 -79.334 -50 -122.001c0 -32 12.333 -48 37 -48
c12.667 0 29.334 5.66699 50.001 17l4 -5c-36.667 -31.333 -70 -47 -100 -47c-18.667 0 -33.334 5.83301 -44.001 17.5s-16 26.167 -16 43.5c0 22.667 8.5 46.834 25.5 72.501s40.833 49.5 71.5 71.5z" />
    <glyph glyph-name="Wcircumflex" unicode="&#x174;" horiz-adv-x="719" 
d="M501 786l-142 50l-141 -50l-3 6l127 113h36l126 -113zM538 0h-79l-101 528h-2l-92 -528h-78l-126 688l-43 56v6h162v-6l-30 -56l108 -642h2l91 522l-22 120l-41 56v6h160v-6l-30 -56l112 -642h2l95 600l-40 98v6h115v-6l-61 -98z" />
    <glyph glyph-name="wcircumflex" unicode="&#x175;" horiz-adv-x="575" 
d="M415 570l-129 76l-128 -76l-3 6l114 136h36l113 -136zM512 428l-75 -428h-77l-74 338h-3l-66 -338h-77l-96 469l-43 57v6h158v-6l-29 -57l80 -430h2l65 334l-35 153v6h119v-6l-18 -65l86 -422h2l68 389l-42 98v6h117v-6z" />
    <glyph glyph-name="Ycircumflex" unicode="&#x176;" horiz-adv-x="450" 
d="M310 0h-164v6l42 56v198l-124 428l-45 56v6h162v-6l-28 -56l107 -393h2l91 351l-37 98v6h115v-6l-65 -98l-98 -386v-198l42 -56v-6zM367 786l-142 50l-141 -50l-3 6l127 113h36l126 -113z" />
    <glyph glyph-name="ycircumflex" unicode="&#x177;" horiz-adv-x="374" 
d="M204 0h-50l-110 469l-43 57v6h160v-6l-31 -57l90 -416c6.66699 24.667 10.667 41 12 49l65 326l-40 98v6h116v-6l-63 -98l-64 -326c-14.667 -78.667 -38.334 -143.667 -71.001 -195s-68.667 -77 -108 -77c-18 0 -32.333 5 -43 15s-16 22.667 -16 38s5 28 15 38
s22.667 15 38 15s28 -5 38 -15s15 -22.667 15 -38c0 -9.33301 -1.66699 -18 -5 -26c36.667 21.333 68.334 69 95.001 143zM325 570l-129 76l-128 -76l-3 6l114 136h36l113 -136z" />
    <glyph glyph-name="Ydieresis" unicode="&#x178;" horiz-adv-x="450" 
d="M310 0h-164v6l42 56v198l-124 428l-45 56v6h162v-6l-28 -56l107 -393h2l91 351l-37 98v6h115v-6l-65 -98l-98 -386v-198l42 -56v-6zM157 809c-14 0 -25.667 4.66699 -35 14s-14 21 -14 35c0 13.333 4.66699 24.666 14 33.999s21 14 35 14
c13.333 0 24.666 -4.66699 33.999 -14s14 -20.666 14 -33.999c0 -14 -4.66699 -25.667 -14 -35s-20.666 -14 -33.999 -14zM294 809c-14 0 -25.5 4.66699 -34.5 14s-13.5 21 -13.5 35c0 13.333 4.5 24.666 13.5 33.999s20.5 14 34.5 14s25.667 -4.66699 35 -14
s14 -20.666 14 -33.999c0 -14 -4.66699 -25.667 -14 -35s-21 -14 -35 -14z" />
    <glyph glyph-name="Zacute" unicode="&#x179;" horiz-adv-x="366" 
d="M338 0h-309v10l224 729h-116l-101 -128h-6v139h308v-10l-224 -728h117l101 127h6v-139zM312 864l-215 -78l-4 6l155 130h6l58 -52v-6z" />
    <glyph glyph-name="zacute" unicode="&#x17a;" horiz-adv-x="333" 
d="M282 670l-176 -104l-4 6l135 154h6l39 -50v-6zM305 0h-285v10l199 510h-86l-97 -117h-6v129h275v-10l-200 -510h97l97 117h6v-129z" />
    <glyph glyph-name="Zdotaccent" unicode="&#x17b;" horiz-adv-x="366" 
d="M182 805c-15.333 0 -28.166 5.1709 -38.499 15.5039s-15.5 23.166 -15.5 38.499s5.16699 28.166 15.5 38.499s23.166 15.5 38.499 15.5c14.667 0 27.167 -5.33301 37.5 -16s15.5 -23.334 15.5 -38.001s-5.16699 -27.334 -15.5 -38.001s-22.833 -16 -37.5 -16z
M338 0.00390625h-309v10l224 729h-116l-101 -128h-6v139h308v-10l-224 -728h117l101 127h6v-139z" />
    <glyph glyph-name="zdotaccent" unicode="&#x17c;" horiz-adv-x="333" 
d="M305 0h-285v10l199 510h-86l-97 -117h-6v129h275v-10l-200 -510h97l97 117h6v-129zM164 602c-15.333 0 -28.166 5.1709 -38.499 15.5039s-15.5 23.166 -15.5 38.499s5.16699 28.166 15.5 38.499s23.166 15.5 38.499 15.5c14.667 0 27.167 -5.33301 37.5 -16
s15.5 -23.334 15.5 -38.001s-5.16699 -27.334 -15.5 -38.001s-22.833 -16 -37.5 -16z" />
    <glyph glyph-name="Zcaron" unicode="&#x17d;" horiz-adv-x="366" 
d="M338 0h-309v10l224 729h-116l-101 -128h-6v139h308v-10l-224 -728h117l101 127h6v-139zM169 796l-127 113l3 6l141 -51l142 51l3 -6l-126 -113h-36z" />
    <glyph glyph-name="zcaron" unicode="&#x17e;" horiz-adv-x="333" 
d="M183 580h-36l-114 136l3 6l128 -77l129 77l3 -6zM305 0h-285v10l199 510h-86l-97 -117h-6v129h275v-10l-200 -510h97l97 117h6v-129z" />
    <glyph glyph-name="longs" unicode="&#x17f;" horiz-adv-x="235" 
d="M198 0h-160.999v6l40 56v470c0 152 34 228 102 228c15.333 0 28.166 -5 38.499 -15s15.5 -22.667 15.5 -38s-5.16699 -28 -15.5 -38s-22.833 -15 -37.5 -15s-27.167 5.16699 -37.5 15.5s-15.5 22.833 -15.5 37.5c0 8.66699 1.66699 16.334 5 23.001
c-14.667 -20 -22 -47.333 -22 -82c0 -23.333 4 -45.833 12 -67.5s19 -37.834 33 -48.501v-470l43 -56v-6z" />
    <glyph glyph-name="florin" unicode="&#x192;" horiz-adv-x="483" 
d="M423 381v-12.001h-140v-142c0 -77.333 -13.5 -136.166 -40.5 -176.499s-64.5 -60.5 -112.5 -60.5c-33.333 0 -70 5.66699 -110 17v130h6l104 -135c29.333 15.333 48.333 40.333 57 75s13 84.667 13 150v142h-140v12h140v143c0 76.667 13.5 135.167 40.5 175.5
s64.833 60.5 113.5 60.5c32 0 68.333 -5.33301 109 -16v-131h-5l-105 136c-28.667 -15.333 -47.5 -40.5 -56.5 -75.5s-13.5 -84.833 -13.5 -149.5v-143h140z" />
    <glyph glyph-name="uni0218" unicode="&#x218;" horiz-adv-x="355" 
d="M129 -233h-6l12 182h85v-6zM31 7l-0.00195312 126.998h6l118 -132c72 12 108 52.667 108 122c0 30.667 -8 62.334 -24 95.001s-35.5 63.167 -58.5 91.5l-69 86c-23 29 -42.5 60.167 -58.5 93.5s-24 66 -24 98c0 52.667 16.333 94.5 49 125.5s72.334 46.5 119.001 46.5
c34.667 0 72.334 -5.33301 113.001 -16v-128h-6l-108 133c-30 -6 -53.833 -19.5 -71.5 -40.5s-26.5 -48.5 -26.5 -82.5c0 -27.333 8 -56.166 24 -86.499s35.5 -59.5 58.5 -87.5l69 -86c23 -29.333 42.5 -61.833 58.5 -97.5s24 -71.167 24 -106.5
c0 -53.333 -17 -95.333 -51 -126s-76.667 -46 -128 -46c-42 0 -82.667 5.66699 -122 17z" />
    <glyph glyph-name="uni0219" unicode="&#x219;" horiz-adv-x="348" 
d="M124 -233h-6l12 182h85v-6zM293 525l0.000976562 -118h-6l-107 123c-26 -0.666992 -45.5 -8.83398 -58.5 -24.501s-19.5 -35.167 -19.5 -58.5c0 -22.667 7.33301 -44.334 22 -65.001s32.5 -39.167 53.5 -55.5l63 -50.5c21 -17.333 38.833 -38.166 53.5 -62.499
s22 -50.5 22 -78.5c0 -44.667 -16.5 -80 -49.5 -106s-71.167 -39 -114.5 -39c-34.667 0 -72 5.66699 -112 17v119h6l107 -124c28.667 0.666992 51.5 9.33398 68.5 26.001s25.5 39.667 25.5 69c0 24.667 -7.33301 47.667 -22 69s-32.5 40.5 -53.5 57.5l-63 51
c-21 17 -38.833 37.167 -53.5 60.5s-22 48.333 -22 75c0 38 14.5 69.5 43.5 94.5s63.833 37.5 104.5 37.5c31.333 0 68.666 -5.66699 111.999 -17z" />
    <glyph glyph-name="uni021A" unicode="&#x21a;" horiz-adv-x="460" 
d="M183 -233h-6l12 182h85v-6zM313 0h-166v6l43 56v677h-67l-97 -122h-6v133h420v-133h-6l-97 122h-67v-677l43 -56v-6z" />
    <glyph glyph-name="uni021B" unicode="&#x21b;" horiz-adv-x="289" 
d="M99 -233h-6l12 182h85v-6zM268 32l2.99902 -7c-38 -23.333 -73.333 -35 -106 -35c-61.333 0 -92 38.333 -92 115v415h-51v12h51l72 176h6v-176h110v-12h-110v-396c0 -68.667 23.333 -103 70 -103c14.667 0 30.334 3.66699 47.001 11z" />
    <glyph glyph-name="circumflex" unicode="&#x2c6;" horiz-adv-x="363" 
d="M310 570l-129 76l-128 -76l-3 6l114 136h36l113 -136z" />
    <glyph glyph-name="caron" unicode="&#x2c7;" horiz-adv-x="363" 
d="M200 580h-36l-114 136l3 6l128 -77l129 77l3 -6z" />
    <glyph glyph-name="breve" unicode="&#x2d8;" horiz-adv-x="334" 
d="M276 720h7.99902c-1.33301 -42 -12 -76 -32 -102s-48.333 -39 -85 -39c-37.333 0 -65.833 13 -85.5 39s-30.167 60 -31.5 102h7c6.66699 -25.333 20.334 -45 41.001 -59s43.667 -21 69 -21s48.333 7 69 21s34 33.667 40 59z" />
    <glyph glyph-name="dotaccent" unicode="&#x2d9;" horiz-adv-x="207" 
d="M104 602c-15.333 0 -28.166 5.1709 -38.499 15.5039s-15.5 23.166 -15.5 38.499s5.16699 28.166 15.5 38.499s23.166 15.5 38.499 15.5c14.667 0 27.167 -5.33301 37.5 -16s15.5 -23.334 15.5 -38.001s-5.16699 -27.334 -15.5 -38.001s-22.833 -16 -37.5 -16z" />
    <glyph glyph-name="ring" unicode="&#x2da;" horiz-adv-x="281" 
d="M231 662c0 -22.667 -8.16699 -41.667 -24.5 -57s-38.5 -23 -66.5 -23s-50 7.66699 -66 23s-24 34.333 -24 57c0 22 8 40.667 24 56s38 23 66 23s50.167 -7.66699 66.5 -23s24.5 -34 24.5 -56zM140 594c12.667 0 22.334 6.5 29.001 19.5s10 29.167 10 48.5
s-3.33301 35.333 -10 48s-16.334 19 -29.001 19s-22.167 -6.33301 -28.5 -19s-9.5 -28.667 -9.5 -48s3.33301 -35.5 10 -48.5s16 -19.5 28 -19.5z" />
    <glyph glyph-name="ogonek" unicode="&#x2db;" horiz-adv-x="260" 
d="M206 -153l4.00098 -5c-36.667 -31.333 -70 -47 -100 -47c-18.667 0 -33.334 5.83301 -44.001 17.5s-16 26.167 -16 43.5c0 26.667 11.5 55 34.5 85s55.167 57 96.5 81h10c-22.667 -19.333 -40.334 -42.5 -53.001 -69.5s-19 -51.833 -19 -74.5c0 -32 12.333 -48 37 -48
c12.667 0 29.334 5.66699 50.001 17z" />
    <glyph glyph-name="tilde" unicode="&#x2dc;" horiz-adv-x="373" 
d="M317 697l6 -3c-16.667 -70 -44.667 -105 -84 -105c-16.667 0 -39.167 9 -67.5 27s-47.166 27 -56.499 27c-23.333 0 -43 -16.667 -59 -50l-6 2c16.667 70.667 45 106 85 106c16 0 38.167 -9 66.5 -27s47.5 -27 57.5 -27c23.333 0 42.666 16.667 57.999 50z" />
    <glyph glyph-name="hungarumlaut" unicode="&#x2dd;" horiz-adv-x="367" 
d="M203 686l-149 -120l-4 5l89 155h6l58 -34v-6zM317 686l-148 -120l-5 5l89 155h6l58 -34v-6z" />
    <glyph glyph-name="pi" unicode="&#x3c0;" horiz-adv-x="438" 
d="M147 0h-83.9971v6l72 449h-115v6l53 71h337v-77h-100v-331c0 -67.333 19 -101 57 -101c11.333 0 24.666 3 39.999 9l3 -7c-37.333 -23.333 -69.333 -35 -96 -35c-28.667 0 -49.334 9.83301 -62.001 29.5s-15.334 48.167 -8.00098 85.5l53 350h-150v-455z" />
    <glyph glyph-name="Wgrave" unicode="&#x1e80;" horiz-adv-x="719" 
d="M463 786l-215 78v6l58 52h6l155 -130zM538 0h-79l-101 528h-2l-92 -528h-78l-126 688l-43 56v6h162v-6l-30 -56l108 -642h2l91 522l-22 120l-41 56v6h160v-6l-30 -56l112 -642h2l95 600l-40 98v6h115v-6l-61 -98z" />
    <glyph glyph-name="wgrave" unicode="&#x1e81;" horiz-adv-x="575" 
d="M512 428l-75 -428h-77l-74 338h-3l-66 -338h-77l-96 469l-43 57v6h158v-6l-29 -57l80 -430h2l65 334l-35 153v6h119v-6l-18 -65l86 -422h2l68 389l-42 98v6h117v-6zM352 566l-175 104v6l39 50h6l135 -154z" />
    <glyph glyph-name="Wacute" unicode="&#x1e82;" horiz-adv-x="719" 
d="M476 864l-215 -78l-4 6l155 130h6l58 -52v-6zM538 0h-79l-101 528h-2l-92 -528h-78l-126 688l-43 56v6h162v-6l-30 -56l108 -642h2l91 522l-22 120l-41 56v6h160v-6l-30 -56l112 -642h2l95 600l-40 98v6h115v-6l-61 -98z" />
    <glyph glyph-name="wacute" unicode="&#x1e83;" horiz-adv-x="575" 
d="M399 670l-176 -104l-4 6l135 154h6l39 -50v-6zM512 428l-75 -428h-77l-74 338h-3l-66 -338h-77l-96 469l-43 57v6h158v-6l-29 -57l80 -430h2l65 334l-35 153v6h119v-6l-18 -65l86 -422h2l68 389l-42 98v6h117v-6z" />
    <glyph glyph-name="Wdieresis" unicode="&#x1e84;" horiz-adv-x="719" 
d="M538 0h-79l-101 528h-2l-92 -528h-78l-126 688l-43 56v6h162v-6l-30 -56l108 -642h2l91 522l-22 120l-41 56v6h160v-6l-30 -56l112 -642h2l95 600l-40 98v6h115v-6l-61 -98zM290 809c-14 0 -25.667 4.66699 -35 14s-14 21 -14 35c0 13.333 4.66699 24.666 14 33.999
s21 14 35 14c13.333 0 24.666 -4.66699 33.999 -14s14 -20.666 14 -33.999c0 -14 -4.66699 -25.667 -14 -35s-20.666 -14 -33.999 -14zM427 809c-14 0 -25.5 4.66699 -34.5 14s-13.5 21 -13.5 35c0 13.333 4.5 24.666 13.5 33.999s20.5 14 34.5 14s25.667 -4.66699 35 -14
s14 -20.666 14 -33.999c0 -14 -4.66699 -25.667 -14 -35s-21 -14 -35 -14z" />
    <glyph glyph-name="wdieresis" unicode="&#x1e85;" horiz-adv-x="575" 
d="M218 607c-14 0 -25.667 4.66699 -35 14s-14 21 -14 35s4.66699 25.667 14 35s21 14 35 14c13.333 0 24.666 -4.66699 33.999 -14s14 -21 14 -35s-4.66699 -25.667 -14 -35s-20.666 -14 -33.999 -14zM355 607c-14 0 -25.5 4.66699 -34.5 14s-13.5 21 -13.5 35
s4.5 25.667 13.5 35s20.5 14 34.5 14s25.667 -4.66699 35 -14s14 -21 14 -35s-4.66699 -25.667 -14 -35s-21 -14 -35 -14zM512 428l-75 -428h-77l-74 338h-3l-66 -338h-77l-96 469l-43 57v6h158v-6l-29 -57l80 -430h2l65 334l-35 153v6h119v-6l-18 -65l86 -422h2l68 389
l-42 98v6h117v-6z" />
    <glyph glyph-name="Ygrave" unicode="&#x1ef2;" horiz-adv-x="450" 
d="M310 0h-164v6l42 56v198l-124 428l-45 56v6h162v-6l-28 -56l107 -393h2l91 351l-37 98v6h115v-6l-65 -98l-98 -386v-198l42 -56v-6zM313 786l-215 78v6l58 52h6l155 -130z" />
    <glyph glyph-name="ygrave" unicode="&#x1ef3;" horiz-adv-x="374" 
d="M204 0h-50l-110 469l-43 57v6h160v-6l-31 -57l90 -416c6.66699 24.667 10.667 41 12 49l65 326l-40 98v6h116v-6l-63 -98l-64 -326c-14.667 -78.667 -38.334 -143.667 -71.001 -195s-68.667 -77 -108 -77c-18 0 -32.333 5 -43 15s-16 22.667 -16 38s5 28 15 38
s22.667 15 38 15s28 -5 38 -15s15 -22.667 15 -38c0 -9.33301 -1.66699 -18 -5 -26c36.667 21.333 68.334 69 95.001 143zM251 566l-175 104v6l39 50h6l135 -154z" />
    <glyph glyph-name="endash" unicode="&#x2013;" horiz-adv-x="500" 
d="M450 265h-400v12h400v-12z" />
    <glyph glyph-name="emdash" unicode="&#x2014;" horiz-adv-x="1000" 
d="M950 265h-900v12h900v-12z" />
    <glyph glyph-name="quoteleft" unicode="&#x2018;" horiz-adv-x="179" 
d="M129 622h-99v6l106 167h5z" />
    <glyph glyph-name="quoteright" unicode="&#x2019;" horiz-adv-x="184" 
d="M43 614h-6l13 173h99v-6z" />
    <glyph glyph-name="quotesinglbase" unicode="&#x201a;" horiz-adv-x="182" 
d="M43 -87h-6l13 173h99v-6z" />
    <glyph glyph-name="quotedblleft" unicode="&#x201c;" horiz-adv-x="305" 
d="M129 622h-99v6l106 167h5zM255 622h-99v6l106 167h5z" />
    <glyph glyph-name="quotedblright" unicode="&#x201d;" horiz-adv-x="310" 
d="M43 614h-6l13 173h99v-6zM169 614h-6l13 173h99v-6z" />
    <glyph glyph-name="quotedblbase" unicode="&#x201e;" horiz-adv-x="308" 
d="M43 -87h-6l13 173h99v-6zM169 -87h-6l13 173h99v-6z" />
    <glyph glyph-name="dagger" unicode="&#x2020;" horiz-adv-x="403" 
d="M204 0h-4l-39 386v5l37 169l-134 -42h-5v90h5l134 -42l-41 179v5h90v-5l-42 -179l135 42h5v-90h-5l-135 42l37 -169v-5z" />
    <glyph glyph-name="daggerdbl" unicode="&#x2021;" horiz-adv-x="403" 
d="M247 0h-90v5l41 179l-134 -42h-5v90h5l134 -42l-37 182v5l37 183l-134 -42h-5v90h5l134 -42l-41 179v5h90v-5l-42 -179l135 42h5v-90h-5l-135 42l37 -183v-5l-37 -182l135 42h5v-90h-5l-135 42l42 -179v-5z" />
    <glyph glyph-name="bullet" unicode="&#x2022;" horiz-adv-x="187" 
d="M96 323h-4l-69 69v4l69 69h4l68 -69v-4z" />
    <glyph glyph-name="ellipsis" unicode="&#x2026;" horiz-adv-x="574" 
d="M78 -10c-15.333 0 -28.333 5.33301 -39 16s-16 23.667 -16 39s5.33301 28.333 16 39s23.667 16 39 16s28.333 -5.33301 39 -16s16 -23.667 16 -39s-5.33301 -28.333 -16 -39s-23.667 -16 -39 -16zM287 -10c-15.333 0 -28.333 5.33301 -39 16s-16 23.667 -16 39
s5.33301 28.333 16 39s23.667 16 39 16s28.333 -5.33301 39 -16s16 -23.667 16 -39s-5.33301 -28.333 -16 -39s-23.667 -16 -39 -16zM496 -10c-15.333 0 -28.333 5.33301 -39 16s-16 23.667 -16 39s5.33301 28.333 16 39s23.667 16 39 16s28.333 -5.33301 39 -16
s16 -23.667 16 -39s-5.33301 -28.333 -16 -39s-23.667 -16 -39 -16z" />
    <glyph glyph-name="perthousand" unicode="&#x2030;" horiz-adv-x="814" 
d="M142 382c-27.333 0 -52.166 15.8291 -74.499 47.4961s-33.5 78.834 -33.5 141.501s11.167 109.834 33.5 141.501s47.166 47.5 74.499 47.5c28 0 53 -15.667 75 -47s33 -78.666 33 -141.999s-11 -110.666 -33 -141.999s-47 -47 -75 -47zM142 391.996
c32.667 0 49 59.667 49 179s-16.333 179 -49 179c-32 0 -48 -59.667 -48 -179s16 -179 48 -179zM439 -10.0039c-26.667 0 -51.334 15.8291 -74.001 47.4961s-34 78.834 -34 141.501s11.333 109.834 34 141.501s47.334 47.5 74.001 47.5c28 0 53 -15.667 75 -47
s33 -78.666 33 -141.999s-11 -110.666 -33 -141.999s-47 -47 -75 -47zM439 -0.0078125c32.667 0 49 59.667 49 179s-16.333 179 -49 179c-31.333 0 -47 -59.667 -47 -179s15.667 -179 47 -179zM685 -10.0078c-26.667 0 -51.334 15.8291 -74.001 47.4961
s-34 78.834 -34 141.501s11.333 109.834 34 141.501s47.334 47.5 74.001 47.5c28 0 53 -15.667 75 -47s33 -78.666 33 -141.999s-11 -110.666 -33 -141.999s-47 -47 -75 -47zM685 -0.0117188c32.667 0 49 59.667 49 179s-16.333 179 -49 179c-31.333 0 -47 -59.667 -47 -179
s15.667 -179 47 -179zM33 -10.0117l-11 8l514 762l12 -8z" />
    <glyph glyph-name="guilsinglleft" unicode="&#x2039;" horiz-adv-x="230" 
d="M185 63l-6 -3l-133 203v7l133 203l6 -2l-54 -204z" />
    <glyph glyph-name="guilsinglright" unicode="&#x203a;" horiz-adv-x="230" 
d="M51 60l-5 3l53 204l-53 204l5 2l134 -203v-7z" />
    <glyph glyph-name="fraction" unicode="&#x2044;" horiz-adv-x="566" 
d="M32 -10l-12 8l515 762l11 -8z" />
    <glyph glyph-name="Euro" unicode="&#x20ac;" horiz-adv-x="402" 
d="M43 249l-46.001 -0.00195312v12h44c-2.66699 26 -4 58 -4 96v12h-40v12h40c1.33301 68 9 127.667 23 179s32 90.833 54 118.5s45.333 48.167 70 61.5s50.334 20 77.001 20c34 0 71.333 -5.33301 112 -16v-131h-5l-109 136c-42 -17.333 -75.333 -57.166 -100 -119.499
s-37 -145.166 -37 -248.499h219v-12h-219c0 -39.333 2 -75.333 6 -108h213v-12h-211c10 -72.667 28.667 -128.667 56 -168s62 -59 104 -59c23.333 0 49.333 6.66699 78 20l4 -5c-45.333 -31.333 -88 -47 -128 -47c-20 0 -39.5 3.66699 -58.5 11s-38.5 19.833 -58.5 37.5
s-37.5 44.5 -52.5 80.5s-25.5 79.333 -31.5 130z" />
    <glyph glyph-name="uni2117" unicode="&#x2117;" horiz-adv-x="850" 
d="M436 153h-118v4l26 41v354l-26 41v3h104c38 0 71 -11.5 99 -34.5s42 -55.833 42 -98.5c0 -43.333 -14 -76.333 -42 -99s-60.667 -34 -98 -34h-15v-132l28 -41v-4zM425 -10c-106 0 -195 37.333 -267 112s-108 165.667 -108 273s36 198.333 108 273s161 112 267 112
s195 -37.333 267 -112s108 -165.667 108 -273s-36 -198.333 -108 -273s-161 -112 -267 -112zM425 2c100.667 0 186 36.167 256 108.5s105 160.5 105 264.5s-35 192.333 -105 265s-155.333 109 -256 109s-186 -36.5 -256 -109.5s-105 -161.167 -105 -264.5
s35 -191.333 105 -264s155.333 -109 256 -109zM408 340h15c46.667 0 70 41 70 123c0 81.333 -23.333 122 -70 122h-15v-245z" />
    <glyph glyph-name="trademark" unicode="&#x2122;" horiz-adv-x="594" 
d="M544 427h-87v3l15 31l-21 236h-3l-55 -270h-17l-66 273h-3l-20 -219l24 -51v-3h-63v3l29 51l22 232l-15 35v2h67l52 -214h2l43 214h66v-2l-14 -35l23 -252l21 -31v-3zM195 427h-91v3l20 31v280h-22l-49 -58h-3v67h198v-67h-3l-49 58h-22v-280l21 -31v-3z" />
    <glyph glyph-name="uni2126" unicode="&#x2126;" horiz-adv-x="482" 
d="M445 0l-163 0.00195312l-4 10c30 59.333 51 118.5 63 177.5s18 138.5 18 238.5c0 102.667 -10.333 182.167 -31 238.5s-49.667 84.5 -87 84.5c-38 0 -67.333 -28.167 -88 -84.5s-31 -135.833 -31 -238.5c0 -100 6 -179.5 18 -238.5s33 -118.167 63 -177.5l-3 -10h-163v77
h127c-25.333 30 -46 58 -62 84s-30.833 63.667 -44.5 113s-20.5 105 -20.5 167c0 106.667 20.167 186.5 60.5 239.5s88.166 79.5 143.499 79.5c54.667 0 102.334 -26.5 143.001 -79.5s61 -132.833 61 -239.5c0 -88.667 -11.333 -159.834 -34 -213.501
s-54 -103.834 -94 -150.501h128v-77z" />
    <glyph glyph-name="arrowleft" unicode="&#x2190;" horiz-adv-x="567" 
d="M517 235h-6l-362 33l135 -225l-5 -4l-229 233v6l229 233l5 -3l-135 -227l362 34h6v-80z" />
    <glyph glyph-name="arrowup" unicode="&#x2191;" horiz-adv-x="572" 
d="M326 42h-79v6l32 361l-226 -134l-3 5l233 229h7l232 -229l-3 -5l-226 134l33 -361v-6z" />
    <glyph glyph-name="arrowright" unicode="&#x2192;" horiz-adv-x="567" 
d="M288 39l-5 3l135 227l-362 -34h-6v80h6l362 -33l-135 225l5 4l229 -233v-6z" />
    <glyph glyph-name="arrowdown" unicode="&#x2193;" horiz-adv-x="572" 
d="M522 271l-232 -229h-7l-233 229l3 5l226 -135l-32 362v6h79v-6l-33 -362l226 135z" />
    <glyph glyph-name="uni2196" unicode="&#x2196;" horiz-adv-x="466" 
d="M360 83l-5 3l-233 279l-64 -255l-6 2l3 327l5 4l326 3l2 -7l-256 -64l279 -233l5 -3z" />
    <glyph glyph-name="uni2197" unicode="&#x2197;" horiz-adv-x="466" 
d="M414 112l-7 -2l-65 255l-231 -279l-5 -3l-56 56l4 3l279 233l-255 64l2 7l326 -3l5 -4z" />
    <glyph glyph-name="uni2198" unicode="&#x2198;" horiz-adv-x="466" 
d="M406 87l-326 -3l-2 7l255 63l-279 234l-4 3l56 57l5 -4l231 -279l65 255l7 -2l-3 -327z" />
    <glyph glyph-name="uni2199" unicode="&#x2199;" horiz-adv-x="466" 
d="M386 84l-326 3l-5 4l-3 327l6 2l64 -255l233 279l5 4l56 -57l-5 -3l-279 -233l256 -64z" />
    <glyph glyph-name="partialdiff" unicode="&#x2202;" horiz-adv-x="406" 
d="M134 754l4.00098 5.99707c66 -35.333 122.5 -96.666 169.5 -183.999s70.5 -182.666 70.5 -285.999c0 -99.333 -16.333 -174.166 -49 -224.499s-74.667 -75.5 -126 -75.5c-50.667 0 -92.334 23.833 -125.001 71.5s-49 115.834 -49 204.501
c0 83.333 14.667 150.166 44 200.499s65.333 75.5 108 75.5c31.333 0 62.333 -16.333 93 -49c-24 108 -70.667 195 -140 261zM213.001 508.997c-31.333 0 -56.167 -23.1689 -74.5 -69.502s-27.5 -104.166 -27.5 -173.499c0 -81.333 8.83301 -145.666 26.5 -192.999
s39.5 -71 65.5 -71s47.833 25.167 65.5 75.5s26.5 120.5 26.5 210.5c0 67.333 -6 131 -18 191c-22 20 -43.333 30 -64 30z" />
    <glyph glyph-name="uni2206" unicode="&#x2206;" horiz-adv-x="432" 
d="M387 0h-342l-5 16l131 734h66l155 -734zM292 77l-122 579h-4l-102 -579h228z" />
    <glyph glyph-name="product" unicode="&#x220f;" horiz-adv-x="522" 
d="M485 0h-162v6l40 56v677h-204v-677l40 -56v-6h-162v6l42 56v626l-42 56v6h448v-6l-42 -56v-626l42 -56v-6z" />
    <glyph glyph-name="summation" unicode="&#x2211;" horiz-adv-x="393" 
d="M365 0h-324l-4 6l140 321l-140 417l4 6h324v-129h-6l-102 118h-137l108 -328v-6l-145 -328h221l55 68h6v-145z" />
    <glyph glyph-name="minus" unicode="&#x2212;" horiz-adv-x="570" 
d="M510 379h-450v12h450v-12z" />
    <glyph glyph-name="radical" unicode="&#x221a;" horiz-adv-x="469" 
d="M277 0h-79l-88 442l-50 33v6l114 51h6l89 -486h3l123 704l14 -2z" />
    <glyph glyph-name="infinity" unicode="&#x221e;" horiz-adv-x="794" 
d="M572 209c-25.333 0 -47.5 4 -66.5 12s-35.333 20.5 -49 37.5s-24.5 33.167 -32.5 48.5s-17 35.333 -27 60c-10 -24.667 -19 -44.667 -27 -60s-18.667 -31.5 -32 -48.5s-29.5 -29.5 -48.5 -37.5s-41.167 -12 -66.5 -12c-47.333 0 -86.5 13.5 -117.5 40.5
s-46.5 72.167 -46.5 135.5s15.5 108.5 46.5 135.5s70.167 40.5 117.5 40.5c25.333 0 47.5 -4 66.5 -12s35.167 -20.5 48.5 -37.5s24 -33.167 32 -48.5s17 -35.333 27 -60c8 19.333 15 35.166 21 47.499s14.167 26.333 24.5 42s21 27.834 32 36.501s25 16.167 42 22.5
s35.5 9.5 55.5 9.5c47.333 0 86.5 -13.5 117.5 -40.5s46.5 -72.167 46.5 -135.5s-15.5 -108.5 -46.5 -135.5s-70.167 -40.5 -117.5 -40.5zM223 550c-44 0 -80.168 -12.666 -108.501 -37.999s-42.5 -67.666 -42.5 -126.999s14.167 -101.5 42.5 -126.5s64.5 -37.5 108.5 -37.5
c24 0 45 4.16699 63 12.5s33.667 21.666 47 39.999s23.5 34.666 30.5 48.999s15.833 35.166 26.5 62.499c-8.66699 22.667 -15.5 39.5 -20.5 50.5s-12.667 25.167 -23 42.5s-20.5 30.333 -30.5 39s-23.167 16.334 -39.5 23.001s-34.166 10 -53.499 10zM571.999 221.001
c43.333 0 79.166 12.4971 107.499 37.4971s42.5 67.167 42.5 126.5s-14.167 101.666 -42.5 126.999s-64.166 38 -107.499 38c-24 0 -45.167 -4.16699 -63.5 -12.5s-34.166 -21.833 -47.499 -40.5s-23.5 -35.167 -30.5 -49.5s-15.833 -35.166 -26.5 -62.499
c10.667 -27.333 19.5 -48.166 26.5 -62.499s17.167 -30.666 30.5 -48.999s29.166 -31.666 47.499 -39.999s39.5 -12.5 63.5 -12.5z" />
    <glyph glyph-name="integral" unicode="&#x222b;" horiz-adv-x="474" 
d="M20 -115v126.999h6l100 -131c28.667 15.333 47.5 40.5 56.5 75.5s13.5 85.167 13.5 150.5v457c0 76.667 13.5 135.167 40.5 175.5s64.5 60.5 112.5 60.5c32 0 67 -5 105 -15v-127h-5l-100 131c-28.667 -15.333 -47.5 -40.5 -56.5 -75.5s-13.5 -84.833 -13.5 -149.5v-457
c0 -77.333 -13.5 -136.166 -40.5 -176.499s-64.833 -60.5 -113.5 -60.5c-31.333 0 -66.333 5 -105 15z" />
    <glyph glyph-name="approxequal" unicode="&#x2248;" horiz-adv-x="570" 
d="M504 322l6 -2.99902c-8 -36.667 -22.5 -63.334 -43.5 -80.001s-43.833 -25 -68.5 -25c-28.667 0 -71.5 8.66699 -128.5 26s-96.833 26 -119.5 26c-40.667 0 -68.667 -16.667 -84 -50l-6 2c8 37.333 22.5 64.333 43.5 81s43.833 25 68.5 25
c28 0 70.667 -8.83301 128 -26.5s97.333 -26.5 120 -26.5c40.667 0 68.667 17 84 51zM504 552.001l6 -2.99902c-8 -36.667 -22.5 -63.334 -43.5 -80.001s-43.833 -25 -68.5 -25c-28.667 0 -71.5 8.66699 -128.5 26s-96.833 26 -119.5 26c-40.667 0 -68.667 -16.667 -84 -50
l-6 2c8 37.333 22.5 64.333 43.5 81s43.833 25 68.5 25c28 0 70.667 -8.83301 128 -26.5s97.333 -26.5 120 -26.5c40.667 0 68.667 17 84 51z" />
    <glyph glyph-name="notequal" unicode="&#x2260;" horiz-adv-x="570" 
d="M340 494h-280v12h287l92 159l10 -5l-89 -154h150v-12h-157l-125 -218h282v-12h-289l-91 -158l-10 5l88 153h-148v12h155z" />
    <glyph glyph-name="lessequal" unicode="&#x2264;" horiz-adv-x="570" 
d="M504 162l-444 217v12l444 217l6 -12l-432 -211l432 -211zM510 0h-450v12h450v-12z" />
    <glyph glyph-name="greaterequal" unicode="&#x2265;" horiz-adv-x="570" 
d="M510 379l-444 -217l-6 12l432 211l-432 211l6 12l444 -217v-12zM510 0h-450v12h450v-12z" />
    <glyph glyph-name="lozenge" unicode="&#x25ca;" horiz-adv-x="456" 
d="M234 0h-12l-182 369v12l182 369h12l182 -369v-12zM228 18l176 357l-176 357l-176 -357z" />
    <glyph glyph-name="uni27F5" unicode="&#x27f5;" horiz-adv-x="980" 
d="M930 234h-6l-775 35l135 -226l-5 -4l-229 233v6l229 233l5 -3l-135 -227l775 35h6v-82z" />
    <glyph glyph-name="uni27F6" unicode="&#x27f6;" horiz-adv-x="980" 
d="M701 39l-5 4l135 226l-775 -35h-6v82h6l775 -35l-135 227l5 3l229 -233v-6z" />
    <glyph glyph-name="commaaccent" unicode="&#xf6c3;" horiz-adv-x="197" 
d="M56 -233h-6l12 182h85v-6z" />
    <glyph glyph-name="nonmarkingreturn" horiz-adv-x="333" 
 />
    <glyph glyph-name="J.ss04" horiz-adv-x="236" 
d="M2 -112l-3 7.00098c31.333 18 52.5 39.167 63.5 63.5s16.5 59.166 16.5 104.499v625l-42 56v6h164v-6l-42 -56v-615c0 -53.333 -12.833 -93 -38.5 -119s-65.167 -48 -118.5 -66z" />
    <glyph glyph-name="Q.ss05" horiz-adv-x="482" 
d="M884 -67l8 -1.00098c-4 -37.333 -14.5 -66.166 -31.5 -86.499s-45.167 -30.5 -84.5 -30.5c-48 0 -137.5 20.167 -268.5 60.5s-216.5 60.5 -256.5 60.5c-27.333 0 -47.166 -4.33301 -59.499 -13s-20.5 -21.667 -24.5 -39l-8 1c4.66699 56 24.334 91.667 59.001 107
c-50.667 8 -93.5 43.333 -128.5 106s-52.5 155 -52.5 277c0 131.333 20.167 228.333 60.5 291s88.166 94 143.499 94c20 0 39.333 -4.16699 58 -12.5s37 -22.166 55 -41.499s33.667 -43.333 47 -72s24 -65.334 32 -110.001s12 -94.334 12 -149.001
c0 -108 -14 -192.667 -42 -254s-63.667 -101.333 -107 -120c47.333 -3.33301 133 -24.166 257 -62.499s206.333 -57.5 247 -57.5c27.333 0 47.166 4.33301 59.499 13s20.5 21.667 24.5 39zM241 1.99902c38 0 67.167 31.667 87.5 95s30.5 156 30.5 278
c0 122.667 -10.167 215.667 -30.5 279s-49.5 95 -87.5 95s-67.333 -31.667 -88 -95s-31 -156.333 -31 -279s10.167 -215.5 30.5 -278.5s49.833 -94.5 88.5 -94.5z" />
    <glyph glyph-name="IJ.ss04" horiz-adv-x="475" 
d="M201 0h-164v6l42 56v626l-42 56v6h164v-6l-42 -56v-626l42 -56v-6zM239 -112l-3 7.00098c31.333 18 52.5 39.167 63.5 63.5s16.5 59.166 16.5 104.499v625l-42 56v6h164v-6l-42 -56v-615c0 -53.333 -12.833 -93 -38.5 -119s-65.167 -48 -118.5 -66z" />
    <glyph glyph-name="Jcircumflex.ss04" horiz-adv-x="238" 
d="M2 -112l-3 7.00098c31.333 18 52.5 39.167 63.5 63.5s16.5 59.166 16.5 104.499v625l-42 56v6h164v-6l-42 -56v-615c0 -53.333 -12.833 -93 -38.5 -119s-65.167 -48 -118.5 -66zM261 786.001l-142 50l-141 -50l-3 6l127 113h36l126 -113z" />
    <glyph glyph-name="Iacute_Jacute" horiz-adv-x="566" 
d="M201 0h-164v6l42 56v626l-42 56v6h164v-6l-42 -56v-626l42 -56v-6zM409 151v536.999l-42 56v6h164v-6l-42 -56v-527c0 -55.333 -14.667 -97.666 -44 -126.999s-63 -44 -101 -44c-32.667 0 -64.667 5.66699 -96 17v124h5l100 -129c37.333 23.333 56 73 56 149z
M251 863.999l-215 -78l-4 6l155 130h6l58 -52v-6zM581 863.999l-215 -78l-4 6l155 130h6l58 -52v-6z" />
    <glyph glyph-name="Iacute_Jacute.ss04" horiz-adv-x="475" 
d="M239 -112l-3 7.00098c31.333 18 52.5 39.167 63.5 63.5s16.5 59.166 16.5 104.499v625l-42 56v6h164v-6l-42 -56v-615c0 -53.333 -12.833 -93 -38.5 -119s-65.167 -48 -118.5 -66zM201 0.000976562h-164v6l42 56v626l-42 56v6h164v-6l-42 -56v-626l42 -56v-6z
M251 864.001l-215 -78l-4 6l155 130h6l58 -52v-6zM488 864.001l-215 -78l-4 6l155 130h6l58 -52v-6z" />
    <glyph glyph-name="a.ss01" horiz-adv-x="423" 
d="M276 0v49c-38 -39.333 -71.333 -59 -100 -59c-40.667 0 -74.5 23 -101.5 69s-40.5 115 -40.5 207s13.5 161 40.5 207s61.5 69 103.5 69c29.333 0 63 -21 101 -63l70 63h5v-480l41 -56v-6h-119zM276 60l0.000976562 409c-22 21.333 -43.667 32 -65 32
c-30 0 -53.167 -21.833 -69.5 -65.5s-24.5 -100.167 -24.5 -169.5c0 -70.667 8.33301 -128 25 -172s40 -66 70 -66c19.333 0 40.666 10.667 63.999 32z" />
    <glyph glyph-name="f.ss02" horiz-adv-x="235" 
d="M83 -160h-4.99902v680h-41v12h41c0 152 33.667 228 101 228c15.333 0 28.166 -5 38.499 -15s15.5 -22.667 15.5 -38c0 -14.667 -5 -27.167 -15 -37.5s-22.333 -15.5 -37 -15.5c-15.333 0 -28 5 -38 15s-15 22.667 -15 38c0 10 1.66699 17.667 5 23
c-14.667 -18.667 -22 -46 -22 -82c0 -24 4 -46.667 12 -68s19 -37.333 33 -48h55v-12h-55v-520z" />
    <glyph glyph-name="j.ss03" horiz-adv-x="206" 
d="M108 602c-14.667 0 -27.167 5.1709 -37.5 15.5039s-15.5 23.166 -15.5 38.499s5.16699 28.166 15.5 38.499s22.833 15.5 37.5 15.5s27.334 -5.33301 38.001 -16s16 -23.334 16 -38.001s-5.33301 -27.334 -16 -38.001s-23.334 -16 -38.001 -16zM3 -169.996l-3 7
c30 17.333 49 37.5 57 60.5s12 58.833 12 107.5v464l-41 57v6h119v-517c0 -54.667 -11 -94.5 -33 -119.5s-59 -46.833 -111 -65.5z" />
    <glyph glyph-name="germandbls.ss06" horiz-adv-x="434" 
d="M57 -160l-5.00195 -0.00195312v692c0 66.667 13.667 121.334 41 164.001s66 64 116 64c48.667 0 86.5 -15.5 113.5 -46.5s40.5 -72.833 40.5 -125.5c0 -46 -11.333 -86.167 -34 -120.5s-56.334 -55.833 -101.001 -64.5c62.667 -7.33301 107.834 -30.666 135.501 -69.999
s41.5 -88 41.5 -146s-15.667 -105.333 -47 -142s-70.666 -55 -117.999 -55c-25.333 0 -52 5.66699 -80 17v127h6l82 -132c24.667 6.66699 43.667 25.5 57 56.5s20 69.833 20 116.5c0 139.333 -43 213.333 -129 222v7c56.667 8 85 65.667 85 173
c0 59.333 -6.66699 102.833 -20 130.5s-30.666 41.5 -51.999 41.5c-52.667 0 -79 -65.333 -79 -196v-553z" />
    <glyph glyph-name="ij.ss03" horiz-adv-x="423" 
d="M108 602c-14.667 0 -27.167 5.1709 -37.5 15.5039s-15.5 23.166 -15.5 38.499s5.16699 28.166 15.5 38.499s22.833 15.5 37.5 15.5s27.334 -5.33301 38.001 -16s16 -23.334 16 -38.001s-5.33301 -27.334 -16 -38.001s-23.334 -16 -38.001 -16zM188 0.00390625h-159v6
l40 56v407l-40 57v6h118v-470l41 -56v-6zM324 602.004c-14.667 0 -27.167 5.1709 -37.5 15.5039s-15.5 23.166 -15.5 38.499s5.16699 28.166 15.5 38.499s22.833 15.5 37.5 15.5s27.334 -5.33301 38.001 -16s16 -23.334 16 -38.001s-5.33301 -27.334 -16 -38.001
s-23.334 -16 -38.001 -16zM219 -169.992l-3 7c30 17.333 49 37.5 57 60.5s12 58.833 12 107.5v464l-41 57v6h119v-517c0 -54.667 -11 -94.5 -33 -119.5s-59 -46.833 -111 -65.5z" />
    <glyph glyph-name="longs.ss07" horiz-adv-x="227" 
d="M76 -160l-6 0.000976562v692c0 152 33.667 228 101 228c16 0 29.167 -5 39.5 -15s15.5 -22.667 15.5 -38s-5 -28 -15 -38s-22.667 -15 -38 -15s-28 5 -38 15s-15 22.667 -15 38c0 10 1.66699 17.667 5 23c-14.667 -18.667 -22 -46 -22 -82c0 -23.333 4 -45.833 12 -67.5
s19 -37.834 33 -48.501v-532z" />
    <glyph glyph-name="aacute.ss01" horiz-adv-x="423" 
d="M276 0v49c-38 -39.333 -71.333 -59 -100 -59c-40.667 0 -74.5 23 -101.5 69s-40.5 115 -40.5 207s13.5 161 40.5 207s61.5 69 103.5 69c29.333 0 63 -21 101 -63l70 63h5v-480l41 -56v-6h-119zM276 60l0.000976562 409c-22 21.333 -43.667 32 -65 32
c-30 0 -53.167 -21.833 -69.5 -65.5s-24.5 -100.167 -24.5 -169.5c0 -70.667 8.33301 -128 25 -172s40 -66 70 -66c19.333 0 40.666 10.667 63.999 32zM337.001 670l-176 -104l-4 6l135 154h6l39 -50v-6z" />
    <glyph glyph-name="abreve.ss01" horiz-adv-x="423" 
d="M276 0v49c-38 -39.333 -71.333 -59 -100 -59c-40.667 0 -74.5 23 -101.5 69s-40.5 115 -40.5 207s13.5 161 40.5 207s61.5 69 103.5 69c29.333 0 63 -21 101 -63l70 63h5v-480l41 -56v-6h-119zM276 60l0.000976562 409c-22 21.333 -43.667 32 -65 32
c-30 0 -53.167 -21.833 -69.5 -65.5s-24.5 -100.167 -24.5 -169.5c0 -70.667 8.33301 -128 25 -172s40 -66 70 -66c19.333 0 40.666 10.667 63.999 32zM335.001 720h7.99902c-1.33301 -42 -12 -76 -32 -102s-48.333 -39 -85 -39c-37.333 0 -65.833 13 -85.5 39
s-30.167 60 -31.5 102h7c6.66699 -25.333 20.334 -45 41.001 -59s43.667 -21 69 -21s48.333 7 69 21s34 33.667 40 59z" />
    <glyph glyph-name="acircumflex.ss01" horiz-adv-x="423" 
d="M276 0v49c-38 -39.333 -71.333 -59 -100 -59c-40.667 0 -74.5 23 -101.5 69s-40.5 115 -40.5 207s13.5 161 40.5 207s61.5 69 103.5 69c29.333 0 63 -21 101 -63l70 63h5v-480l41 -56v-6h-119zM276 60l0.000976562 409c-22 21.333 -43.667 32 -65 32
c-30 0 -53.167 -21.833 -69.5 -65.5s-24.5 -100.167 -24.5 -169.5c0 -70.667 8.33301 -128 25 -172s40 -66 70 -66c19.333 0 40.666 10.667 63.999 32zM358.001 570l-129 76l-128 -76l-3 6l114 136h36l113 -136z" />
    <glyph glyph-name="adieresis.ss01" horiz-adv-x="423" 
d="M276 0v49c-38 -39.333 -71.333 -59 -100 -59c-40.667 0 -74.5 23 -101.5 69s-40.5 115 -40.5 207s13.5 161 40.5 207s61.5 69 103.5 69c29.333 0 63 -21 101 -63l70 63h5v-480l41 -56v-6h-119zM276 60l0.000976562 409c-22 21.333 -43.667 32 -65 32
c-30 0 -53.167 -21.833 -69.5 -65.5s-24.5 -100.167 -24.5 -169.5c0 -70.667 8.33301 -128 25 -172s40 -66 70 -66c19.333 0 40.666 10.667 63.999 32zM161.001 607c-14 0 -25.667 4.66699 -35 14s-14 21 -14 35s4.66699 25.667 14 35s21 14 35 14
c13.333 0 24.666 -4.66699 33.999 -14s14 -21 14 -35s-4.66699 -25.667 -14 -35s-20.666 -14 -33.999 -14zM298.001 607c-14 0 -25.5 4.66699 -34.5 14s-13.5 21 -13.5 35s4.5 25.667 13.5 35s20.5 14 34.5 14s25.667 -4.66699 35 -14s14 -21 14 -35
s-4.66699 -25.667 -14 -35s-21 -14 -35 -14z" />
    <glyph glyph-name="agrave.ss01" horiz-adv-x="423" 
d="M276 0v49c-38 -39.333 -71.333 -59 -100 -59c-40.667 0 -74.5 23 -101.5 69s-40.5 115 -40.5 207s13.5 161 40.5 207s61.5 69 103.5 69c29.333 0 63 -21 101 -63l70 63h5v-480l41 -56v-6h-119zM276 60l0.000976562 409c-22 21.333 -43.667 32 -65 32
c-30 0 -53.167 -21.833 -69.5 -65.5s-24.5 -100.167 -24.5 -169.5c0 -70.667 8.33301 -128 25 -172s40 -66 70 -66c19.333 0 40.666 10.667 63.999 32zM303.001 566l-175 104v6l39 50h6l135 -154z" />
    <glyph glyph-name="amacron.ss01" horiz-adv-x="423" 
d="M276 0v49c-38 -39.333 -71.333 -59 -100 -59c-40.667 0 -74.5 23 -101.5 69s-40.5 115 -40.5 207s13.5 161 40.5 207s61.5 69 103.5 69c29.333 0 63 -21 101 -63l70 63h5v-480l41 -56v-6h-119zM276 60l0.000976562 409c-22 21.333 -43.667 32 -65 32
c-30 0 -53.167 -21.833 -69.5 -65.5s-24.5 -100.167 -24.5 -169.5c0 -70.667 8.33301 -128 25 -172s40 -66 70 -66c19.333 0 40.666 10.667 63.999 32zM345.001 627h-242v46h242v-46z" />
    <glyph glyph-name="aogonek.ss01" horiz-adv-x="423" 
d="M391 -153l4 -5c-36.667 -31.333 -70 -47 -100 -47c-18.667 0 -33.334 5.83301 -44.001 17.5s-16 26.167 -16 43.5c0 22.667 8.5 46.834 25.5 72.501s40.833 49.5 71.5 71.5h-56v49c-38 -39.333 -71.333 -59 -100 -59c-40.667 0 -74.5 23 -101.5 69s-40.5 115 -40.5 207
s13.5 161 40.5 207s61.5 69 103.5 69c29.333 0 63 -21 101 -63l70 63h5v-480l41 -56v-6h-41c-33.333 -38.667 -50 -79.334 -50 -122.001c0 -32 12.333 -48 37 -48c12.667 0 29.334 5.66699 50.001 17zM276 60l0.000976562 409c-22 21.333 -43.667 32 -65 32
c-30 0 -53.167 -21.833 -69.5 -65.5s-24.5 -100.167 -24.5 -169.5c0 -70.667 8.33301 -128 25 -172s40 -66 70 -66c19.333 0 40.666 10.667 63.999 32z" />
    <glyph glyph-name="aring.ss01" horiz-adv-x="423" 
d="M276 0v49c-38 -39.333 -71.333 -59 -100 -59c-40.667 0 -74.5 23 -101.5 69s-40.5 115 -40.5 207s13.5 161 40.5 207s61.5 69 103.5 69c29.333 0 63 -21 101 -63l70 63h5v-480l41 -56v-6h-119zM276 60l0.000976562 409c-22 21.333 -43.667 32 -65 32
c-30 0 -53.167 -21.833 -69.5 -65.5s-24.5 -100.167 -24.5 -169.5c0 -70.667 8.33301 -128 25 -172s40 -66 70 -66c19.333 0 40.666 10.667 63.999 32zM320.001 662c0 -22.667 -8.16699 -41.667 -24.5 -57s-38.5 -23 -66.5 -23s-50 7.66699 -66 23s-24 34.333 -24 57
c0 22 8 40.667 24 56s38 23 66 23s50.167 -7.66699 66.5 -23s24.5 -34 24.5 -56zM229.001 594c12.667 0 22.334 6.5 29.001 19.5s10 29.167 10 48.5s-3.33301 35.333 -10 48s-16.334 19 -29.001 19s-22.167 -6.33301 -28.5 -19s-9.5 -28.667 -9.5 -48
s3.16699 -35.5 9.5 -48.5s15.833 -19.5 28.5 -19.5z" />
    <glyph glyph-name="atilde.ss01" horiz-adv-x="423" 
d="M276 0v49c-38 -39.333 -71.333 -59 -100 -59c-40.667 0 -74.5 23 -101.5 69s-40.5 115 -40.5 207s13.5 161 40.5 207s61.5 69 103.5 69c29.333 0 63 -21 101 -63l70 63h5v-480l41 -56v-6h-119zM276 60l0.000976562 409c-22 21.333 -43.667 32 -65 32
c-30 0 -53.167 -21.833 -69.5 -65.5s-24.5 -100.167 -24.5 -169.5c0 -70.667 8.33301 -128 25 -172s40 -66 70 -66c19.333 0 40.666 10.667 63.999 32zM362.001 697l6 -3c-16.667 -70 -44.667 -105 -84 -105c-16.667 0 -39.167 9 -67.5 27s-47.166 27 -56.499 27
c-23.333 0 -43 -16.667 -59 -50l-6 2c16.667 70.667 45 106 85 106c16 0 38.167 -9 66.5 -27s47.5 -27 57.5 -27c23.333 0 42.666 16.667 57.999 50z" />
    <glyph glyph-name="jcircumflex.ss03" horiz-adv-x="206" 
d="M3 -170l-2.99902 7c30 17.333 49 37.5 57 60.5s12 58.833 12 107.5v464l-40 57v6h118v-517c0 -54.667 -10.833 -94.5 -32.5 -119.5s-58.834 -46.833 -111.501 -65.5zM230.001 570l-129 76l-128 -76l-3 6l114 136h36l113 -136z" />
    <glyph glyph-name="iacute_jacute" horiz-adv-x="431" 
d="M285 8l0.000976562 461.001l-40 57v6h118v-524c0 -118.667 -30.667 -178 -92 -178c-14.667 0 -26.834 4.66699 -36.501 14s-14.5 21 -14.5 35c0 14.667 4.66699 26.667 14 36s21 14 35 14s25.833 -4.66699 35.5 -14s14.5 -21.333 14.5 -36
c0 -10.667 -2.66699 -19.667 -8 -27c13.333 12.667 20 31.667 20 57c0 18 -4 36.167 -12 54.5s-19.333 33.166 -34 44.499zM188.001 0.000976562h-159v6l40 56v407l-40 57v6h118v-470l41 -56v-6zM218.001 670.001l-176 -104l-4 6l135 154h6l39 -50v-6zM433.001 670.001
l-176 -104l-4 6l135 154h6l39 -50v-6z" />
    <glyph glyph-name="iacute_jacute.ss03" horiz-adv-x="423" 
d="M220 -170l-4 7c30 17.333 49 37.5 57 60.5s12 58.833 12 107.5v464l-40 57v6h118v-517c0 -54.667 -10.833 -94.5 -32.5 -119.5s-58.5 -46.833 -110.5 -65.5zM188 0h-159v6l40 56v407l-40 57v6h118v-470l41 -56v-6zM218 670l-176 -104l-4 6l135 154h6l39 -50v-6zM433 670
l-176 -104l-4 6l135 154h6l39 -50v-6z" />
    <glyph glyph-name="f_b.ss02" horiz-adv-x="642" 
d="M75 -160h-4.99902v680h-41v12h41c0 152 33.667 228 101 228c15.333 0 28.166 -5 38.499 -15s15.5 -22.667 15.5 -38c0 -14.667 -5 -27.167 -15 -37.5s-22.333 -15.5 -37 -15.5c-15.333 0 -28 5 -38 15s-15 22.667 -15 38c0 10 1.66699 17.667 5 23
c-14.667 -18.667 -22 -46 -22 -82c0 -24 4 -46.667 12 -68s19 -37.333 33 -48h55v-12h-55v-520zM364.001 53l-69.999 -63h-6v698l-40 56v6h118v-267c39.333 39.333 72.666 59 99.999 59c40.667 0 74.5 -23 101.5 -69s40.5 -115 40.5 -207s-13.5 -161 -40.5 -207
s-61.5 -69 -103.5 -69c-30.667 0 -64 21 -100 63zM366.002 472v-410.001c23.333 -20.667 45 -31 65 -31c30 0 53.167 21.833 69.5 65.5s24.5 100.167 24.5 169.5c0 70.667 -8.33301 127.834 -25 171.501s-40 65.5 -70 65.5c-20 0 -41.333 -10.333 -64 -31z" />
    <glyph glyph-name="f_f.ss02" horiz-adv-x="443" 
d="M291 -160h-6v680h-138v-520l-72 -160h-6v680h-41v12h41c0 152 33.667 228 101 228c16 0 29.167 -5 39.5 -15s15.5 -22.667 15.5 -38s-5.16699 -28 -15.5 -38s-22.833 -15 -37.5 -15s-27.167 5 -37.5 15s-15.5 22.667 -15.5 38c0 8.66699 1.66699 16.334 5 23.001
c-14.667 -20 -22 -47.333 -22 -82c0 -23.333 4 -45.833 12 -67.5s19 -37.834 33 -48.501h138c0 152 33.667 228 101 228c16 0 29.167 -5 39.5 -15s15.5 -22.667 15.5 -38s-5.16699 -28 -15.5 -38s-22.833 -15 -37.5 -15s-27.167 5 -37.5 15s-15.5 22.667 -15.5 38
c0 8.66699 1.66699 16.334 5 23.001c-14.667 -20 -22 -47.333 -22 -82c0 -23.333 4 -45.833 12 -67.5s19 -37.834 33 -48.501h56v-12h-56v-520z" />
    <glyph glyph-name="f_h.ss02" horiz-adv-x="665" 
d="M636 0h-117.999v411c0 59.333 -22.333 89 -67 89c-26.667 0 -55 -11 -85 -33v-405l40 -56v-6h-158v6l40 56v626l-40 56v6h118v-271c53.333 42 99.666 63 138.999 63c60.667 0 91 -39.333 91 -118v-362l40 -56v-6zM75.001 -160h-4.99902v680h-41v12h41
c0 152 33.667 228 101 228c15.333 0 28.166 -5 38.499 -15s15.5 -22.667 15.5 -38c0 -14.667 -5 -27.167 -15 -37.5s-22.333 -15.5 -37 -15.5c-15.333 0 -28 5 -38 15s-15 22.667 -15 38c0 10 1.66699 17.667 5 23c-14.667 -18.667 -22 -46 -22 -82c0 -24 4 -46.667 12 -68
s19 -37.333 33 -48h55v-12h-55v-520z" />
    <glyph glyph-name="f_i.ss02" horiz-adv-x="434" 
d="M407 0h-159v6l40 56v407l-37 51h-104v-520l-72 -160h-6v680h-41v12h41c0 152 33.667 228 101 228c16 0 29.167 -5 39.5 -15s15.5 -22.667 15.5 -38s-5.16699 -28 -15.5 -38s-22.833 -15 -37.5 -15s-27.167 5 -37.5 15s-15.5 22.667 -15.5 38
c0 8.66699 1.66699 16.334 5 23.001c-14.667 -20 -22 -47.333 -22 -82c0 -23.333 4 -45.833 12 -67.5s19 -37.834 33 -48.501h219v-470l41 -56v-6zM327 602c-14.667 0 -27.167 5.1709 -37.5 15.5039s-15.5 23.166 -15.5 38.499s5.16699 28.166 15.5 38.499
s22.833 15.5 37.5 15.5c15.333 0 28.166 -5.33301 38.499 -16s15.5 -23.334 15.5 -38.001s-5.16699 -27.334 -15.5 -38.001s-23.166 -16 -38.499 -16z" />
    <glyph glyph-name="f_j.ss02" horiz-adv-x="424" 
d="M68 -160l0.000976562 680.001h-41v12h41c0 152 33.667 228 101 228c16 0 29.167 -5 39.5 -15s15.5 -22.667 15.5 -38s-5 -28 -15 -38s-22.667 -15 -38 -15s-28 5 -38 15s-15 22.667 -15 38c0 10 1.66699 17.667 5 23c-14.667 -18.667 -22 -46 -22 -82
c0 -24 4 -46.667 12 -68s19 -37.333 33 -48h219v-524c0 -118.667 -31 -178 -93 -178c-14.667 0 -26.834 4.66699 -36.501 14s-14.5 21 -14.5 35c0 14.667 4.66699 26.667 14 36s21 14 35 14c14.667 0 26.667 -4.66699 36 -14s14 -21.333 14 -36
c0 -10.667 -2.66699 -19.667 -8 -27c14 13.333 21 32.333 21 57c0 18 -4.16699 36.167 -12.5 54.5s-19.5 33.166 -33.5 44.499v461l-37 51h-104v-520l-72 -160h-6zM326.001 602.001c-14.667 0 -27.167 5.1709 -37.5 15.5039s-15.5 23.166 -15.5 38.499
s5.16699 28.166 15.5 38.499s22.833 15.5 37.5 15.5s27.334 -5.33301 38.001 -16s16 -23.334 16 -38.001s-5.33301 -27.334 -16 -38.001s-23.334 -16 -38.001 -16z" />
    <glyph glyph-name="f_j.ss02..ss03" horiz-adv-x="424" 
d="M221 -170l-3 7c30 17.333 49 37.5 57 60.5s12 58.833 12 107.5v464l-37 51h-104v-520l-72 -160h-6v680h-41v12h41c0 152 33.667 228 101 228c16 0 29.167 -5 39.5 -15s15.5 -22.667 15.5 -38s-5 -28 -15 -38s-22.667 -15 -38 -15s-28 5 -38 15s-15 22.667 -15 38
c0 10 1.66699 17.667 5 23c-14.667 -18.667 -22 -46 -22 -82c0 -24 4 -46.667 12 -68s19 -37.333 33 -48h219v-517c0 -54.667 -11 -94.5 -33 -119.5s-59 -46.833 -111 -65.5zM326 602c-14.667 0 -27.167 5.1709 -37.5 15.5039s-15.5 23.166 -15.5 38.499
s5.16699 28.166 15.5 38.499s22.833 15.5 37.5 15.5s27.334 -5.33301 38.001 -16s16 -23.334 16 -38.001s-5.33301 -27.334 -16 -38.001s-23.334 -16 -38.001 -16z" />
    <glyph glyph-name="f_j.ss03" horiz-adv-x="425" 
d="M222 -170l-2.99902 7c30 17.333 49 37.5 57 60.5s12 58.833 12 107.5v464l-37 51h-104v-458l43 -56v-6h-161v6l40 56v458h-41v12h41c0 152 33.667 228 101 228c16 0 29.167 -5 39.5 -15s15.5 -22.667 15.5 -38s-5.16699 -28 -15.5 -38s-22.833 -15 -37.5 -15
s-27.167 5 -37.5 15s-15.5 22.667 -15.5 38c0 8.66699 1.66699 16.334 5 23.001c-14.667 -20 -22 -47.333 -22 -82c0 -23.333 4 -45.833 12 -67.5s19 -37.834 33 -48.501h219v-517c0 -54.667 -10.833 -94.5 -32.5 -119.5s-58.834 -46.833 -111.501 -65.5zM327.001 602
c-14.667 0 -27.167 5.1709 -37.5 15.5039s-15.5 23.166 -15.5 38.499s5.16699 28.166 15.5 38.499s22.833 15.5 37.5 15.5c15.333 0 28.166 -5.33301 38.499 -16s15.5 -23.334 15.5 -38.001s-5.16699 -27.334 -15.5 -38.001s-23.166 -16 -38.499 -16z" />
    <glyph glyph-name="f_k.ss02" horiz-adv-x="623" 
d="M406 0l-158 0.000976562v6l40 56v626l-40 56v6h118v-438h71l46 116l-8 98v6h108v-6l-86 -98l-46 -116h72c4.66699 -44 14 -95.833 28 -155.5s29.333 -109.834 46 -150.501v-6h-82c-14 38.667 -27.333 87.667 -40 147s-21.667 110.333 -27 153h-82v-238l40 -56v-6z
M75 -159.999h-4.99902v680h-41v12h41c0 152 33.667 228 101 228c15.333 0 28.166 -5 38.499 -15s15.5 -22.667 15.5 -38c0 -14.667 -5 -27.167 -15 -37.5s-22.333 -15.5 -37 -15.5c-15.333 0 -28 5 -38 15s-15 22.667 -15 38c0 10 1.66699 17.667 5 23
c-14.667 -18.667 -22 -46 -22 -82c0 -24 4 -46.667 12 -68s19 -37.333 33 -48h55v-12h-55v-520z" />
    <glyph glyph-name="f_l.ss02" horiz-adv-x="435" 
d="M75 -160h-4.99902v680h-41v12h41c0 152 33.667 228 101 228c15.333 0 28.166 -5 38.499 -15s15.5 -22.667 15.5 -38c0 -14.667 -5 -27.167 -15 -37.5s-22.333 -15.5 -37 -15.5c-15.333 0 -28 5 -38 15s-15 22.667 -15 38c0 10 1.66699 17.667 5 23
c-14.667 -18.667 -22 -46 -22 -82c0 -24 4 -46.667 12 -68s19 -37.333 33 -48h55v-12h-55v-520zM407.001 0h-159v6l40 56v626l-40 56v6h118v-688l41 -56v-6z" />
    <glyph glyph-name="f_t.ss02" horiz-adv-x="502" 
d="M481 32l3 -7c-38 -23.333 -73.333 -35 -106 -35c-62 0 -93 38.333 -93 115v415h-138v-520l-72 -160h-6v680h-41v12h41c0 152 33.667 228 101 228c16 0 29.167 -5 39.5 -15s15.5 -22.667 15.5 -38s-5.16699 -28 -15.5 -38s-22.833 -15 -37.5 -15s-27.167 5 -37.5 15
s-15.5 22.667 -15.5 38c0 8.66699 1.66699 16.334 5 23.001c-14.667 -20 -22 -47.333 -22 -82c0 -23.333 4 -45.833 12 -67.5s19 -37.834 33 -48.501h138l72 176h6v-176h111v-12h-111v-396c0 -68.667 23.333 -103 70 -103c15.333 0 31.333 3.66699 48 11z" />
    <glyph glyph-name="f_f_b.ss02" horiz-adv-x="859" 
d="M69 -160v680h-41v12h41c0 152 33.667 228 101 228c16 0 29.167 -5 39.5 -15s15.5 -22.667 15.5 -38s-5.16699 -28 -15.5 -38s-22.833 -15 -37.5 -15s-27.167 5 -37.5 15s-15.5 22.667 -15.5 38c0 8.66699 1.66699 16.334 5 23.001c-14.667 -20 -22 -47.333 -22 -82
c0 -23.333 4 -45.833 12 -67.5s19 -37.834 33 -48.501h138c0 152 33.667 228 101 228c16 0 29.167 -5 39.5 -15s15.5 -22.667 15.5 -38s-5.16699 -28 -15.5 -38s-22.833 -15 -37.5 -15s-27.167 5 -37.5 15s-15.5 22.667 -15.5 38c0 8.66699 1.66699 16.334 5 23.001
c-14.667 -20 -22 -47.333 -22 -82c0 -23.333 4 -45.833 12 -67.5s19 -37.834 33 -48.501h56v-12h-56v-520l-72 -160h-6v680h-138v-520l-72 -160h-6zM504 -10l0.000976562 698l-40 56v6h118v-267c39.333 39.333 72.666 59 99.999 59c40.667 0 74.5 -23 101.5 -69
s40.5 -115 40.5 -207s-13.5 -161 -40.5 -207s-61.167 -69 -102.5 -69c-31.333 0 -65 21 -101 63l-70 -63h-6zM582.001 472v-410.001c23.333 -20.667 45 -31 65 -31c30 0 53.167 21.667 69.5 65s24.5 100 24.5 170c0 70.667 -8.33301 127.834 -25 171.501s-40 65.5 -70 65.5
c-20 0 -41.333 -10.333 -64 -31z" />
    <glyph glyph-name="f_f_h.ss02" horiz-adv-x="881" 
d="M69 -160v680h-41v12h41c0 152 33.667 228 101 228c16 0 29.167 -5 39.5 -15s15.5 -22.667 15.5 -38s-5.16699 -28 -15.5 -38s-22.833 -15 -37.5 -15s-27.167 5 -37.5 15s-15.5 22.667 -15.5 38c0 8.66699 1.66699 16.334 5 23.001c-14.667 -20 -22 -47.333 -22 -82
c0 -23.333 4 -45.833 12 -67.5s19 -37.834 33 -48.501h138c0 152 33.667 228 101 228c16 0 29.167 -5 39.5 -15s15.5 -22.667 15.5 -38s-5.16699 -28 -15.5 -38s-22.833 -15 -37.5 -15s-27.167 5 -37.5 15s-15.5 22.667 -15.5 38c0 8.66699 1.66699 16.334 5 23.001
c-14.667 -20 -22 -47.333 -22 -82c0 -23.333 4 -45.833 12 -67.5s19 -37.834 33 -48.501h56v-12h-56v-520l-72 -160h-6v680h-138v-520l-72 -160h-6zM464 0l0.000976562 6l40 56v626l-40 56v6h118v-271c53.333 42 99.666 63 138.999 63c60.667 0 91 -39.333 91 -118v-362
l40 -56v-6h-118v411c0 59.333 -22.333 89 -67 89c-26.667 0 -55 -11 -85 -33v-405l40 -56v-6h-158z" />
    <glyph glyph-name="f_f_i.ss02" horiz-adv-x="651" 
d="M623 0h-159v6l40 56v407l-37 51h-104v-520l-72 -160h-6v680h-138v-520l-72 -160h-6v680h-41v12h41c0 152 33.667 228 101 228c16 0 29.167 -5 39.5 -15s15.5 -22.667 15.5 -38s-5.16699 -28 -15.5 -38s-22.833 -15 -37.5 -15s-27.167 5 -37.5 15s-15.5 22.667 -15.5 38
c0 8.66699 1.66699 16.334 5 23.001c-14.667 -20 -22 -47.333 -22 -82c0 -23.333 4 -45.833 12 -67.5s19 -37.834 33 -48.501h138c0 152 33.667 228 101 228c16 0 29.167 -5 39.5 -15s15.5 -22.667 15.5 -38s-5.16699 -28 -15.5 -38s-22.833 -15 -37.5 -15
s-27.167 5 -37.5 15s-15.5 22.667 -15.5 38c0 8.66699 1.66699 16.334 5 23.001c-14.667 -20 -22 -47.333 -22 -82c0 -23.333 4 -45.833 12 -67.5s19 -37.834 33 -48.501h219v-470l41 -56v-6zM543 602c-14.667 0 -27.167 5.1709 -37.5 15.5039s-15.5 23.166 -15.5 38.499
s5.16699 28.166 15.5 38.499s22.833 15.5 37.5 15.5c15.333 0 28.166 -5.33301 38.499 -16s15.5 -23.334 15.5 -38.001s-5.16699 -27.334 -15.5 -38.001s-23.166 -16 -38.499 -16z" />
    <glyph glyph-name="f_f_j.ss02" horiz-adv-x="641" 
d="M504 8v461.001l-37 51h-104v-520l-72 -160h-6v680h-138v-520l-72 -160h-6v680h-41v12h41c0 152 33.667 228 101 228c16 0 29.167 -5 39.5 -15s15.5 -22.667 15.5 -38s-5.16699 -28 -15.5 -38s-22.833 -15 -37.5 -15s-27.167 5 -37.5 15s-15.5 22.667 -15.5 38
c0 8.66699 1.66699 16.334 5 23.001c-14.667 -20 -22 -47.333 -22 -82c0 -23.333 4 -45.833 12 -67.5s19 -37.834 33 -48.501h138c0 152 33.667 228 101 228c16 0 29.167 -5 39.5 -15s15.5 -22.667 15.5 -38s-5.16699 -28 -15.5 -38s-22.833 -15 -37.5 -15
s-27.167 5 -37.5 15s-15.5 22.667 -15.5 38c0 8.66699 1.66699 16.334 5 23.001c-14.667 -20 -22 -47.333 -22 -82c0 -23.333 4 -45.833 12 -67.5s19 -37.834 33 -48.501h219v-524c0 -118.667 -30.667 -178 -92 -178c-14.667 0 -27 4.66699 -37 14s-15 21 -15 35
c0 14.667 4.83301 26.667 14.5 36s21.5 14 35.5 14s25.833 -4.66699 35.5 -14s14.5 -21.333 14.5 -36c0 -10.667 -2.66699 -19.667 -8 -27c13.333 13.333 20 32.333 20 57c0 18 -4 36.167 -12 54.5s-19.333 33.166 -34 44.499zM543 602.001
c-14.667 0 -27.167 5.1709 -37.5 15.5039s-15.5 23.166 -15.5 38.499s5.16699 28.166 15.5 38.499s22.833 15.5 37.5 15.5c15.333 0 28.166 -5.33301 38.499 -16s15.5 -23.334 15.5 -38.001s-5.16699 -27.334 -15.5 -38.001s-23.166 -16 -38.499 -16z" />
    <glyph glyph-name="f_f_j.ss02..ss03" horiz-adv-x="641" 
d="M438 -170l-2.99902 7c30 17.333 49 37.5 57 60.5s12 58.833 12 107.5v464l-37 51h-104v-520l-72 -160h-6v680h-138v-520l-72 -160h-6v680h-41v12h41c0 152 33.667 228 101 228c16 0 29.167 -5 39.5 -15s15.5 -22.667 15.5 -38s-5.16699 -28 -15.5 -38
s-22.833 -15 -37.5 -15s-27.167 5 -37.5 15s-15.5 22.667 -15.5 38c0 8.66699 1.66699 16.334 5 23.001c-14.667 -20 -22 -47.333 -22 -82c0 -23.333 4 -45.833 12 -67.5s19 -37.834 33 -48.501h138c0 152 33.667 228 101 228c16 0 29.167 -5 39.5 -15
s15.5 -22.667 15.5 -38s-5.16699 -28 -15.5 -38s-22.833 -15 -37.5 -15s-27.167 5 -37.5 15s-15.5 22.667 -15.5 38c0 8.66699 1.66699 16.334 5 23.001c-14.667 -20 -22 -47.333 -22 -82c0 -23.333 4 -45.833 12 -67.5s19 -37.834 33 -48.501h219v-517
c0 -54.667 -10.833 -94.5 -32.5 -119.5s-58.834 -46.833 -111.501 -65.5zM543.001 602c-14.667 0 -27.167 5.1709 -37.5 15.5039s-15.5 23.166 -15.5 38.499s5.16699 28.166 15.5 38.499s22.833 15.5 37.5 15.5c15.333 0 28.166 -5.33301 38.499 -16
s15.5 -23.334 15.5 -38.001s-5.16699 -27.334 -15.5 -38.001s-23.166 -16 -38.499 -16z" />
    <glyph glyph-name="f_f_j.ss03" horiz-adv-x="641" 
d="M438 -170l-2.99902 7c30 17.333 49 37.5 57 60.5s12 58.833 12 107.5v464l-37 51h-104v-458l43 -56v-6h-161v6l40 56v458h-138v-458l43 -56v-6h-161v6l40 56v458h-41v12h41c0 152 33.667 228 101 228c16 0 29.167 -5 39.5 -15s15.5 -22.667 15.5 -38
s-5.16699 -28 -15.5 -38s-22.833 -15 -37.5 -15s-27.167 5 -37.5 15s-15.5 22.667 -15.5 38c0 8.66699 1.66699 16.334 5 23.001c-14.667 -20 -22 -47.333 -22 -82c0 -23.333 4 -45.833 12 -67.5s19 -37.834 33 -48.501h138c0 152 33.667 228 101 228
c16 0 29.167 -5 39.5 -15s15.5 -22.667 15.5 -38s-5.16699 -28 -15.5 -38s-22.833 -15 -37.5 -15s-27.167 5 -37.5 15s-15.5 22.667 -15.5 38c0 8.66699 1.66699 16.334 5 23.001c-14.667 -20 -22 -47.333 -22 -82c0 -23.333 4 -45.833 12 -67.5s19 -37.834 33 -48.501h219
v-517c0 -54.667 -10.833 -94.5 -32.5 -119.5s-58.834 -46.833 -111.501 -65.5zM543.001 602c-14.667 0 -27.167 5.1709 -37.5 15.5039s-15.5 23.166 -15.5 38.499s5.16699 28.166 15.5 38.499s22.833 15.5 37.5 15.5c15.333 0 28.166 -5.33301 38.499 -16
s15.5 -23.334 15.5 -38.001s-5.16699 -27.334 -15.5 -38.001s-23.166 -16 -38.499 -16z" />
    </font>
</defs>
</svg>
